<svg xmlns="http://www.w3.org/2000/svg" xmlns:xlink="http://www.w3.org/1999/xlink" viewBox="0 0 104 32"><path d="M 68.029 2.507 C 68.257 4.764 67.517 7.094 66.001 8.9 C 65.977 8.93 65.969 8.969 65.98 9.005 C 66.776 11.588 65.76 14.618 63.51 16.373 L 62.666 17.199 C 62.643 17.221 62.631 17.253 62.633 17.285 C 62.762 19.52 61.569 21.722 59.593 22.894 L 58.359 23.626 C 58.334 23.642 58.315 23.667 58.308 23.696 C 58.301 23.725 58.305 23.755 58.321 23.781 L 58.323 23.785 L 58.374 23.866 L 58.372 23.866 L 62.311 30.549 C 62.348 30.614 62.369 30.688 62.369 30.764 C 62.369 30.986 62.197 31.17 61.985 31.173 L 60.024 31.176 C 59.815 31.176 59.624 31.065 59.513 30.879 L 58.839 29.734 C 58.837 29.731 58.835 29.728 58.834 29.725 L 57.153 26.877 C 57.129 26.837 57.084 26.817 57.04 26.827 C 55.255 27.251 53.435 27.465 51.63 27.465 C 49.782 27.465 47.922 27.242 46.102 26.8 C 46.06 26.79 46.01 26.811 45.987 26.85 L 43.658 30.878 C 43.546 31.064 43.356 31.175 43.147 31.175 L 43.125 31.175 L 41.147 31.173 C 40.935 31.17 40.763 30.986 40.763 30.763 C 40.763 30.688 40.783 30.614 40.82 30.549 L 41.853 28.801 C 41.855 28.798 41.857 28.794 41.86 28.791 L 44.741 23.866 L 44.733 23.866 L 44.786 23.781 C 44.802 23.755 44.807 23.724 44.8 23.695 C 44.793 23.666 44.774 23.641 44.748 23.626 L 43.514 22.894 C 41.539 21.721 40.346 19.519 40.475 17.285 C 40.477 17.252 40.464 17.221 40.441 17.198 L 39.598 16.373 C 37.347 14.618 36.332 11.588 37.128 9.004 C 37.139 8.968 37.132 8.929 37.107 8.899 C 35.591 7.093 34.852 4.764 35.08 2.506 C 35.141 2.087 35.318 1.334 35.81 1.006 C 35.876 0.967 35.936 0.934 35.995 0.908 C 36.129 0.848 36.269 0.818 36.414 0.824 C 36.434 0.826 36.453 0.835 36.464 0.852 C 37.334 2.108 39.011 4.053 42.065 6.197 C 43.613 7.285 44.813 8.017 45.817 8.619 C 45.822 8.622 46.088 8.781 46.088 8.781 C 46.377 8.954 46.639 9.112 46.886 9.263 C 47.328 9.556 47.719 9.855 48.067 10.15 C 48.889 10.871 50.623 12.67 50.881 15.212 C 50.881 15.212 51.176 17.232 49.868 19.903 L 47.51 24.236 C 47.492 24.267 47.489 24.306 47.503 24.34 C 47.518 24.373 47.547 24.397 47.581 24.404 C 48.926 24.66 50.289 24.79 51.63 24.79 C 52.925 24.79 54.242 24.669 55.544 24.429 C 55.579 24.423 55.608 24.399 55.623 24.365 C 55.637 24.331 55.635 24.292 55.616 24.261 L 55.488 24.026 L 55.486 24.024 L 54.751 22.677 L 54.753 22.677 L 53.212 19.851 C 51.933 17.206 52.225 15.212 52.225 15.212 C 52.476 12.737 54.126 10.966 54.972 10.209 C 55.337 9.895 55.752 9.575 56.223 9.264 C 56.45 9.124 56.69 8.98 56.951 8.824 L 57.292 8.62 C 58.295 8.018 59.495 7.285 61.044 6.198 C 64.098 4.054 65.775 2.108 66.644 0.853 C 66.656 0.836 66.674 0.826 66.695 0.825 C 66.839 0.82 66.98 0.848 67.113 0.909 C 67.172 0.935 67.233 0.967 67.299 1.007 C 67.79 1.335 67.967 2.087 68.029 2.507 Z" fill="rgb(255,238,247)"></path><path d="M 30.418 20.194 C 32.083 20.29 34.15 20.409 35.881 21.025 C 38.823 22.072 39.474 24.098 39.501 25.613 C 39.528 27.034 39.03 28.28 38.063 29.217 C 36.171 31.049 33.135 31.156 32.546 31.159 C 32.436 31.165 32.195 31.176 31.85 31.176 C 30.523 31.176 27.131 31.003 24.264 29.399 L 23.716 29.066 C 23.542 28.962 23.434 28.77 23.434 28.564 C 23.434 28.471 23.456 28.38 23.501 28.293 L 24.194 26.948 C 24.292 26.759 24.482 26.641 24.69 26.641 C 24.787 26.641 24.882 26.667 24.967 26.716 L 25.671 27.116 C 28.585 28.742 32.331 28.516 32.406 28.512 L 32.407 28.511 C 32.442 28.509 32.482 28.506 32.524 28.508 C 33.185 28.508 35.122 28.3 36.099 27.348 C 36.544 26.914 36.745 26.377 36.732 25.659 C 36.694 23.587 34.521 23.084 30.255 22.839 L 30.234 22.838 L 30.203 22.837 C 29.774 22.812 29.378 22.789 29.009 22.758 C 24.369 22.377 23.689 19.729 23.697 18.184 C 23.703 16.903 24.32 13.87 29.886 13.37 C 31.044 13.265 32.24 13.331 33.439 13.566 C 33.569 13.592 33.672 13.613 33.743 13.629 L 34.339 13.777 C 34.591 13.841 34.768 14.073 34.768 14.341 C 34.768 14.39 34.762 14.437 34.75 14.486 L 34.407 15.95 C 34.339 16.204 34.116 16.38 33.862 16.38 C 33.822 16.38 33.782 16.375 33.738 16.365 L 33.072 16.21 C 33.004 16.194 32.92 16.175 32.856 16.161 L 32.855 16.161 L 32.805 16.15 C 31.903 15.979 31.008 15.932 30.145 16.009 C 28.471 16.16 26.475 16.661 26.467 18.198 C 26.464 18.789 26.459 19.889 29.246 20.118 C 29.593 20.147 29.994 20.17 30.418 20.194 Z" fill="rgb(255,238,247)"></path><path d="M 85.866 30.535 L 76.377 13.959 C 76.164 13.572 75.694 13.322 75.18 13.322 C 74.685 13.322 74.226 13.567 73.981 13.963 L 65.586 28.741 C 65.583 28.744 65.581 28.747 65.578 28.751 L 64.554 30.536 C 64.518 30.601 64.498 30.677 64.498 30.754 C 64.498 30.981 64.669 31.169 64.879 31.173 L 66.84 31.175 L 66.862 31.175 C 67.069 31.175 67.258 31.062 67.369 30.872 L 69.679 26.76 C 69.702 26.72 69.75 26.698 69.792 26.708 C 71.597 27.159 73.441 27.387 75.274 27.387 C 77.064 27.387 78.869 27.168 80.639 26.736 C 80.683 26.726 80.728 26.746 80.751 26.786 L 82.418 29.694 C 82.42 29.697 82.421 29.701 82.423 29.704 L 83.091 30.873 C 83.201 31.063 83.391 31.176 83.598 31.176 L 85.543 31.173 C 85.753 31.17 85.923 30.982 85.923 30.755 C 85.924 30.677 85.904 30.602 85.866 30.535 Z M 79.155 24.286 C 77.864 24.53 76.558 24.654 75.273 24.654 C 73.944 24.654 72.593 24.522 71.259 24.26 C 71.225 24.253 71.196 24.228 71.182 24.194 C 71.168 24.16 71.17 24.12 71.188 24.088 L 75.091 17.202 C 75.11 17.169 75.145 17.148 75.18 17.148 C 75.217 17.148 75.25 17.168 75.27 17.202 L 79.226 24.113 C 79.245 24.145 79.248 24.185 79.233 24.219 C 79.219 24.255 79.19 24.28 79.155 24.286 Z" fill="rgb(255,238,247)"></path><path d="M 21.591 30.535 L 12.102 13.959 C 11.889 13.572 11.419 13.322 10.905 13.322 C 10.41 13.322 9.951 13.567 9.706 13.963 L 1.311 28.741 C 1.308 28.744 1.306 28.748 1.304 28.751 L 0.28 30.536 C 0.243 30.601 0.223 30.677 0.223 30.754 C 0.223 30.981 0.393 31.169 0.604 31.173 L 2.565 31.175 L 2.587 31.175 C 2.794 31.175 2.983 31.062 3.094 30.872 L 5.403 26.759 C 5.426 26.72 5.475 26.698 5.517 26.708 C 7.322 27.159 9.166 27.387 10.998 27.387 C 12.789 27.387 14.594 27.168 16.363 26.736 C 16.408 26.726 16.452 26.745 16.476 26.786 L 18.143 29.694 C 18.143 29.694 18.144 29.697 18.145 29.699 C 18.146 29.701 18.147 29.704 18.147 29.704 L 18.816 30.873 C 18.926 31.063 19.115 31.176 19.322 31.176 L 21.268 31.173 C 21.477 31.17 21.648 30.982 21.648 30.755 C 21.648 30.677 21.629 30.602 21.591 30.535 Z M 14.88 24.286 C 13.589 24.53 12.283 24.654 10.998 24.654 C 9.668 24.654 8.317 24.522 6.983 24.26 C 6.949 24.253 6.92 24.228 6.906 24.194 C 6.892 24.16 6.894 24.12 6.913 24.088 L 10.816 17.202 C 10.835 17.169 10.869 17.148 10.905 17.148 C 10.942 17.148 10.975 17.168 10.995 17.201 L 14.951 24.113 C 14.97 24.145 14.972 24.185 14.958 24.219 C 14.944 24.255 14.915 24.279 14.88 24.286 Z" fill="rgb(255,238,247)"></path><path d="M 100.157 21.025 C 98.426 20.409 96.358 20.29 94.694 20.194 C 94.27 20.17 93.869 20.147 93.522 20.118 C 90.735 19.889 90.739 18.789 90.743 18.198 C 90.751 16.661 92.747 16.16 94.421 16.009 C 95.283 15.932 96.178 15.979 97.08 16.15 C 97.146 16.165 97.26 16.189 97.348 16.21 L 98.013 16.365 C 98.057 16.375 98.097 16.38 98.138 16.38 C 98.391 16.38 98.614 16.204 98.682 15.95 L 99.025 14.486 C 99.037 14.437 99.043 14.39 99.043 14.341 C 99.043 14.073 98.866 13.841 98.614 13.777 L 98.018 13.629 C 97.947 13.613 97.844 13.592 97.714 13.566 C 96.515 13.331 95.32 13.265 94.161 13.37 C 88.595 13.87 87.979 16.903 87.972 18.184 C 87.964 19.729 88.644 22.377 93.284 22.758 C 93.655 22.789 94.052 22.812 94.482 22.837 L 94.51 22.838 L 94.531 22.839 C 98.797 23.084 100.969 23.587 101.007 25.659 C 101.02 26.377 100.819 26.914 100.374 27.348 C 99.398 28.3 97.461 28.508 96.799 28.508 C 96.757 28.506 96.718 28.509 96.682 28.511 L 96.681 28.512 C 96.606 28.516 92.86 28.742 89.947 27.116 L 89.243 26.716 C 89.158 26.667 89.062 26.641 88.966 26.641 C 88.758 26.641 88.568 26.759 88.469 26.948 L 87.777 28.293 C 87.732 28.38 87.709 28.471 87.709 28.564 C 87.709 28.77 87.818 28.962 87.992 29.066 L 88.539 29.399 C 91.406 31.003 94.799 31.176 96.125 31.176 C 96.47 31.176 96.711 31.165 96.821 31.159 C 97.411 31.156 100.446 31.049 102.338 29.217 C 103.305 28.28 103.803 27.034 103.777 25.613 C 103.749 24.098 103.099 22.072 100.157 21.025 Z" fill="rgb(255,238,247)"></path></svg>