<svg xmlns:xlink="http://www.w3.org/1999/xlink" xmlns="http://www.w3.org/2000/svg" style="width:100%;height:100%" viewBox="0 0 126 36" preserveAspectRatio="none" width="126" height="36"><defs><svg width="126" height="36" fill="none" id="svg-1936749853_2528"><path d="M53.742 20.17h-7.939v-.845c0-2.228 1.322-3.342 3.936-3.342 2.68 0 4.003 1.114 4.003 3.342v.844Zm-3.901-7.192c-5.022 0-7.532 2.43-7.532 7.326v2.938c0 5.03 2.612 7.225 8.346 7.225 1.629 0 3.087-.17 4.41-.54 1.187-.304 1.392-.542 1.392-1.655v-.44c0-1.18-.306-1.45-1.392-1.18-1.527.37-2.986.54-4.41.54-3.428 0-4.852-.98-4.852-3.445v-.741h9.432c1.256 0 1.595-.305 1.73-1.553.034-.676.068-1.183.068-1.486 0-4.592-2.477-6.99-7.192-6.99Zm22.027 10.196c0 2.869-1.05 4.017-4.308 4.017s-4.241-1.081-4.241-4.017V20.27c0-2.937 1.017-4.052 4.24-4.052 3.224 0 4.31 1.115 4.31 4.052v2.904ZM73.804 6.46h-.409c-1.22 0-1.526.305-1.526 1.52v7.191c-.916-1.452-2.579-2.195-4.954-2.195-4.716 0-7.09 2.465-7.09 7.36v2.904c0 4.828 2.578 7.225 7.769 7.225 4.987 0 7.735-2.465 7.735-7.225V7.98c0-1.215-.305-1.52-1.525-1.52m18.011 6.89h-.442c-1.22 0-1.526.304-1.526 1.52v9.014c0 2.397-.916 3.308-3.868 3.308-2.953 0-3.903-.91-3.903-3.308V14.87c0-1.216-.304-1.52-1.527-1.52h-.44c-1.222 0-1.527.304-1.527 1.52v9.014c0 4.388 2.477 6.583 7.397 6.583 5.055 0 7.363-2.161 7.363-6.583V14.87c0-1.216-.305-1.52-1.527-1.52Zm16.509 13.605H99.91c-.713 0-1.086-.202-1.086-.606 0-.305.237-.608.712-.913l7.533-4.557c1.052-.642 1.731-1.216 2.069-1.79.374-.573.544-1.35.544-2.261 0-2.532-1.053-3.477-3.937-3.477h-7.804c-1.085 0-1.356.27-1.356 1.35v.439c0 1.08.27 1.35 1.356 1.35h7.466c.711 0 1.085.203 1.085.574 0 .27-.271.608-.814.978l-7.465 4.559c-1.73 1.046-2.578 2.397-2.578 4.05 0 2.297 1.288 3.444 3.9 3.444h8.789c1.085 0 1.358-.27 1.358-1.35v-.439c0-1.08-.273-1.35-1.358-1.35Zm16.32 0h-8.415c-.712 0-1.086-.202-1.086-.606 0-.305.238-.608.712-.913l7.533-4.557c1.053-.642 1.73-1.216 2.07-1.79.373-.573.542-1.35.542-2.261 0-2.532-1.051-3.477-3.935-3.477h-7.804c-1.086 0-1.357.27-1.357 1.35v.439c0 1.08.271 1.35 1.357 1.35h7.464c.713 0 1.087.203 1.087.574 0 .27-.273.608-.814.978l-7.465 4.559c-1.732 1.046-2.58 2.397-2.58 4.05 0 2.297 1.29 3.444 3.902 3.444h8.789c1.085 0 1.356-.27 1.356-1.35v-.439c0-1.08-.271-1.35-1.356-1.35Z" fill="#0D2772"></path><path d="M34.945 18.48c0 9.666-7.873 17.5-17.589 17.5a17.583 17.583 0 0 1-13.088-5.816h10.156a2.926 2.926 0 1 0 0-5.85H.766a19.474 19.474 0 0 1-.758-2.917h7.697a2.925 2.925 0 0 0 2.93-2.917 2.925 2.925 0 0 0-2.93-2.917H.008a18.147 18.147 0 0 1 .767-2.916h13.65a2.926 2.926 0 0 0 2.931-2.917 2.926 2.926 0 0 0-2.932-2.916H4.25a17.772 17.772 0 0 1 3.99-3.296A17.546 17.546 0 0 1 17.355.98c9.715 0 17.59 7.833 17.59 17.501" fill="#FFFFFF"></path></svg></defs><use href="#svg-1936749853_2528"></use></svg>