<svg xmlns:xlink="http://www.w3.org/1999/xlink" xmlns="http://www.w3.org/2000/svg" style="width:100%;height:100%" viewBox="0 0 130 49" width="130" height="49"><defs><svg width="130" height="49" fill="none" id="svg-192199178_3782"><g clip-path="url(#svg-192199178_3782_a)" fill="none"><path d="M37.602 33.317V14.534c0-.102.067-.17.169-.17h3.614c.102 0 .17.102.17.17v6.79h.067c.946-1.216 2.398-1.757 3.986-1.757 2.838 0 3.75 1.859 3.75 4.325v9.46c0 .067-.067.168-.169.168h-3.614c-.102 0-.17-.067-.17-.169V24.23c0-1.082-1.114-1.386-1.824-1.386s-2.027.473-2.027 1.791v8.682c0 .068-.067.17-.169.17h-3.614c-.068 0-.17-.068-.17-.17Zm28.817-3.716v-6.453h-1.655c-.102 0-.17-.067-.17-.168v-2.332c0-.067.068-.135.102-.168.068-.034 2.196-.642 2.196-.642s1.149-3.649 1.183-3.716c.033-.068.067-.102.168-.102h1.96c.101 0 .169.068.169.17v3.648h2.905c.068 0 .17.067.17.169v2.973c0 .101-.102.168-.17.168h-2.905v6.082c0 .642.371 1.013 1.216 1.013h1.69c.1 0 .168.102.168.169v2.601c0 .102-.067.136-.101.17-1.014.37-1.588.607-2.77.607-2.94-.033-4.156-1.756-4.156-4.189Zm56.554 0v-6.453h-1.655c-.102 0-.169-.067-.169-.168v-2.332c0-.067.067-.135.101-.168.068-.034 2.196-.642 2.196-.642s1.149-3.649 1.183-3.716c.033-.068.067-.102.169-.102h1.959c.101 0 .169.068.169.17v3.648h2.905c.068 0 .169.067.169.169v2.973c0 .101-.101.168-.169.168h-2.905v6.082c0 .642.372 1.013 1.216 1.013h1.689c.102 0 .169.102.169.169v2.601c0 .102-.067.136-.101.17-1.014.37-1.588.607-2.77.607-2.973-.033-4.156-1.756-4.156-4.189Zm-47.128 3.716V19.973c0-.101.067-.17.169-.17h3.277c.067 0 .135.069.169.136 0 .068.371 1.351.371 1.351h.068c.946-1.216 2.365-1.756 3.953-1.756 1.925 0 2.871.878 3.412 2.23h.101c.98-1.656 2.703-2.23 4.29-2.23 2.838 0 3.75 1.858 3.75 4.324v9.46c0 .1-.067.168-.168.168h-3.615c-.102 0-.17-.101-.17-.169v-9.054c0-1.08-1.013-1.486-1.722-1.486-.81 0-2.06.507-2.095 1.723v8.784c0 .067-.067.169-.169.169h-3.648c-.102 0-.17-.068-.17-.17V24.23c0-1.082-1.08-1.487-1.857-1.487-.71 0-1.96.54-1.96 1.892v8.649c0 .101-.067.169-.169.169h-3.615c-.135.033-.202-.068-.202-.136ZM97.77 22.844v-2.466c0-.101.068-.169.136-.169 1.891-.371 3.614-.642 5.27-.642 3.513 0 5.54.845 5.54 4.629v9.155c0 .102-.067.17-.168.17h-3.446c-.102 0-.136-.068-.169-.136-.034-.068-.372-1.351-.372-1.351h.169c-.98 1.351-2.297 1.756-3.885 1.756-2.568 0-3.953-1.993-3.953-4.358 0-3.547 2.602-4.256 4.527-4.256h3.345v-.913c0-1.115-.845-1.351-4.021-1.351-1.35 0-2.77.101-2.837.101-.034 0-.136-.101-.136-.169Zm7.028 4.73h-2.163c-1.148 0-1.892.44-1.892 1.656 0 1.317.946 1.621 1.859 1.621.844 0 2.196-.506 2.196-2.196v-1.08Zm6.25 5.743V19.973c0-.101.067-.17.168-.17h3.244c.101 0 .169.069.169.136 0 .068.371 2.06.371 2.06h.068c.878-1.79 2.669-2.432 4.223-2.5.101 0 .169.068.169.17v3.716c0 .101-.102.169-.169.169h-.912c-2.5 0-3.345.98-3.345 2.23v7.5c0 .101-.101.169-.169.169h-3.615c-.101.033-.202-.034-.202-.136Zm-60-6.655c0-4.358 1.689-7.095 6.52-7.095 4.83 0 6.554 2.77 6.554 7.095 0 4.358-1.69 7.095-6.554 7.095-4.831 0-6.52-2.737-6.52-7.095Zm4.256 0c0 2.365.338 3.784 2.23 3.784 1.926 0 2.264-1.453 2.264-3.784 0-2.365-.338-3.784-2.264-3.784-1.858 0-2.23 1.42-2.23 3.784Z" fill="#FFFFFF"></path><path d="M30.203 29.825c.203-3.716-1.08-9.797-4.189-14.797-.067-.136-.236-.068-.203.067.203.743.27 2.129-.946 2.061-2.128-.135.068-4.73-4.628-7.872-.101-.067-.203.034-.169.136.338.608.507 2.533-.236 3.175-.608.507-1.69.372-2.737-1.351-1.757-2.872-1.081-5.912.102-7.838.1-.135-.034-.203-.136-.169-6.452 2.128-7.736 9.73-9.121 12.5-.237.473-.44.71-.811.676-1.183-.068-.338-2.602.067-3.446.068-.135-.067-.203-.168-.101C3.717 16.31.71 22.224.136 27.696c.033-.135-.068.44-.102.879 0 .169-.033.338-.033.507v.608c-.068 8.344 6.621 15.135 14.966 15.236 8.344.068 15.135-6.621 15.236-14.966v-.135Zm-15.169 6.993a6.986 6.986 0 0 1-6.925-7.06 6.965 6.965 0 0 1 7.06-6.926 6.965 6.965 0 0 1 6.926 7.06 6.965 6.965 0 0 1-7.06 6.926Z" fill="#A4381F"></path></g><defs><clipPath id="svg-192199178_3782_a"><path fill="#fff" transform="translate(0 .065)" d="M0 0h130v48H0z"></path></clipPath></defs></svg></defs><g><g clip-path="url(#svg-192199178_3782_a)" fill="none"><path d="M37.602 33.317V14.534c0-.102.067-.17.169-.17h3.614c.102 0 .17.102.17.17v6.79h.067c.946-1.216 2.398-1.757 3.986-1.757 2.838 0 3.75 1.859 3.75 4.325v9.46c0 .067-.067.168-.169.168h-3.614c-.102 0-.17-.067-.17-.169V24.23c0-1.082-1.114-1.386-1.824-1.386s-2.027.473-2.027 1.791v8.682c0 .068-.067.17-.169.17h-3.614c-.068 0-.17-.068-.17-.17Zm28.817-3.716v-6.453h-1.655c-.102 0-.17-.067-.17-.168v-2.332c0-.067.068-.135.102-.168.068-.034 2.196-.642 2.196-.642s1.149-3.649 1.183-3.716c.033-.068.067-.102.168-.102h1.96c.101 0 .169.068.169.17v3.648h2.905c.068 0 .17.067.17.169v2.973c0 .101-.102.168-.17.168h-2.905v6.082c0 .642.371 1.013 1.216 1.013h1.69c.1 0 .168.102.168.169v2.601c0 .102-.067.136-.101.17-1.014.37-1.588.607-2.77.607-2.94-.033-4.156-1.756-4.156-4.189Zm56.554 0v-6.453h-1.655c-.102 0-.169-.067-.169-.168v-2.332c0-.067.067-.135.101-.168.068-.034 2.196-.642 2.196-.642s1.149-3.649 1.183-3.716c.033-.068.067-.102.169-.102h1.959c.101 0 .169.068.169.17v3.648h2.905c.068 0 .169.067.169.169v2.973c0 .101-.101.168-.169.168h-2.905v6.082c0 .642.372 1.013 1.216 1.013h1.689c.102 0 .169.102.169.169v2.601c0 .102-.067.136-.101.17-1.014.37-1.588.607-2.77.607-2.973-.033-4.156-1.756-4.156-4.189Zm-47.128 3.716V19.973c0-.101.067-.17.169-.17h3.277c.067 0 .135.069.169.136 0 .068.371 1.351.371 1.351h.068c.946-1.216 2.365-1.756 3.953-1.756 1.925 0 2.871.878 3.412 2.23h.101c.98-1.656 2.703-2.23 4.29-2.23 2.838 0 3.75 1.858 3.75 4.324v9.46c0 .1-.067.168-.168.168h-3.615c-.102 0-.17-.101-.17-.169v-9.054c0-1.08-1.013-1.486-1.722-1.486-.81 0-2.06.507-2.095 1.723v8.784c0 .067-.067.169-.169.169h-3.648c-.102 0-.17-.068-.17-.17V24.23c0-1.082-1.08-1.487-1.857-1.487-.71 0-1.96.54-1.96 1.892v8.649c0 .101-.067.169-.169.169h-3.615c-.135.033-.202-.068-.202-.136ZM97.77 22.844v-2.466c0-.101.068-.169.136-.169 1.891-.371 3.614-.642 5.27-.642 3.513 0 5.54.845 5.54 4.629v9.155c0 .102-.067.17-.168.17h-3.446c-.102 0-.136-.068-.169-.136-.034-.068-.372-1.351-.372-1.351h.169c-.98 1.351-2.297 1.756-3.885 1.756-2.568 0-3.953-1.993-3.953-4.358 0-3.547 2.602-4.256 4.527-4.256h3.345v-.913c0-1.115-.845-1.351-4.021-1.351-1.35 0-2.77.101-2.837.101-.034 0-.136-.101-.136-.169Zm7.028 4.73h-2.163c-1.148 0-1.892.44-1.892 1.656 0 1.317.946 1.621 1.859 1.621.844 0 2.196-.506 2.196-2.196v-1.08Zm6.25 5.743V19.973c0-.101.067-.17.168-.17h3.244c.101 0 .169.069.169.136 0 .068.371 2.06.371 2.06h.068c.878-1.79 2.669-2.432 4.223-2.5.101 0 .169.068.169.17v3.716c0 .101-.102.169-.169.169h-.912c-2.5 0-3.345.98-3.345 2.23v7.5c0 .101-.101.169-.169.169h-3.615c-.101.033-.202-.034-.202-.136Zm-60-6.655c0-4.358 1.689-7.095 6.52-7.095 4.83 0 6.554 2.77 6.554 7.095 0 4.358-1.69 7.095-6.554 7.095-4.831 0-6.52-2.737-6.52-7.095Zm4.256 0c0 2.365.338 3.784 2.23 3.784 1.926 0 2.264-1.453 2.264-3.784 0-2.365-.338-3.784-2.264-3.784-1.858 0-2.23 1.42-2.23 3.784Z" fill="#FFFFFF"></path><path d="M30.203 29.825c.203-3.716-1.08-9.797-4.189-14.797-.067-.136-.236-.068-.203.067.203.743.27 2.129-.946 2.061-2.128-.135.068-4.73-4.628-7.872-.101-.067-.203.034-.169.136.338.608.507 2.533-.236 3.175-.608.507-1.69.372-2.737-1.351-1.757-2.872-1.081-5.912.102-7.838.1-.135-.034-.203-.136-.169-6.452 2.128-7.736 9.73-9.121 12.5-.237.473-.44.71-.811.676-1.183-.068-.338-2.602.067-3.446.068-.135-.067-.203-.168-.101C3.717 16.31.71 22.224.136 27.696c.033-.135-.068.44-.102.879 0 .169-.033.338-.033.507v.608c-.068 8.344 6.621 15.135 14.966 15.236 8.344.068 15.135-6.621 15.236-14.966v-.135Zm-15.169 6.993a6.986 6.986 0 0 1-6.925-7.06 6.965 6.965 0 0 1 7.06-6.926 6.965 6.965 0 0 1 6.926 7.06 6.965 6.965 0 0 1-7.06 6.926Z" fill="#A4381F"></path></g><defs><clippath id="svg-192199178_3782_a"><path fill="#fff" transform="translate(0 .065)" d="M0 0h130v48H0z"></path></clippath></defs></g></svg>