

<svg viewBox="0 0 126 34" xmlns:xlink="http://www.w3.org/1999/xlink" xmlns="http://www.w3.org/2000/svg" width="126" height="34" fill="none" id="svg-805060775_4996"><g clip-path="url(#svg-805060775_4996_a)" fill="#FFFFFF"><path d="M19.537 28.437c3.52 0 6.662-1.139 9.3-3.502.63-.549.965-.549 1.467.084.67.76 1.383 1.477 2.095 2.152.46.422.377.633-.042 1.013-2.849 2.616-6.2 4.22-10.013 4.853-9.007 1.477-17.721-4.178-20.57-12.153C-.823 13.584.601 7.044 5.587 1.22c.418-.464.628-.464 1.047 0 .712.802 1.508 1.561 2.304 2.321.377.38.419.549.042 1.013-3.687 4.304-4.608 9.199-2.807 14.558 1.843 5.528 7.332 9.325 13.364 9.325Zm55.091-13.545c-.754 2.363-1.508 4.642-2.22 6.92-.251.76-.544 1.52-.712 2.279-.168.717-.503.886-1.215.844-.712-.042-1.424 0-2.137 0-1.382 0-1.382 0-1.843-1.266a1755.933 1755.933 0 0 0-4.944-13.503c-.25-.675-.125-.844.545-.802.922.042 1.844.042 2.723-.042.67-.042 1.006.169 1.173.844.88 3.038 1.885 6.076 2.807 9.115.084.295.21.633.377 1.181.377-1.308.712-2.405 1.048-3.502a442.801 442.801 0 0 0 2.094-7.005c.126-.464.335-.675.838-.633 1.006.042 2.053.042 3.1 0 .503 0 .713.169.838.633l2.765 9.115c.126.337.126.76.503 1.097.419-1.393.838-2.7 1.257-4.051.628-2.026 1.257-4.051 1.843-6.077.168-.59.42-.76 1.006-.717.963.042 1.927.042 2.89 0 .461 0 .67.042.461.633-1.76 4.768-3.477 9.536-5.195 14.305-.21.548-.46.717-.963.675a33.018 33.018 0 0 0-2.89 0c-.587.042-.839-.127-1.006-.717-.922-2.954-1.886-5.866-2.85-8.82 0-.168 0-.337-.293-.506Zm-32.928-.21a290.982 290.982 0 0 0 5.32-4.854c.335-.295.628-.506 1.131-.464 1.383.042 2.765 0 4.357 0-1.005 1.097-1.927 2.026-2.807 2.996-.754.802-1.466 1.604-2.262 2.363-.46.422-.503.718-.167 1.308 1.717 2.701 3.393 5.444 5.069 8.187.125.168.21.38.419.717h-4.944c-.377 0-.46-.38-.628-.633-.964-1.646-1.97-3.291-2.891-4.98-.377-.632-.545-.548-1.09-.126-1.256 1.013-1.424 2.321-1.382 3.84.084 1.941 0 1.941-1.885 1.941-.587 0-1.215-.042-1.801 0-.629.042-.755-.21-.755-.802V4.258c0-.633.168-.886.796-.844a31.14 31.14 0 0 0 2.807 0c.67-.042.838.211.796.844-.042 3.334 0 6.667 0 10.001.084.211 0 .506-.084.422Zm74.488 5.316c.712-2.026 1.299-3.798 1.927-5.57.503-1.477 1.005-2.996 1.508-4.473.126-.464.377-.633.838-.59a40.05 40.05 0 0 0 3.184 0c.503 0 .587.168.419.59-2.262 5.697-4.483 11.351-6.745 17.048-1.634 4.135-6.033 4.515-8.84 2.869-.628-.38-.963-.675-.419-1.435.461-.59.796-1.266 1.131-1.94.21-.38.336-.38.713-.17 1.717 1.013 2.932.591 3.812-1.181.293-.59.084-1.013-.126-1.477-1.927-4.557-3.812-9.072-5.739-13.63-.293-.675-.126-.76.503-.717a35.11 35.11 0 0 0 2.974 0c.587-.042.838.169 1.047.717 1.09 2.996 2.263 5.992 3.394 9.03.126.254.209.465.419.929Z" fill="#FFFFFF"></path><path d="M99.17 18.995c0-1.739-.041-3.478 0-5.218 0-.551-.168-.806-.715-.721-.21.043-.421 0-.59 0-.547.043-.842-.127-.758-.721.042-.212 0-.424 0-.594 0-1.612 0-1.655 1.558-1.782.548-.042.464-.382.464-.721 0-1.273.084-2.503.758-3.606 1.432-2.249 3.58-2.673 5.981-2.503.884.085 1.727.34 2.527.721.379.17.548.34.295.764-.421.72-.758 1.484-1.137 2.248-.169.382-.379.424-.716.212a3.06 3.06 0 0 0-1.475-.382c-1.389 0-2.442 1.74-1.811 2.97.127.255.379.212.59.212.758 0 1.558.043 2.317 0 .547-.042.8.127.758.721-.042.594-.042 1.23 0 1.825.042.466-.169.594-.59.594-.716-.043-1.432.042-2.148 0-.716-.043-.969.127-.969.933.042 3.352 0 6.703.042 10.055 0 .678-.126.975-.884.933-.969-.085-1.938-.043-2.907 0-.547.042-.673-.17-.673-.679.126-1.74.084-3.479.084-5.26ZM59.03 17.13c0 2.29-.042 4.624.043 6.915 0 .806-.253.976-.97.933-.926-.085-1.895-.042-2.821 0-.463 0-.674-.127-.674-.636V9.874c0-.466.21-.594.632-.594 1.053 0 2.106.043 3.2 0 .548-.042.633.212.633.722-.085 2.375-.042 4.751-.042 7.127Zm35.213.127c0 2.29-.042 4.54 0 6.83 0 .722-.21.934-.927.891a29.476 29.476 0 0 0-2.738 0c-.631.043-.842-.17-.8-.806.042-3.988 0-8.018 0-12.006 0-.721.042-1.442 0-2.163-.042-.552.169-.68.674-.68.969.043 1.938.043 2.906 0 .674-.042.885.17.885.85-.042 2.375 0 4.708 0 7.084ZM59.199 4.826c0 1.485-1.01 2.46-2.4 2.46s-2.402-1.103-2.36-2.503c.043-1.442 1.096-2.503 2.443-2.503 1.348.043 2.317 1.146 2.317 2.546Zm35.17 0c0 1.442-1.01 2.503-2.4 2.46-1.433 0-2.36-1.018-2.36-2.503 0-1.442 1.012-2.503 2.401-2.503 1.39.043 2.36 1.103 2.36 2.546Zm-81.418 7.34c-1.263-.17-2.358-.637-3.2-1.655-.296-.382-.548-.806-.296-1.273.253-.51.8-.552 1.264-.467 1.221.17 2.232.679 3.033 1.612.336.382.631.806.379 1.316-.21.466-.716.466-1.18.466Zm11.373 10.436c-.042.466-.042.89-.464 1.102-.379.213-.8.085-1.137-.17-1.18-.932-1.811-2.12-1.811-3.648 0-.975.758-1.315 1.558-.72 1.18.848 1.727 2.035 1.854 3.436Zm-8.93-3.946c0 1.273-2.064 3.31-3.327 3.31-.674 0-.927-.383-.885-1.02.085-1.23 1.896-3.096 3.117-3.266.674-.042 1.095.34 1.095.976Zm.927 3.946c0-.849.253-1.655.716-2.376.253-.424.59-.764 1.095-.721.548.042.716.509.842.975.337 1.273.127 2.46-.505 3.564-.21.382-.547.806-1.053.721-.547-.085-.758-.551-.884-1.06-.169-.34-.169-.722-.211-1.103Zm-4.675-8.57c1.179 0 1.937.382 1.98.976.084.551-.59 1.187-1.643 1.527-.97.297-1.896.424-2.865.042-.884-.382-1.01-1.145-.21-1.697.8-.636 1.727-.89 2.738-.848Z" fill="#FFFFFF"></path></g><defs><clipPath id="svg-805060775_4996_a"><path fill="#fff" transform="translate(.5 .565)" d="M0 0h125v33H0z"></path></clipPath></defs></svg>