<svg xmlns:xlink="http://www.w3.org/1999/xlink" xmlns="http://www.w3.org/2000/svg" style="width:100%;height:100%" viewBox="0 0 116 41" preserveAspectRatio="none" width="116" height="41"><defs><svg width="116" height="41" fill="none" id="svg88916740_3442"><path d="M31.947 7.896a.397.397 0 0 0-.355-.333c-.142-.023-3.26-.239-3.26-.239l-2.376-2.376c-.214-.239-.688-.168-.868-.118-.022 0-.474.142-1.211.381-.718-2.073-1.987-3.976-4.222-3.976h-.19c-.642-.83-1.426-1.212-2.09-1.212-5.206.023-7.688 6.516-8.471 9.834l-3.639 1.116c-1.116.355-1.158.381-1.305 1.445L.893 36.075l22.992 4.303 12.46-2.686c0-.023-4.374-29.57-4.397-29.794l-.001-.002ZM22.602 5.61c-.58.19-1.25.381-1.949.596v-.428a9.438 9.438 0 0 0-.475-3.152c1.165.18 1.949 1.487 2.424 2.984ZM18.775 2.9a9.65 9.65 0 0 1 .52 3.487V6.6l-4.02 1.25c.787-2.938 2.237-4.39 3.498-4.937l.002-.013ZM17.23 1.456c.238.006.468.08.665.213-1.677.782-3.45 2.753-4.21 6.7l-3.18.974c.897-2.995 2.99-7.894 6.722-7.894l.002.007Z" fill="#95BF47"></path><path d="M31.592 7.562c-.142-.023-3.259-.239-3.259-.239l-2.377-2.376a.465.465 0 0 0-.332-.142l-1.735 35.569 12.46-2.687-4.4-29.771a.43.43 0 0 0-.356-.355Z" fill="#5E8E3E"></path><path d="m19.655 14.457-1.547 4.565a7.158 7.158 0 0 0-2.995-.715c-2.427 0-2.544 1.521-2.544 1.903 0 2.078 5.445 2.877 5.445 7.776 0 3.852-2.45 6.325-5.731 6.325-3.947 0-5.969-2.45-5.969-2.45l1.05-3.497s2.066 1.783 3.829 1.783a1.556 1.556 0 0 0 1.617-1.57c0-2.737-4.47-2.855-4.47-7.325 0-3.758 2.709-7.42 8.154-7.42 2.14.031 3.164.624 3.164.624l-.003.001Z" fill="#FFFFFF"></path><path d="M47.166 21.256c-.89-.477-1.349-.889-1.349-1.453 0-.716.624-1.178 1.639-1.178a5.813 5.813 0 0 1 2.185.478l.82-2.491s-.751-.581-2.954-.581c-3.073 0-5.208 1.76-5.208 4.233 0 1.399.99 2.475 2.321 3.243 1.076.624 1.454 1.038 1.454 1.69 0 .651-.53 1.195-1.537 1.195-1.484 0-2.884-.767-2.884-.767l-.87 2.49s1.298.87 3.466.87c3.157 0 5.428-1.553 5.428-4.36.017-1.52-1.128-2.577-2.498-3.38l-.013.011Zm12.598-5.24c-1.554 0-2.783.734-3.723 1.869l-.052-.017 1.349-7.059h-3.514l-3.415 17.976h3.517l1.177-6.146c.461-2.32 1.662-3.756 2.782-3.756.784 0 1.093.529 1.093 1.298 0 .522-.053 1.041-.154 1.553l-1.33 7.034h3.516l1.383-7.268c.151-.753.239-1.517.256-2.282-.017-1.98-1.058-3.175-2.884-3.175l-.002-.027Zm10.821 0c-4.233 0-7.033 3.824-7.033 8.062 0 2.732 1.69 4.917 4.848 4.917 4.153 0 6.966-3.723 6.966-8.063 0-2.526-1.484-4.916-4.775-4.916h-.006ZM68.86 26.309c-1.196 0-1.707-1.022-1.707-2.282 0-2.015 1.038-5.309 2.955-5.309 1.246 0 1.661 1.076 1.661 2.118-.004 2.163-1.044 5.473-2.907 5.473h-.002Zm15.5-10.293c-2.385 0-3.722 2.075-3.722 2.075h-.052l.207-1.869h-3.114l-.716 4.662-2.441 12.872h3.5l.975-5.207h.068s.715.46 2.067.46c4.13 0 6.828-4.233 6.828-8.511.017-2.357-1.038-4.472-3.602-4.472l.002-.01ZM80.996 26.36a2.191 2.191 0 0 1-1.454-.513l.582-3.295c.415-2.186 1.553-3.654 2.782-3.654 1.075 0 1.398.99 1.398 1.93.006 2.29-1.34 5.534-3.304 5.534l-.004-.002Zm12.002-15.397a2 2 0 0 0-1.434.592 1.947 1.947 0 0 0-.568 1.44c0 1.038.667 1.76 1.661 1.76h.053a1.988 1.988 0 0 0 2.065-2.032c0-1.022-.683-1.76-1.76-1.76h-.017ZM88.086 28.75h3.517l2.389-12.457h-3.53m12.491-.017h-2.456l.12-.582c.208-1.195.922-2.27 2.076-2.27.382 0 .762.057 1.128.17l.679-2.752s-.625-.306-1.912-.306a5.256 5.256 0 0 0-3.449 1.177c-1.196 1.022-1.76 2.492-2.044 3.978l-.114.581h-1.638l-.513 2.646h1.638L94.6 28.753h3.53l1.868-9.834h2.426l.477-2.646.053.004Zm8.469.017-3.193 8.57h-.052l-.87-8.57H103.6l2.118 11.437a.805.805 0 0 1-.068.581 6.061 6.061 0 0 1-1.912 2.118 7.986 7.986 0 0 1-1.981.99l.975 2.987a8.065 8.065 0 0 0 3.442-1.918c1.604-1.504 3.088-3.825 4.61-6.984l4.301-9.218h-3.664l.001.007Z" fill="#1B1B1B"></path></svg></defs><use href="#svg88916740_3442"></use></svg>