<svg xmlns:xlink="http://www.w3.org/1999/xlink" xmlns="http://www.w3.org/2000/svg" style="width:100%;height:100%" viewBox="0 0 40 161" preserveAspectRatio="none" width="40" height="161"><defs><svg width="40" height="161" fill="none" id="svg1668382948_3070"><g opacity=".4" fill="none"><rect x="28" width="28" height="28" rx="14" transform="rotate(90 28 0)" fill="#44D093"></rect><path d="m20.848 10.854-8.32 8a.523.523 0 0 1-.368.146.537.537 0 0 1-.368-.147l-3.64-3.5a.49.49 0 0 1 0-.707.531.531 0 0 1 .736 0l3.272 3.147 7.952-7.646a.531.531 0 0 1 .736 0 .49.49 0 0 1 0 .707Z" fill="#FFFFFF"></path></g><g opacity=".9" fill="none"><rect x="28" y="33" width="28" height="28" rx="14" transform="rotate(90 28 33)" fill="#D93D8D"></rect><path d="M9.853 51.854a.5.5 0 1 1-.707-.707L13.293 47l-4.147-4.146a.5.5 0 1 1 .707-.707L14 46.293l4.146-4.146a.5.5 0 1 1 .707.707L14.707 47l4.146 4.147a.5.5 0 0 1-.707.707L14 47.707l-4.147 4.147Z" fill="#FFFFFF"></path></g><g opacity=".4" fill="none"><rect x="28" y="66" width="28" height="28" rx="14" transform="rotate(90 28 66)" fill="#44D093"></rect><path d="m20.848 76.854-8.32 8a.523.523 0 0 1-.368.146.537.537 0 0 1-.368-.147l-3.64-3.5a.49.49 0 0 1 0-.707.531.531 0 0 1 .736 0l3.272 3.147 7.952-7.647a.531.531 0 0 1 .736 0 .49.49 0 0 1 0 .708Z" fill="#FFFFFF"></path></g><g opacity=".4" fill="none"><rect x="28" y="100" width="28" height="28" rx="14" transform="rotate(90 28 100)" fill="#44D093"></rect><path d="m20.848 110.854-8.32 7.999a.513.513 0 0 1-.368.147.541.541 0 0 1-.368-.147l-3.64-3.499a.491.491 0 0 1 0-.708.53.53 0 0 1 .368-.146.53.53 0 0 1 .368.146l3.272 3.147 7.952-7.646a.53.53 0 0 1 .736 0 .489.489 0 0 1 0 .707Z" fill="#FFFFFF"></path></g><g opacity=".4" fill="none"><rect x="28" y="133" width="28" height="28" rx="14" transform="rotate(90 28 133)" fill="#44D093"></rect><path d="m20.848 143.854-8.32 7.999a.513.513 0 0 1-.368.147.541.541 0 0 1-.368-.147l-3.64-3.499a.491.491 0 0 1 0-.708.53.53 0 0 1 .368-.146.53.53 0 0 1 .368.146l3.272 3.147 7.952-7.646a.53.53 0 0 1 .736 0 .489.489 0 0 1 0 .707Z" fill="#FFFFFF"></path></g><g filter="url(#svg1668382948_3070_a)" fill="none"><rect x="21" y="46" width="19" height="19" rx="9.5" fill="#FFFFFF"></rect><path d="M35.5 56.591c0 .771-.325 1.51-.902 2.056a3.172 3.172 0 0 1-2.175.853h-4.23a.396.396 0 0 1-.272-.106.354.354 0 0 1-.113-.258c0-.096.04-.189.113-.257a.396.396 0 0 1 .271-.106h4.231c.612 0 1.2-.23 1.632-.64.433-.408.676-.963.676-1.542 0-.579-.243-1.134-.676-1.543a2.377 2.377 0 0 0-1.632-.639h-5.61l1.652 1.561a.352.352 0 0 1 0 .515.396.396 0 0 1-.273.106.396.396 0 0 1-.272-.106l-2.307-2.182a.363.363 0 0 1-.113-.257.348.348 0 0 1 .113-.258l2.307-2.181a.396.396 0 0 1 .272-.107c.103 0 .2.038.273.107a.352.352 0 0 1 0 .514l-1.652 1.561h5.61c.816 0 1.598.308 2.175.853.577.545.901 1.285.902 2.056Z" fill="#D93D8D"></path></g><defs><filter id="svg1668382948_3070_a" x="21" y="46" width="19" height="19.625" filterUnits="userSpaceOnUse" color-interpolation-filters="sRGB"><feFlood flood-opacity="0" result="BackgroundImageFix"></feFlood><feColorMatrix in="SourceAlpha" values="0 0 0 0 0 0 0 0 0 0 0 0 0 0 0 0 0 0 127 0" result="hardAlpha"></feColorMatrix><feOffset dy=".625"></feOffset><feComposite in2="hardAlpha" operator="out"></feComposite><feColorMatrix values="0 0 0 0 0 0 0 0 0 0 0 0 0 0 0 0 0 0 0.25 0"></feColorMatrix><feBlend in2="BackgroundImageFix" result="effect1_dropShadow_3953_3466"></feBlend><feBlend in="SourceGraphic" in2="effect1_dropShadow_3953_3466" result="shape"></feBlend></filter></defs></svg></defs><g><g opacity=".4" fill="none"><rect x="28" width="28" height="28" rx="14" transform="rotate(90 28 0)" fill="#44D093"></rect><path d="m20.848 10.854-8.32 8a.523.523 0 0 1-.368.146.537.537 0 0 1-.368-.147l-3.64-3.5a.49.49 0 0 1 0-.707.531.531 0 0 1 .736 0l3.272 3.147 7.952-7.646a.531.531 0 0 1 .736 0 .49.49 0 0 1 0 .707Z" fill="#FFFFFF"></path></g><g opacity=".9" fill="none"><rect x="28" y="33" width="28" height="28" rx="14" transform="rotate(90 28 33)" fill="#D93D8D"></rect><path d="M9.853 51.854a.5.5 0 1 1-.707-.707L13.293 47l-4.147-4.146a.5.5 0 1 1 .707-.707L14 46.293l4.146-4.146a.5.5 0 1 1 .707.707L14.707 47l4.146 4.147a.5.5 0 0 1-.707.707L14 47.707l-4.147 4.147Z" fill="#FFFFFF"></path></g><g opacity=".4" fill="none"><rect x="28" y="66" width="28" height="28" rx="14" transform="rotate(90 28 66)" fill="#44D093"></rect><path d="m20.848 76.854-8.32 8a.523.523 0 0 1-.368.146.537.537 0 0 1-.368-.147l-3.64-3.5a.49.49 0 0 1 0-.707.531.531 0 0 1 .736 0l3.272 3.147 7.952-7.647a.531.531 0 0 1 .736 0 .49.49 0 0 1 0 .708Z" fill="#FFFFFF"></path></g><g opacity=".4" fill="none"><rect x="28" y="100" width="28" height="28" rx="14" transform="rotate(90 28 100)" fill="#44D093"></rect><path d="m20.848 110.854-8.32 7.999a.513.513 0 0 1-.368.147.541.541 0 0 1-.368-.147l-3.64-3.499a.491.491 0 0 1 0-.708.53.53 0 0 1 .368-.146.53.53 0 0 1 .368.146l3.272 3.147 7.952-7.646a.53.53 0 0 1 .736 0 .489.489 0 0 1 0 .707Z" fill="#FFFFFF"></path></g><g opacity=".4" fill="none"><rect x="28" y="133" width="28" height="28" rx="14" transform="rotate(90 28 133)" fill="#44D093"></rect><path d="m20.848 143.854-8.32 7.999a.513.513 0 0 1-.368.147.541.541 0 0 1-.368-.147l-3.64-3.499a.491.491 0 0 1 0-.708.53.53 0 0 1 .368-.146.53.53 0 0 1 .368.146l3.272 3.147 7.952-7.646a.53.53 0 0 1 .736 0 .489.489 0 0 1 0 .707Z" fill="#FFFFFF"></path></g><g filter="url(#svg1668382948_3070_a)" fill="none"><rect x="21" y="46" width="19" height="19" rx="9.5" fill="#FFFFFF"></rect><path d="M35.5 56.591c0 .771-.325 1.51-.902 2.056a3.172 3.172 0 0 1-2.175.853h-4.23a.396.396 0 0 1-.272-.106.354.354 0 0 1-.113-.258c0-.096.04-.189.113-.257a.396.396 0 0 1 .271-.106h4.231c.612 0 1.2-.23 1.632-.64.433-.408.676-.963.676-1.542 0-.579-.243-1.134-.676-1.543a2.377 2.377 0 0 0-1.632-.639h-5.61l1.652 1.561a.352.352 0 0 1 0 .515.396.396 0 0 1-.273.106.396.396 0 0 1-.272-.106l-2.307-2.182a.363.363 0 0 1-.113-.257.348.348 0 0 1 .113-.258l2.307-2.181a.396.396 0 0 1 .272-.107c.103 0 .2.038.273.107a.352.352 0 0 1 0 .514l-1.652 1.561h5.61c.816 0 1.598.308 2.175.853.577.545.901 1.285.902 2.056Z" fill="#D93D8D"></path></g><defs><filter id="svg1668382948_3070_a" x="21" y="46" width="19" height="19.625" filterunits="userSpaceOnUse" color-interpolation-filters="sRGB"><feflood flood-opacity="0" result="BackgroundImageFix"></feflood><fecolormatrix in="SourceAlpha" values="0 0 0 0 0 0 0 0 0 0 0 0 0 0 0 0 0 0 127 0" result="hardAlpha"></fecolormatrix><feoffset dy=".625"></feoffset><fecomposite in2="hardAlpha" operator="out"></fecomposite><fecolormatrix values="0 0 0 0 0 0 0 0 0 0 0 0 0 0 0 0 0 0 0.25 0"></fecolormatrix><feblend in2="BackgroundImageFix" result="effect1_dropShadow_3953_3466"></feblend><feblend in="SourceGraphic" in2="effect1_dropShadow_3953_3466" result="shape"></feblend></filter></defs></g></svg>