<svg xmlns:xlink="http://www.w3.org/1999/xlink" xmlns="http://www.w3.org/2000/svg" style="width:100%;height:100%" viewBox="0 0 194 272" preserveAspectRatio="none" width="200" height="272"><defs><svg width="194" height="272" fill="none" id="svg-1548165933_5126"><path fill-rule="evenodd" clip-rule="evenodd" d="M98 0v80h-2V0h2Z" fill="url(&quot;#svg-1548165933_5126_a&quot;)"></path><path fill-rule="evenodd" clip-rule="evenodd" d="M121 216.3c-13.807 0-25-11.193-25-25V104h2v87.3c0 12.703 10.297 23 23 23h48c13.807 0 25 11.193 25 25V272h-2v-32.7c0-12.702-10.297-23-23-23h-48Z" fill="#D93D8D"></path><path fill-rule="evenodd" clip-rule="evenodd" d="M73 216.3c13.807 0 25-11.193 25-25V104h-2v87.3c0 12.703-10.297 23-23 23H25c-13.807 0-25 11.193-25 25V272h2v-32.7c0-12.702 10.297-23 23-23h48Z" fill="#223667"></path><rect x="49" y="72" width="96" height="96" rx="24" fill="#D93D8D"></rect><path fill-rule="evenodd" clip-rule="evenodd" d="m117.953 133.919-39.931 12.996c-.984.332-2.022-.352-2.022-1.341v-8.77c0-1.598 1.064-3.02 2.665-3.562l25.274-8.662c6.414-2.167 13.304 1.985 13.599 8.303.013.264.636.908.415 1.036Z" fill="#5FC2EE"></path><path fill-rule="evenodd" clip-rule="evenodd" d="m116.304 107.043-27.036 9.38C83.51 118.387 77.49 115.124 76 109.85c.04-1.404.108-2.627.623-3.222.115-.131-.183-.048-.014-.103l40.346-13.439c.995-.338 2.045.36 2.045 1.37v8.951c0 1.631-1.077 3.083-2.696 3.636Z" fill="#F8F8F8"></path><path d="M114.836 135 96 127l22 1.248v4.522c0 .702-.067 1.08-.6 1.375l-2.564.855Z" fill="#4C9BBE"></path><path fill-rule="evenodd" clip-rule="evenodd" d="m76.683 119.598 39.992 13.35a1.009 1.009 0 0 0 1.325-.953v-10.363c0-1-.676-1.892-1.683-2.223l-39.992-13.357a1.009 1.009 0 0 0-1.325.953v10.363c0 1 .676 1.892 1.683 2.223v.007Z" fill="url(&quot;#svg-1548165933_5126_b&quot;)"></path><rect x="127.773" y="208" width="34.453" height="16" rx="8" fill="#FFDEE9"></rect><path d="M137.689 216.696h1.008v1.644h-1.008v1.86h-1.872v-1.86h-4.044v-1.62c.516-.792.876-1.548 1.056-2.256.18-.708.276-1.596.276-2.664h2.184c0 1.62-.732 3.324-2.184 5.112l2.76-.192.24-3.6h1.584v3.576Zm5.077-5.016c1.068 0 1.908.384 2.544 1.14.636.756.948 1.824.948 3.18s-.312 2.424-.948 3.18c-.636.756-1.476 1.14-2.544 1.14-1.056 0-1.896-.384-2.52-1.14-.636-.756-.948-1.824-.948-3.18s.312-2.424.948-3.18c.624-.756 1.464-1.14 2.52-1.14Zm0 6.96c.636 0 1.056-.18 1.26-.528.204-.348.312-1.056.312-2.112s-.108-1.764-.312-2.112c-.204-.348-.624-.528-1.26-.528-.612 0-1.032.18-1.236.528-.204.348-.312 1.056-.312 2.112s.108 1.764.312 2.112c.204.348.624.528 1.236.528Zm8.765-2.94c-.48.444-1.068.66-1.764.66s-1.284-.216-1.764-.66c-.48-.432-.72-.996-.72-1.692 0-.684.24-1.236.72-1.68.48-.432 1.068-.648 1.764-.648s1.284.216 1.764.648c.468.432.708.996.708 1.68 0 .696-.24 1.26-.708 1.692Zm.732.24 2.808-4.14h1.296l-3.132 4.212-2.868 4.188h-1.332l3.228-4.26Zm-3.468-1.932c0 .648.324.972.972.972.648 0 .972-.324.972-.972 0-.636-.324-.96-.972-.96-.648 0-.972.324-.972.96Zm8.724 5.652c-.48.444-1.068.66-1.764.66s-1.284-.216-1.764-.66c-.48-.432-.72-.996-.72-1.692 0-.684.24-1.236.72-1.68.48-.432 1.068-.648 1.764-.648s1.284.216 1.764.648c.468.432.708.996.708 1.68 0 .696-.24 1.26-.708 1.692Zm-2.736-1.692c0 .648.324.972.972.972.648 0 .972-.324.972-.972 0-.636-.324-.96-.972-.96-.648 0-.972.324-.972.96Z" fill="#D93D8D"></path><rect x="31.779" y="208" width="34.44" height="16" rx="8" fill="#223667"></rect><path d="M37.843 215.34c.6-.564 1.26-.84 1.98-.84s1.344.252 1.86.768.768 1.176.768 1.992c0 .912-.324 1.644-.972 2.208-.648.564-1.452.852-2.4.852s-1.728-.288-2.352-.852c-.636-.564-.948-1.296-.948-2.208 0-.756.204-1.524.612-2.304.408-.78 1.2-1.824 2.364-3.156h2.784c-.3.276-.696.624-1.2 1.044-.516.42-.936.804-1.284 1.152-.348.348-.756.792-1.212 1.344Zm1.248 3.288c.948 0 1.428-.444 1.428-1.344 0-.924-.456-1.368-1.428-1.368-.948 0-1.416.456-1.416 1.368 0 .9.468 1.344 1.416 1.344Zm7.668-6.948c1.068 0 1.908.384 2.544 1.14.636.756.948 1.824.948 3.18s-.312 2.424-.948 3.18c-.636.756-1.476 1.14-2.544 1.14-1.056 0-1.896-.384-2.52-1.14-.636-.756-.948-1.824-.948-3.18s.312-2.424.948-3.18c.624-.756 1.464-1.14 2.52-1.14Zm0 6.96c.636 0 1.056-.18 1.26-.528.204-.348.312-1.056.312-2.112s-.108-1.764-.312-2.112c-.204-.348-.624-.528-1.26-.528-.612 0-1.032.18-1.236.528-.204.348-.312 1.056-.312 2.112s.108 1.764.312 2.112c.204.348.624.528 1.236.528Zm8.765-2.94c-.48.444-1.068.66-1.764.66s-1.284-.216-1.764-.66c-.48-.432-.72-.996-.72-1.692 0-.684.24-1.236.72-1.68.48-.432 1.068-.648 1.764-.648s1.284.216 1.764.648c.468.432.708.996.708 1.68 0 .696-.24 1.26-.708 1.692Zm.732.24 2.808-4.14h1.296l-3.132 4.212-2.868 4.188h-1.332l3.228-4.26Zm-3.468-1.932c0 .648.324.972.972.972.648 0 .972-.324.972-.972 0-.636-.324-.96-.972-.96-.648 0-.972.324-.972.96Zm8.724 5.652c-.48.444-1.068.66-1.764.66s-1.284-.216-1.764-.66c-.48-.432-.72-.996-.72-1.692 0-.684.24-1.236.72-1.68.48-.432 1.068-.648 1.764-.648s1.284.216 1.764.648c.468.432.708.996.708 1.68 0 .696-.24 1.26-.708 1.692Zm-2.736-1.692c0 .648.324.972.972.972.648 0 .972-.324.972-.972 0-.636-.324-.96-.972-.96-.648 0-.972.324-.972.96Z" fill="#FFFFFF"></path><defs><linearGradient id="svg-1548165933_5126_a" x1="97" y1="40" x2="97" y2="0" gradientUnits="userSpaceOnUse"><stop stop-color="#D93D8D"></stop><stop offset="1" stop-color="#1F073B" stop-opacity="0"></stop></linearGradient><linearGradient id="svg-1548165933_5126_b" x1="77.697" y1="111.707" x2="119.759" y2="129.156" gradientUnits="userSpaceOnUse"><stop stop-color="#fff"></stop><stop offset="1" stop-color="#5FC2EE"></stop></linearGradient><linearGradient id="svg-1548165933_5126_a" x1="97" y1="40" x2="97" y2="0" gradientUnits="userSpaceOnUse"><stop stop-color="#D93D8D"></stop><stop offset="1" stop-color="#1F073B" stop-opacity="0"></stop></linearGradient><linearGradient id="svg-1548165933_5126_b" x1="77.697" y1="111.707" x2="119.759" y2="129.156" gradientUnits="userSpaceOnUse"><stop stop-color="#fff"></stop><stop offset="1" stop-color="#5FC2EE"></stop></linearGradient></defs></svg></defs><g><path fill-rule="evenodd" clip-rule="evenodd" d="M98 0v80h-2V0h2Z" fill="url(&quot;#svg-1548165933_5126_a&quot;)"></path><path fill-rule="evenodd" clip-rule="evenodd" d="M121 216.3c-13.807 0-25-11.193-25-25V104h2v87.3c0 12.703 10.297 23 23 23h48c13.807 0 25 11.193 25 25V272h-2v-32.7c0-12.702-10.297-23-23-23h-48Z" fill="#D93D8D"></path><path fill-rule="evenodd" clip-rule="evenodd" d="M73 216.3c13.807 0 25-11.193 25-25V104h-2v87.3c0 12.703-10.297 23-23 23H25c-13.807 0-25 11.193-25 25V272h2v-32.7c0-12.702 10.297-23 23-23h48Z" fill="#223667"></path><rect x="49" y="72" width="96" height="96" rx="24" fill="#D93D8D"></rect><path fill-rule="evenodd" clip-rule="evenodd" d="m117.953 133.919-39.931 12.996c-.984.332-2.022-.352-2.022-1.341v-8.77c0-1.598 1.064-3.02 2.665-3.562l25.274-8.662c6.414-2.167 13.304 1.985 13.599 8.303.013.264.636.908.415 1.036Z" fill="#5FC2EE"></path><path fill-rule="evenodd" clip-rule="evenodd" d="m116.304 107.043-27.036 9.38C83.51 118.387 77.49 115.124 76 109.85c.04-1.404.108-2.627.623-3.222.115-.131-.183-.048-.014-.103l40.346-13.439c.995-.338 2.045.36 2.045 1.37v8.951c0 1.631-1.077 3.083-2.696 3.636Z" fill="#F8F8F8"></path><path d="M114.836 135 96 127l22 1.248v4.522c0 .702-.067 1.08-.6 1.375l-2.564.855Z" fill="#4C9BBE"></path><path fill-rule="evenodd" clip-rule="evenodd" d="m76.683 119.598 39.992 13.35a1.009 1.009 0 0 0 1.325-.953v-10.363c0-1-.676-1.892-1.683-2.223l-39.992-13.357a1.009 1.009 0 0 0-1.325.953v10.363c0 1 .676 1.892 1.683 2.223v.007Z" fill="url(&quot;#svg-1548165933_5126_b&quot;)"></path><rect x="127.773" y="208" width="34.453" height="16" rx="8" fill="#FFDEE9"></rect><path d="M137.689 216.696h1.008v1.644h-1.008v1.86h-1.872v-1.86h-4.044v-1.62c.516-.792.876-1.548 1.056-2.256.18-.708.276-1.596.276-2.664h2.184c0 1.62-.732 3.324-2.184 5.112l2.76-.192.24-3.6h1.584v3.576Zm5.077-5.016c1.068 0 1.908.384 2.544 1.14.636.756.948 1.824.948 3.18s-.312 2.424-.948 3.18c-.636.756-1.476 1.14-2.544 1.14-1.056 0-1.896-.384-2.52-1.14-.636-.756-.948-1.824-.948-3.18s.312-2.424.948-3.18c.624-.756 1.464-1.14 2.52-1.14Zm0 6.96c.636 0 1.056-.18 1.26-.528.204-.348.312-1.056.312-2.112s-.108-1.764-.312-2.112c-.204-.348-.624-.528-1.26-.528-.612 0-1.032.18-1.236.528-.204.348-.312 1.056-.312 2.112s.108 1.764.312 2.112c.204.348.624.528 1.236.528Zm8.765-2.94c-.48.444-1.068.66-1.764.66s-1.284-.216-1.764-.66c-.48-.432-.72-.996-.72-1.692 0-.684.24-1.236.72-1.68.48-.432 1.068-.648 1.764-.648s1.284.216 1.764.648c.468.432.708.996.708 1.68 0 .696-.24 1.26-.708 1.692Zm.732.24 2.808-4.14h1.296l-3.132 4.212-2.868 4.188h-1.332l3.228-4.26Zm-3.468-1.932c0 .648.324.972.972.972.648 0 .972-.324.972-.972 0-.636-.324-.96-.972-.96-.648 0-.972.324-.972.96Zm8.724 5.652c-.48.444-1.068.66-1.764.66s-1.284-.216-1.764-.66c-.48-.432-.72-.996-.72-1.692 0-.684.24-1.236.72-1.68.48-.432 1.068-.648 1.764-.648s1.284.216 1.764.648c.468.432.708.996.708 1.68 0 .696-.24 1.26-.708 1.692Zm-2.736-1.692c0 .648.324.972.972.972.648 0 .972-.324.972-.972 0-.636-.324-.96-.972-.96-.648 0-.972.324-.972.96Z" fill="#D93D8D"></path><rect x="31.779" y="208" width="34.44" height="16" rx="8" fill="#223667"></rect><path d="M37.843 215.34c.6-.564 1.26-.84 1.98-.84s1.344.252 1.86.768.768 1.176.768 1.992c0 .912-.324 1.644-.972 2.208-.648.564-1.452.852-2.4.852s-1.728-.288-2.352-.852c-.636-.564-.948-1.296-.948-2.208 0-.756.204-1.524.612-2.304.408-.78 1.2-1.824 2.364-3.156h2.784c-.3.276-.696.624-1.2 1.044-.516.42-.936.804-1.284 1.152-.348.348-.756.792-1.212 1.344Zm1.248 3.288c.948 0 1.428-.444 1.428-1.344 0-.924-.456-1.368-1.428-1.368-.948 0-1.416.456-1.416 1.368 0 .9.468 1.344 1.416 1.344Zm7.668-6.948c1.068 0 1.908.384 2.544 1.14.636.756.948 1.824.948 3.18s-.312 2.424-.948 3.18c-.636.756-1.476 1.14-2.544 1.14-1.056 0-1.896-.384-2.52-1.14-.636-.756-.948-1.824-.948-3.18s.312-2.424.948-3.18c.624-.756 1.464-1.14 2.52-1.14Zm0 6.96c.636 0 1.056-.18 1.26-.528.204-.348.312-1.056.312-2.112s-.108-1.764-.312-2.112c-.204-.348-.624-.528-1.26-.528-.612 0-1.032.18-1.236.528-.204.348-.312 1.056-.312 2.112s.108 1.764.312 2.112c.204.348.624.528 1.236.528Zm8.765-2.94c-.48.444-1.068.66-1.764.66s-1.284-.216-1.764-.66c-.48-.432-.72-.996-.72-1.692 0-.684.24-1.236.72-1.68.48-.432 1.068-.648 1.764-.648s1.284.216 1.764.648c.468.432.708.996.708 1.68 0 .696-.24 1.26-.708 1.692Zm.732.24 2.808-4.14h1.296l-3.132 4.212-2.868 4.188h-1.332l3.228-4.26Zm-3.468-1.932c0 .648.324.972.972.972.648 0 .972-.324.972-.972 0-.636-.324-.96-.972-.96-.648 0-.972.324-.972.96Zm8.724 5.652c-.48.444-1.068.66-1.764.66s-1.284-.216-1.764-.66c-.48-.432-.72-.996-.72-1.692 0-.684.24-1.236.72-1.68.48-.432 1.068-.648 1.764-.648s1.284.216 1.764.648c.468.432.708.996.708 1.68 0 .696-.24 1.26-.708 1.692Zm-2.736-1.692c0 .648.324.972.972.972.648 0 .972-.324.972-.972 0-.636-.324-.96-.972-.96-.648 0-.972.324-.972.96Z" fill="#FFFFFF"></path><defs><lineargradient id="svg-1548165933_5126_a" x1="97" y1="40" x2="97" y2="0" gradientunits="userSpaceOnUse"><stop stop-color="#D93D8D"></stop><stop offset="1" stop-color="#1F073B" stop-opacity="0"></stop></lineargradient><lineargradient id="svg-1548165933_5126_b" x1="77.697" y1="111.707" x2="119.759" y2="129.156" gradientunits="userSpaceOnUse"><stop stop-color="#fff"></stop><stop offset="1" stop-color="#5FC2EE"></stop></lineargradient><lineargradient id="svg-1548165933_5126_a" x1="97" y1="40" x2="97" y2="0" gradientunits="userSpaceOnUse"><stop stop-color="#D93D8D"></stop><stop offset="1" stop-color="#1F073B" stop-opacity="0"></stop></lineargradient><lineargradient id="svg-1548165933_5126_b" x1="77.697" y1="111.707" x2="119.759" y2="129.156" gradientunits="userSpaceOnUse"><stop stop-color="#fff"></stop><stop offset="1" stop-color="#5FC2EE"></stop></lineargradient></defs></g></svg>