<svg xmlns:xlink="http://www.w3.org/1999/xlink" xmlns="http://www.w3.org/2000/svg" style="width:100%;height:100%" viewBox="0 0 320 67" preserveAspectRatio="none" width="320" height="67"><defs><svg width="320" height="67" fill="none" id="svg1479244681_8983"><path d="M0 39h320" stroke="url(&quot;#svg1479244681_8983_a&quot;)" stroke-width="1.142px" stroke-dasharray="2.28 2.28" fill="none"></path><path d="M238.904 2.056c.536-.087 1.116-.096 1.618.141.743.3 1.269 1.01 1.449 1.776.061.544.043 1.122-.215 1.62-.468 1.028-1.715 1.62-2.809 1.336-1.122-.251-1.957-1.33-1.947-2.476-.021-1.115.834-2.133 1.904-2.397Zm29.998-.005c.544-.084 1.13-.086 1.635.163.836.367 1.403 1.237 1.463 2.138-.001.694-.234 1.418-.75 1.904-.438.46-1.07.715-1.701.744-.976.014-1.96-.568-2.343-1.475-.247-.485-.217-1.044-.185-1.569.185-.925.963-1.69 1.881-1.905ZM266 38.004a451.98 451.98 0 0 1 4 0c-.017 4.665-.003 9.331-.006 13.996l-3.987-.001c-.003-4.665.012-9.33-.007-13.995Z" fill="#FFFFFF"></path><path d="M269.201 2.493c-.872.206-1.611.944-1.787 1.836-.03.506-.059 1.044.176 1.512.363.875 1.298 1.435 2.225 1.422.599-.028 1.199-.273 1.615-.718.49-.468.711-1.166.712-1.835-.057-.868-.595-1.706-1.389-2.06-.479-.24-1.036-.24-1.552-.157Zm-30.547.003c-1.019.254-1.832 1.236-1.812 2.311-.01 1.105.785 2.145 1.853 2.386 1.041.275 2.227-.297 2.672-1.288.246-.48.263-1.036.204-1.56-.171-.74-.671-1.424-1.378-1.713-.478-.228-1.03-.22-1.539-.136ZM226.966.372c.761-.338 1.604-.389 2.425-.368 16.926.002 33.852 0 50.778-.001 1.847-.031 3.646 1.124 4.393 2.835.314.675.448 1.423.435 2.167-.008 1.665.017 3.33-.01 4.994-.546-.21-1.135-.266-1.715-.27-19.152.004-38.303.002-57.455.003-.607.016-1.227.042-1.8.268-.025-1.73-.011-3.46-.017-5.188-.011-1.906 1.216-3.737 2.966-4.44Z" fill="#DFC5D2"></path><path d="M269.137 24.093c.274-.108.573-.102.863-.08-.017 4.648.002 9.297-.009 13.945l-.001.042a383.732 383.732 0 0 0-3.67 0v-.04c-.002-3.215-.003-6.428.001-9.642-2.439.773-4.874 1.558-7.314 2.327-.008-1.05.005-2.1-.007-3.149 3.374-1.146 6.76-2.263 10.137-3.402Zm-29.216 1.667c1.493-1.11 3.361-1.684 5.227-1.752 1.851-.063 3.767.229 5.386 1.146a6.57 6.57 0 0 1 2.847 3.196c.551 1.332.725 2.804.558 4.228-.358 2.28-2.163 4.122-4.273 5.033.302.089.596.2.877.34a2.646 2.646 0 0 1-.56.048c-2.489-.017-4.978.016-7.465-.016-.009-.527-.022-1.055.012-1.582 1.794-.041 3.687.173 5.365-.595 1.38-.568 2.406-1.854 2.6-3.307.167-1.384.024-2.897-.816-4.068-.662-.928-1.782-1.441-2.903-1.604-1.513-.206-3.171-.059-4.44.837-1.25.857-1.912 2.37-1.88 3.84-1.152.03-2.304.007-3.456.01.022-.616.071-1.237.235-1.835.396-1.558 1.374-2.958 2.686-3.92Z" fill="#FFFFFF"></path><path d="M224.103 10.257c.571-.214 1.189-.239 1.793-.254 19.08-.001 38.159 0 57.239-.003.577.004 1.164.057 1.708.256 1.649.573 2.985 2.042 3.157 3.744-.335-1.167-1.06-2.252-2.144-2.895a5.06 5.06 0 0 0-2.628-.735c-19.141.012-38.282.012-57.423.012-1.442-.025-2.895.574-3.814 1.654-.446.459-.679 1.05-.991 1.59.309-1.551 1.571-2.845 3.103-3.369Z" fill="#4483EF"></path><path d="m266.535 38.007.067-.006v.041c.017 4.714.004 9.427.007 14.14 1.2.002 2.4.001 3.6.001.003-4.713-.01-9.427.005-14.14l.001-.043.059.005c.529.063 1.063.024 1.596.03 4.511-.003 9.023-.008 13.534 0 .521 7.428 1.011 14.859 1.527 22.287.05.85.16 1.721-.079 2.554l-.022.027c-.221.244-.348.549-.507.833-.846 1.36-2.419 2.276-4.05 2.26-17.996-.01-35.991.008-53.987.002-.564 0-1.14.028-1.69-.117-1.244-.335-2.371-1.136-2.997-2.258-.131-.245-.253-.497-.429-.715l-.022-.03c-.301-1.114-.056-2.267-.019-3.395.495-7.145.966-14.293 1.468-21.438 5.998-.014 11.996-.008 17.993-.003.006.34.009.679.004 1.018 1.901.036 3.89-.188 5.69.553 1.216.467 2.214 1.468 2.599 2.703a6.64 6.64 0 0 1-.123 4.225c-.464 1.258-1.576 2.231-2.874 2.607-1.576.46-3.332.42-4.85-.222-1.182-.497-2.147-1.5-2.511-2.721a5.775 5.775 0 0 1-.251-1.666c-1.15.007-2.299.005-3.448 0 .022 1.432.374 2.886 1.186 4.087.865 1.314 2.207 2.274 3.678 2.837 1.864.716 3.924.876 5.895.579 1.917-.3 3.794-1.145 5.096-2.59 1.196-1.307 1.815-3.055 1.896-4.799.11-1.664-.279-3.412-1.352-4.733-.604-.783-1.434-1.348-2.281-1.844.413-.05.829-.04 1.244-.038 4.25-.004 8.499 0 12.749-.002.532-.01 1.067.032 1.598-.03Z" fill="#5FC2EE"></path><path d="M222.111 11.703c.916-1.104 2.365-1.716 3.802-1.69 19.089 0 38.178 0 57.265-.013a4.952 4.952 0 0 1 2.621.752c1.081.657 1.804 1.766 2.139 2.958.092.42.067.858.018 1.283-1.036 7.66-2.112 15.315-3.135 22.977-4.314-.007-8.629.004-12.943 0-.72-.007-1.44.026-2.158-.013l-.058-.004c.011-4.72-.008-9.442.009-14.163-.285-.021-.578-.027-.847.083-3.313 1.157-6.634 2.292-9.945 3.455.012 1.066-.001 2.132.007 3.198 2.394-.78 4.782-1.578 7.176-2.363-.004 3.264-.003 6.527-.001 9.79l-.067.006c-5.014.037-10.029 0-15.043.02-.248-.006-.509.07-.745-.033a5.445 5.445 0 0 0-.88-.344c2.119-.925 3.932-2.795 4.292-5.11.168-1.446-.008-2.94-.561-4.293a6.652 6.652 0 0 0-2.859-3.245c-1.627-.931-3.551-1.228-5.41-1.163-1.874.069-3.751.651-5.25 1.778-1.318.976-2.3 2.398-2.698 3.98-.165.606-.214 1.236-.236 1.863 1.157-.004 2.315.02 3.471-.011-.031-1.492.633-3.028 1.888-3.899 1.275-.91 2.941-1.058 4.46-.85 1.126.166 2.251.687 2.916 1.629.844 1.189.988 2.726.82 4.13-.196 1.475-1.226 2.782-2.611 3.358-1.686.78-3.587.562-5.389.605h-.045c.018.536-.003 1.072.012 1.608a5062.13 5062.13 0 0 0-17.943 0c-1.02-7.504-2.056-15.008-3.082-22.512-.118-.707-.158-1.441.021-2.142.311-.551.544-1.156.989-1.625Z" fill="#4898BC"></path><path d="M223 63.006c.173.252.294.542.424.826.62 1.294 1.736 2.22 2.966 2.605.545.168 1.114.135 1.672.135 17.809.007 35.618-.014 53.428-.002 1.614.018 3.171-1.039 4.008-2.608.157-.328.283-.68.502-.962-.393 1.748-1.617 3.198-3.115 3.737-.834.335-1.729.25-2.597.26H228.25c-.692.006-1.4.014-2.066-.235-1.527-.52-2.781-1.984-3.184-3.756Z" fill="#3664D0"></path><rect x="76" y="31" width="41" height="16" rx="8" fill="#C1C1C1"></rect><path d="m88.906 37.07-5.12 5.332a.321.321 0 0 1-.226.098.309.309 0 0 1-.226-.098l-2.24-2.333a.34.34 0 0 1 0-.472.314.314 0 0 1 .453 0l2.013 2.098 4.893-5.097a.314.314 0 0 1 .453 0 .34.34 0 0 1 0 .471Zm11.239-1.77v1.595h-3.2v1.573h3.002v1.595h-3.003V43h-1.738v-7.7h4.939Zm6.167 4.906c0 .22 0 .407-.011.572h-3.74c.099.748.451 1.056 1.155 1.056.528 0 .781-.165 1.045-.693l1.43.506c-.385.979-1.232 1.463-2.519 1.463-.847 0-1.54-.264-2.057-.781-.528-.517-.792-1.188-.792-2.035 0-.869.253-1.562.77-2.101.517-.539 1.188-.803 2.024-.803.803 0 1.463.253 1.958.77.495.517.737 1.199.737 2.046Zm-2.662-1.595c-.671 0-1.001.319-1.089 1.078h2.101c-.011-.781-.319-1.078-1.012-1.078Zm5.917 2.959 1.199-4.07h1.804l-2.046 5.5h-1.925l-2.046-5.5h1.804l1.21 4.07Z" fill="#FFFFFF"></path><rect x="150" y="31" width="45" height="16" rx="8" fill="#C1C1C1"></rect><path d="m162.906 37.07-5.12 5.332a.318.318 0 0 1-.226.098.311.311 0 0 1-.226-.098l-2.24-2.333a.341.341 0 0 1 0-.472.313.313 0 0 1 .453 0l2.013 2.098 4.893-5.097a.313.313 0 0 1 .453 0 .34.34 0 0 1 0 .471Zm11.076 2.685 1.243-4.455h3.014V43h-1.705v-6.578l-.385 1.804L174.708 43h-2.2l-1.441-4.774-.385-1.771V43h-1.705v-7.7h3.014l1.243 4.444.374 1.683.374-1.672Zm9.746-.979V37.5h1.672V43h-1.672v-1.232c-.319.891-.924 1.342-1.815 1.342-1.54 0-2.442-1.122-2.442-2.849 0-1.76.847-2.871 2.332-2.871.957 0 1.595.462 1.925 1.386Zm-1.287 2.816c.891 0 1.342-.44 1.342-1.331 0-.924-.429-1.353-1.342-1.353-.869 0-1.298.451-1.298 1.353 0 .891.429 1.331 1.298 1.331Zm7.576-4.18c.297 0 .528.033.671.088v1.551a2.1 2.1 0 0 0-.726-.11c-.979 0-1.463.627-1.463 1.892V43h-1.672v-5.5h1.672v1.562c.165-1.1.671-1.65 1.518-1.65Zm62.03 27.475h-1.891l-.585-1.712h-3.095l-.585 1.712H244L246.78 57h2.51l2.757 7.887Zm-4.457-4.991-.585 1.712h2.037l-.585-1.712-.428-1.409-.439 1.409Zm8.985-.756c1.519 0 2.386 1.139 2.386 2.942 0 1.769-.923 2.918-2.498 2.918-.912 0-1.531-.462-1.857-1.375v1.262h-1.711V57h1.711v3.56c.337-.946.99-1.42 1.969-1.42Zm-.653 4.305c.889 0 1.328-.45 1.328-1.363 0-.924-.439-1.386-1.328-1.386-.934 0-1.373.44-1.373 1.386 0 .912.462 1.363 1.373 1.363Zm7.391-4.282c.304 0 .541.034.687.09v1.59a2.144 2.144 0 0 0-.743-.113c-1.001 0-1.497.642-1.497 1.938v2.22h-1.71v-5.635h1.71v1.6c.169-1.126.687-1.69 1.553-1.69Z" fill="#FFFFFF"></path><rect y="31" width="43" height="16" rx="8" fill="#C1C1C1"></rect><path d="m12.906 37.07-5.12 5.332a.32.32 0 0 1-.226.098.308.308 0 0 1-.226-.098l-2.24-2.333a.34.34 0 0 1 0-.472.314.314 0 0 1 .453 0l2.013 2.098 4.893-5.097a.314.314 0 0 1 .453 0 .34.34 0 0 1 0 .471Zm5.712 3.125 1.727-.253c-.055 1.144.264 1.584 1.11 1.584.43 0 .738-.088.903-.275.165-.187.242-.55.242-1.089V35.3h1.738v4.719c0 1.045-.264 1.815-.792 2.321-.54.517-1.232.77-2.09.77-.792 0-1.353-.143-1.903-.55-.55-.396-.88-1.21-.935-2.365Zm11.14-1.419V37.5h1.671V43h-1.672v-1.232c-.319.891-.924 1.342-1.815 1.342-1.54 0-2.442-1.122-2.442-2.849 0-1.76.847-2.871 2.332-2.871.957 0 1.595.462 1.925 1.386Zm-1.288 2.816c.891 0 1.342-.44 1.342-1.331 0-.924-.429-1.353-1.342-1.353-.869 0-1.298.451-1.298 1.353 0 .891.43 1.331 1.298 1.331Zm7.797-4.202c1.287 0 1.936.803 1.936 2.398V43H36.53v-3.113c0-.649-.308-.979-.924-.979-.715 0-1.078.473-1.078 1.419V43h-1.672v-5.5h1.672v1.243c.264-.902.847-1.353 1.738-1.353Z" fill="#FFFFFF"></path><defs><linearGradient id="svg1479244681_8983_a" x1="0" y1="39" x2="320" y2="39" gradientUnits="userSpaceOnUse"><stop stop-color="#CCCED7" stop-opacity="0"></stop><stop offset=".48" stop-color="#CCCED7"></stop><stop offset="1" stop-color="#CCCED7" stop-opacity="0"></stop></linearGradient><linearGradient id="svg1479244681_8983_a" x1="0" y1="39" x2="320" y2="39" gradientUnits="userSpaceOnUse"><stop stop-color="#CCCED7" stop-opacity="0"></stop><stop offset=".48" stop-color="#CCCED7"></stop><stop offset="1" stop-color="#CCCED7" stop-opacity="0"></stop></linearGradient></defs></svg></defs><g><path d="M0 39h320" stroke="url(&quot;#svg1479244681_8983_a&quot;)" stroke-width="1.142px" stroke-dasharray="2.28 2.28" fill="none"></path><path d="M238.904 2.056c.536-.087 1.116-.096 1.618.141.743.3 1.269 1.01 1.449 1.776.061.544.043 1.122-.215 1.62-.468 1.028-1.715 1.62-2.809 1.336-1.122-.251-1.957-1.33-1.947-2.476-.021-1.115.834-2.133 1.904-2.397Zm29.998-.005c.544-.084 1.13-.086 1.635.163.836.367 1.403 1.237 1.463 2.138-.001.694-.234 1.418-.75 1.904-.438.46-1.07.715-1.701.744-.976.014-1.96-.568-2.343-1.475-.247-.485-.217-1.044-.185-1.569.185-.925.963-1.69 1.881-1.905ZM266 38.004a451.98 451.98 0 0 1 4 0c-.017 4.665-.003 9.331-.006 13.996l-3.987-.001c-.003-4.665.012-9.33-.007-13.995Z" fill="#FFFFFF"></path><path d="M269.201 2.493c-.872.206-1.611.944-1.787 1.836-.03.506-.059 1.044.176 1.512.363.875 1.298 1.435 2.225 1.422.599-.028 1.199-.273 1.615-.718.49-.468.711-1.166.712-1.835-.057-.868-.595-1.706-1.389-2.06-.479-.24-1.036-.24-1.552-.157Zm-30.547.003c-1.019.254-1.832 1.236-1.812 2.311-.01 1.105.785 2.145 1.853 2.386 1.041.275 2.227-.297 2.672-1.288.246-.48.263-1.036.204-1.56-.171-.74-.671-1.424-1.378-1.713-.478-.228-1.03-.22-1.539-.136ZM226.966.372c.761-.338 1.604-.389 2.425-.368 16.926.002 33.852 0 50.778-.001 1.847-.031 3.646 1.124 4.393 2.835.314.675.448 1.423.435 2.167-.008 1.665.017 3.33-.01 4.994-.546-.21-1.135-.266-1.715-.27-19.152.004-38.303.002-57.455.003-.607.016-1.227.042-1.8.268-.025-1.73-.011-3.46-.017-5.188-.011-1.906 1.216-3.737 2.966-4.44Z" fill="#DFC5D2"></path><path d="M269.137 24.093c.274-.108.573-.102.863-.08-.017 4.648.002 9.297-.009 13.945l-.001.042a383.732 383.732 0 0 0-3.67 0v-.04c-.002-3.215-.003-6.428.001-9.642-2.439.773-4.874 1.558-7.314 2.327-.008-1.05.005-2.1-.007-3.149 3.374-1.146 6.76-2.263 10.137-3.402Zm-29.216 1.667c1.493-1.11 3.361-1.684 5.227-1.752 1.851-.063 3.767.229 5.386 1.146a6.57 6.57 0 0 1 2.847 3.196c.551 1.332.725 2.804.558 4.228-.358 2.28-2.163 4.122-4.273 5.033.302.089.596.2.877.34a2.646 2.646 0 0 1-.56.048c-2.489-.017-4.978.016-7.465-.016-.009-.527-.022-1.055.012-1.582 1.794-.041 3.687.173 5.365-.595 1.38-.568 2.406-1.854 2.6-3.307.167-1.384.024-2.897-.816-4.068-.662-.928-1.782-1.441-2.903-1.604-1.513-.206-3.171-.059-4.44.837-1.25.857-1.912 2.37-1.88 3.84-1.152.03-2.304.007-3.456.01.022-.616.071-1.237.235-1.835.396-1.558 1.374-2.958 2.686-3.92Z" fill="#FFFFFF"></path><path d="M224.103 10.257c.571-.214 1.189-.239 1.793-.254 19.08-.001 38.159 0 57.239-.003.577.004 1.164.057 1.708.256 1.649.573 2.985 2.042 3.157 3.744-.335-1.167-1.06-2.252-2.144-2.895a5.06 5.06 0 0 0-2.628-.735c-19.141.012-38.282.012-57.423.012-1.442-.025-2.895.574-3.814 1.654-.446.459-.679 1.05-.991 1.59.309-1.551 1.571-2.845 3.103-3.369Z" fill="#4483EF"></path><path d="m266.535 38.007.067-.006v.041c.017 4.714.004 9.427.007 14.14 1.2.002 2.4.001 3.6.001.003-4.713-.01-9.427.005-14.14l.001-.043.059.005c.529.063 1.063.024 1.596.03 4.511-.003 9.023-.008 13.534 0 .521 7.428 1.011 14.859 1.527 22.287.05.85.16 1.721-.079 2.554l-.022.027c-.221.244-.348.549-.507.833-.846 1.36-2.419 2.276-4.05 2.26-17.996-.01-35.991.008-53.987.002-.564 0-1.14.028-1.69-.117-1.244-.335-2.371-1.136-2.997-2.258-.131-.245-.253-.497-.429-.715l-.022-.03c-.301-1.114-.056-2.267-.019-3.395.495-7.145.966-14.293 1.468-21.438 5.998-.014 11.996-.008 17.993-.003.006.34.009.679.004 1.018 1.901.036 3.89-.188 5.69.553 1.216.467 2.214 1.468 2.599 2.703a6.64 6.64 0 0 1-.123 4.225c-.464 1.258-1.576 2.231-2.874 2.607-1.576.46-3.332.42-4.85-.222-1.182-.497-2.147-1.5-2.511-2.721a5.775 5.775 0 0 1-.251-1.666c-1.15.007-2.299.005-3.448 0 .022 1.432.374 2.886 1.186 4.087.865 1.314 2.207 2.274 3.678 2.837 1.864.716 3.924.876 5.895.579 1.917-.3 3.794-1.145 5.096-2.59 1.196-1.307 1.815-3.055 1.896-4.799.11-1.664-.279-3.412-1.352-4.733-.604-.783-1.434-1.348-2.281-1.844.413-.05.829-.04 1.244-.038 4.25-.004 8.499 0 12.749-.002.532-.01 1.067.032 1.598-.03Z" fill="#5FC2EE"></path><path d="M222.111 11.703c.916-1.104 2.365-1.716 3.802-1.69 19.089 0 38.178 0 57.265-.013a4.952 4.952 0 0 1 2.621.752c1.081.657 1.804 1.766 2.139 2.958.092.42.067.858.018 1.283-1.036 7.66-2.112 15.315-3.135 22.977-4.314-.007-8.629.004-12.943 0-.72-.007-1.44.026-2.158-.013l-.058-.004c.011-4.72-.008-9.442.009-14.163-.285-.021-.578-.027-.847.083-3.313 1.157-6.634 2.292-9.945 3.455.012 1.066-.001 2.132.007 3.198 2.394-.78 4.782-1.578 7.176-2.363-.004 3.264-.003 6.527-.001 9.79l-.067.006c-5.014.037-10.029 0-15.043.02-.248-.006-.509.07-.745-.033a5.445 5.445 0 0 0-.88-.344c2.119-.925 3.932-2.795 4.292-5.11.168-1.446-.008-2.94-.561-4.293a6.652 6.652 0 0 0-2.859-3.245c-1.627-.931-3.551-1.228-5.41-1.163-1.874.069-3.751.651-5.25 1.778-1.318.976-2.3 2.398-2.698 3.98-.165.606-.214 1.236-.236 1.863 1.157-.004 2.315.02 3.471-.011-.031-1.492.633-3.028 1.888-3.899 1.275-.91 2.941-1.058 4.46-.85 1.126.166 2.251.687 2.916 1.629.844 1.189.988 2.726.82 4.13-.196 1.475-1.226 2.782-2.611 3.358-1.686.78-3.587.562-5.389.605h-.045c.018.536-.003 1.072.012 1.608a5062.13 5062.13 0 0 0-17.943 0c-1.02-7.504-2.056-15.008-3.082-22.512-.118-.707-.158-1.441.021-2.142.311-.551.544-1.156.989-1.625Z" fill="#4898BC"></path><path d="M223 63.006c.173.252.294.542.424.826.62 1.294 1.736 2.22 2.966 2.605.545.168 1.114.135 1.672.135 17.809.007 35.618-.014 53.428-.002 1.614.018 3.171-1.039 4.008-2.608.157-.328.283-.68.502-.962-.393 1.748-1.617 3.198-3.115 3.737-.834.335-1.729.25-2.597.26H228.25c-.692.006-1.4.014-2.066-.235-1.527-.52-2.781-1.984-3.184-3.756Z" fill="#3664D0"></path><rect x="76" y="31" width="41" height="16" rx="8" fill="#C1C1C1"></rect><path d="m88.906 37.07-5.12 5.332a.321.321 0 0 1-.226.098.309.309 0 0 1-.226-.098l-2.24-2.333a.34.34 0 0 1 0-.472.314.314 0 0 1 .453 0l2.013 2.098 4.893-5.097a.314.314 0 0 1 .453 0 .34.34 0 0 1 0 .471Zm11.239-1.77v1.595h-3.2v1.573h3.002v1.595h-3.003V43h-1.738v-7.7h4.939Zm6.167 4.906c0 .22 0 .407-.011.572h-3.74c.099.748.451 1.056 1.155 1.056.528 0 .781-.165 1.045-.693l1.43.506c-.385.979-1.232 1.463-2.519 1.463-.847 0-1.54-.264-2.057-.781-.528-.517-.792-1.188-.792-2.035 0-.869.253-1.562.77-2.101.517-.539 1.188-.803 2.024-.803.803 0 1.463.253 1.958.77.495.517.737 1.199.737 2.046Zm-2.662-1.595c-.671 0-1.001.319-1.089 1.078h2.101c-.011-.781-.319-1.078-1.012-1.078Zm5.917 2.959 1.199-4.07h1.804l-2.046 5.5h-1.925l-2.046-5.5h1.804l1.21 4.07Z" fill="#FFFFFF"></path><rect x="150" y="31" width="45" height="16" rx="8" fill="#C1C1C1"></rect><path d="m162.906 37.07-5.12 5.332a.318.318 0 0 1-.226.098.311.311 0 0 1-.226-.098l-2.24-2.333a.341.341 0 0 1 0-.472.313.313 0 0 1 .453 0l2.013 2.098 4.893-5.097a.313.313 0 0 1 .453 0 .34.34 0 0 1 0 .471Zm11.076 2.685 1.243-4.455h3.014V43h-1.705v-6.578l-.385 1.804L174.708 43h-2.2l-1.441-4.774-.385-1.771V43h-1.705v-7.7h3.014l1.243 4.444.374 1.683.374-1.672Zm9.746-.979V37.5h1.672V43h-1.672v-1.232c-.319.891-.924 1.342-1.815 1.342-1.54 0-2.442-1.122-2.442-2.849 0-1.76.847-2.871 2.332-2.871.957 0 1.595.462 1.925 1.386Zm-1.287 2.816c.891 0 1.342-.44 1.342-1.331 0-.924-.429-1.353-1.342-1.353-.869 0-1.298.451-1.298 1.353 0 .891.429 1.331 1.298 1.331Zm7.576-4.18c.297 0 .528.033.671.088v1.551a2.1 2.1 0 0 0-.726-.11c-.979 0-1.463.627-1.463 1.892V43h-1.672v-5.5h1.672v1.562c.165-1.1.671-1.65 1.518-1.65Zm62.03 27.475h-1.891l-.585-1.712h-3.095l-.585 1.712H244L246.78 57h2.51l2.757 7.887Zm-4.457-4.991-.585 1.712h2.037l-.585-1.712-.428-1.409-.439 1.409Zm8.985-.756c1.519 0 2.386 1.139 2.386 2.942 0 1.769-.923 2.918-2.498 2.918-.912 0-1.531-.462-1.857-1.375v1.262h-1.711V57h1.711v3.56c.337-.946.99-1.42 1.969-1.42Zm-.653 4.305c.889 0 1.328-.45 1.328-1.363 0-.924-.439-1.386-1.328-1.386-.934 0-1.373.44-1.373 1.386 0 .912.462 1.363 1.373 1.363Zm7.391-4.282c.304 0 .541.034.687.09v1.59a2.144 2.144 0 0 0-.743-.113c-1.001 0-1.497.642-1.497 1.938v2.22h-1.71v-5.635h1.71v1.6c.169-1.126.687-1.69 1.553-1.69Z" fill="#FFFFFF"></path><rect y="31" width="43" height="16" rx="8" fill="#C1C1C1"></rect><path d="m12.906 37.07-5.12 5.332a.32.32 0 0 1-.226.098.308.308 0 0 1-.226-.098l-2.24-2.333a.34.34 0 0 1 0-.472.314.314 0 0 1 .453 0l2.013 2.098 4.893-5.097a.314.314 0 0 1 .453 0 .34.34 0 0 1 0 .471Zm5.712 3.125 1.727-.253c-.055 1.144.264 1.584 1.11 1.584.43 0 .738-.088.903-.275.165-.187.242-.55.242-1.089V35.3h1.738v4.719c0 1.045-.264 1.815-.792 2.321-.54.517-1.232.77-2.09.77-.792 0-1.353-.143-1.903-.55-.55-.396-.88-1.21-.935-2.365Zm11.14-1.419V37.5h1.671V43h-1.672v-1.232c-.319.891-.924 1.342-1.815 1.342-1.54 0-2.442-1.122-2.442-2.849 0-1.76.847-2.871 2.332-2.871.957 0 1.595.462 1.925 1.386Zm-1.288 2.816c.891 0 1.342-.44 1.342-1.331 0-.924-.429-1.353-1.342-1.353-.869 0-1.298.451-1.298 1.353 0 .891.43 1.331 1.298 1.331Zm7.797-4.202c1.287 0 1.936.803 1.936 2.398V43H36.53v-3.113c0-.649-.308-.979-.924-.979-.715 0-1.078.473-1.078 1.419V43h-1.672v-5.5h1.672v1.243c.264-.902.847-1.353 1.738-1.353Z" fill="#FFFFFF"></path><defs><lineargradient id="svg1479244681_8983_a" x1="0" y1="39" x2="320" y2="39" gradientunits="userSpaceOnUse"><stop stop-color="#CCCED7" stop-opacity="0"></stop><stop offset=".48" stop-color="#CCCED7"></stop><stop offset="1" stop-color="#CCCED7" stop-opacity="0"></stop></lineargradient><lineargradient id="svg1479244681_8983_a" x1="0" y1="39" x2="320" y2="39" gradientunits="userSpaceOnUse"><stop stop-color="#CCCED7" stop-opacity="0"></stop><stop offset=".48" stop-color="#CCCED7"></stop><stop offset="1" stop-color="#CCCED7" stop-opacity="0"></stop></lineargradient></defs></g></svg>