<svg xmlns="http://www.w3.org/2000/svg" xmlns:xlink="http://www.w3.org/1999/xlink" viewBox="0 0 446 446"><path d="M 223 0 C 99.841 0 0 99.841 0 223 C 0 346.159 99.841 446 223 446 C 346.159 446 446 346.159 446 223 C 446 99.841 346.159 0 223 0 Z" fill="rgba(255,197,58,0.27)" opacity="0.05"></path><path d="M 223.5 54 C 316.56 54 392 129.44 392 222.5 C 392 315.56 316.56 391 223.5 391 C 130.44 391 55 315.56 55 222.5 C 55 129.44 130.44 54 223.5 54 Z" fill="rgba(255,197,58,0.27)" opacity="0.1"></path><path d="M 105 222.5 C 105 287.946 158.054 341 223.5 341 C 288.946 341 342 287.946 342 222.5 C 342 157.054 288.946 104 223.5 104 C 158.054 104 105 157.054 105 222.5 Z" fill="rgba(255,197,58,0.27)" opacity="0.2"></path><g transform="translate(141 139)" id="ss9011071109_4"><path d="M 0 0 L 163 0 L 163 169 L 0 169 Z" fill="transparent"></path><path d="M 159.635 78.901 L 162.196 70.156 C 164.502 62.271 161.738 53.779 155.233 48.762 L 148.01 43.184 C 144.998 40.859 142.713 37.721 141.425 34.141 L 138.331 25.541 C 135.555 17.825 128.336 12.589 120.127 12.333 L 110.96 12.047 C 107.165 11.929 103.481 10.735 100.339 8.603 L 92.746 3.453 C 85.955 -1.151 77.045 -1.151 70.254 3.453 L 62.661 8.603 C 59.519 10.735 55.835 11.929 52.04 12.047 L 42.873 12.333 C 34.67 12.585 27.453 17.821 24.669 25.541 L 21.575 34.141 C 20.287 37.721 18.002 40.859 14.99 43.184 L 7.767 48.762 C 1.263 53.78 -1.5 62.271 0.804 70.156 L 3.365 78.901 C 4.434 82.557 4.434 86.443 3.365 90.099 L 0.804 98.844 C -1.502 106.729 1.262 115.221 7.767 120.238 L 14.99 125.816 C 18.002 128.141 20.287 131.279 21.575 134.859 L 24.669 143.459 C 27.445 151.175 34.664 156.411 42.873 156.667 L 52.04 156.953 C 55.835 157.071 59.519 158.265 62.661 160.397 L 70.254 165.547 C 77.045 170.151 85.955 170.151 92.746 165.547 L 100.339 160.397 C 103.481 158.265 107.165 157.071 110.96 156.953 L 120.127 156.667 C 128.33 156.415 135.547 151.179 138.331 143.459 L 141.425 134.859 C 142.713 131.279 144.998 128.141 148.01 125.816 L 155.233 120.238 C 161.737 115.22 164.5 106.729 162.196 98.844 L 159.635 90.099 C 158.566 86.443 158.566 82.557 159.635 78.901 Z" fill="rgb(255,197,58)"></path><path d="M 81.5 147 C 116.018 147 144 119.018 144 84.5 C 144 49.982 116.018 22 81.5 22 C 46.982 22 19 49.982 19 84.5 C 19 119.018 46.982 147 81.5 147 Z" fill="rgb(255,170,58)"></path><path d="M 30.589 96.259 C 30.589 61.552 58.642 33.418 93.249 33.418 C 106.882 33.399 120.144 37.855 131 46.101 C 119.529 31.43 101.695 22 81.661 22 C 47.054 22 19 50.135 19 84.842 C 19 105.332 28.78 123.53 43.913 135 C 35.569 124.325 30.592 110.875 30.592 96.256 Z" fill="rgb(255,155,58)"></path><path d="M 82 149 C 46.161 149 17 120.067 17 84.5 C 17 48.933 46.161 20 82 20 C 117.839 20 147 48.933 147 84.5 C 147 120.067 117.843 149 82 149 Z M 82 24.294 C 48.546 24.294 21.331 51.3 21.331 84.497 C 21.331 117.693 48.546 144.699 82 144.699 C 115.454 144.699 142.669 117.693 142.669 84.497 C 142.669 51.3 115.454 24.294 82 24.294 Z" fill="rgb(255,204,83)"></path><path d="M 38.386 18.689 C 39.196 17.721 39.203 16.315 38.414 15.334 C 36.588 13.072 34.301 15.324 30.846 11.853 C 28.351 9.344 29.838 6.461 27.219 4.552 C 26.193 3.819 24.815 3.816 23.786 4.545 C 21.213 6.396 22.898 9.018 20.152 11.853 C 17.561 14.529 14.576 12.892 12.595 15.334 C 11.81 16.303 11.801 17.686 12.574 18.665 C 14.456 21.052 16.99 19.158 20.152 22.156 C 22.418 24.306 21.118 27.47 23.765 29.44 C 24.808 30.218 26.275 30.17 27.318 29.392 C 29.845 27.508 28.559 24.761 30.846 22.156 C 33.359 19.293 36.391 21.069 38.386 18.689 Z M 46.726 31.779 C 47.086 31.328 47.092 30.688 46.739 30.231 C 45.928 29.187 44.911 30.228 43.377 28.625 C 42.269 27.466 42.928 26.137 41.765 25.255 C 41.313 24.916 40.692 24.915 40.238 25.252 C 39.092 26.107 39.842 27.314 38.623 28.625 C 37.47 29.863 36.146 29.105 35.264 30.231 C 34.916 30.683 34.912 31.312 35.253 31.769 C 36.088 32.871 37.217 31.996 38.623 33.382 C 39.63 34.372 39.052 35.836 40.228 36.742 C 40.691 37.1 41.343 37.08 41.806 36.718 C 42.928 35.849 42.357 34.582 43.374 33.378 C 44.489 32.056 45.837 32.878 46.726 31.779 Z" fill="rgb(250,250,250)"></path><g transform="translate(50 48)" id="ss9011071109_11"><path d="M 30.171 30.009 C 30.171 24.863 26.621 21.047 20.381 19.948 C 25.877 18.503 28.74 15.034 28.74 10.581 C 28.74 7.517 27.48 4.973 24.904 2.949 C 22.328 0.983 19.122 0 15.171 0 C 6.298 0 0.802 4.568 0.859 13.183 L 7.271 13.877 C 7.214 7.69 9.847 5.435 15.343 5.435 C 20.267 5.435 22.728 7.459 22.728 11.507 C 22.728 15.496 19.98 17.52 14.542 17.52 L 11.049 17.462 L 11.049 22.84 L 14.484 22.782 C 20.725 22.782 24.045 25.037 24.045 29.373 C 24.045 33.941 21.24 36.196 15.687 36.196 C 9.79 36.196 6.756 33.421 6.469 27.87 L 0 28.506 C 0.401 36.775 6.298 41.632 15.4 41.632 C 19.751 41.632 23.301 40.533 26.049 38.336 C 28.797 36.196 30.171 33.421 30.171 30.009 Z" fill="rgb(255,255,255)"></path><path d="M 58.592 5.493 C 55.615 1.85 51.722 0 46.855 0 C 42.046 0 38.153 1.85 35.234 5.493 C 32.256 9.194 30.768 14.34 30.768 20.874 C 30.768 27.408 32.256 32.496 35.234 36.139 C 38.153 39.781 42.046 41.632 46.855 41.632 C 51.722 41.632 55.615 39.781 58.592 36.139 C 61.511 32.496 63 27.408 63 20.874 C 63 14.34 61.511 9.194 58.592 5.493 Z M 56.817 20.874 C 56.817 31.802 53.954 36.254 46.855 36.254 C 39.814 36.254 37.008 31.802 37.008 20.874 C 37.008 9.772 39.814 5.377 46.855 5.377 C 53.954 5.377 56.817 9.772 56.817 20.874 Z" fill="rgb(255,255,255)"></path><path d="M 21.584 48.503 C 21.621 50.216 22.505 51.072 24.164 51.072 C 25.823 51.072 26.781 50.142 26.744 48.503 C 26.707 46.865 25.823 46.046 24.164 46.046 C 22.505 46.046 21.547 46.903 21.584 48.503 Z M 22.247 72.628 L 26.007 72.628 L 26.007 54.758 L 22.247 54.758 Z" fill="rgb(255,255,255)"></path><path d="M 15.245 46.568 L 15.245 58.555 C 13.955 55.763 11.78 54.386 8.721 54.386 C 6.251 54.386 4.261 55.242 2.786 56.917 C 1.312 58.63 0.574 60.901 0.574 63.693 C 0.574 66.485 1.312 68.756 2.823 70.431 C 4.297 72.144 6.288 73 8.831 73 C 11.817 73 13.955 71.623 15.245 68.868 L 15.245 72.628 L 19.005 72.628 L 19.005 46.568 Z M 15.393 63.693 C 15.393 67.676 13.66 69.538 9.863 69.538 C 6.14 69.538 4.371 67.676 4.371 63.693 C 4.371 59.709 6.14 57.848 9.863 57.848 C 13.66 57.848 15.393 59.709 15.393 63.693 Z M 42.543 58.518 L 42.543 54.758 L 46.303 54.758 L 46.303 72.628 L 42.543 72.628 L 42.543 68.942 C 41.253 71.66 39.152 73 36.166 73 C 33.623 73 31.632 72.144 30.158 70.431 C 28.646 68.756 27.909 66.485 27.909 63.693 C 27.909 60.901 28.646 58.63 30.121 56.917 C 31.559 55.242 33.549 54.386 36.019 54.386 C 39.078 54.386 41.253 55.763 42.543 58.518 Z M 37.198 69.538 C 40.995 69.538 42.727 67.676 42.727 63.693 C 42.727 59.709 40.995 57.848 37.198 57.848 C 33.475 57.848 31.706 59.709 31.706 63.693 C 31.706 67.676 33.475 69.538 37.198 69.538 Z" fill="rgb(255,255,255)"></path><path d="M 47.96 67.602 C 48.66 70.915 51.499 73 55.627 73 C 60.198 73 62.999 70.841 62.999 67.304 C 62.999 64.512 61.267 62.874 58.429 62.39 L 54.448 61.682 C 52.789 61.422 52.236 60.789 52.236 59.56 C 52.236 58.108 53.305 57.364 55.406 57.364 C 57.876 57.364 58.834 58.034 59.129 60.677 L 62.594 59.784 C 61.967 56.173 59.498 54.386 55.259 54.386 C 51.093 54.386 48.476 56.47 48.476 59.784 C 48.476 62.688 50.135 64.437 53.452 64.996 L 56.659 65.591 C 58.723 65.927 59.276 66.485 59.276 67.825 C 59.276 69.24 58.134 69.947 55.885 69.947 C 53.194 69.947 51.978 69.054 51.572 66.522 Z" fill="rgb(255,255,255)"></path></g></g></svg>