<svg xmlns:xlink="http://www.w3.org/1999/xlink" xmlns="http://www.w3.org/2000/svg" style="width:100%;height:100%" viewBox="0 0 482 208" preserveAspectRatio="none" width="482" height="208"><defs><svg width="482" height="208" fill="none" id="svg624090478_833"><path d="M97.58 80V0h-2v80c0 12.703-10.298 23-23 23h-72v2h72c12.702 0 23 10.297 23 23v80h2v-80c0-10.323-6.258-19.185-15.187-23H264.58c12.703 0 23 10.297 23 23v80h2v-80c0-10.323-6.257-19.185-15.186-23H456.58c12.703 0 23 10.297 23 23v80h2v-80c0-11.369-7.589-20.965-17.977-24 10.388-3.035 17.977-12.631 17.977-24V0h-2v80c0 12.703-10.297 23-23 23H274.393c8.929-3.815 15.186-12.677 15.186-23V0h-2v80c0 12.703-10.297 23-23 23H82.393c8.929-3.815 15.186-12.677 15.186-23Z" fill="url(&quot;#svg624090478_833_a&quot;)"></path><defs><linearGradient id="svg624090478_833_a" x1="400.393" y1="208" x2="400.393" y2="0" gradientUnits="userSpaceOnUse"><stop stop-color="#D93D8D" stop-opacity="0"></stop><stop offset=".515" stop-color="#D93D8D"></stop><stop offset="1" stop-color="#D93D8D" stop-opacity="0"></stop></linearGradient><linearGradient id="svg624090478_833_a" x1="400.393" y1="208" x2="400.393" y2="0" gradientUnits="userSpaceOnUse"><stop stop-color="#D93D8D" stop-opacity="0"></stop><stop offset=".515" stop-color="#D93D8D"></stop><stop offset="1" stop-color="#D93D8D" stop-opacity="0"></stop></linearGradient></defs></svg></defs><use href="#svg624090478_833"></use></svg>