<svg width="28" height="30" viewBox="0 0 28 30" fill="none" xmlns="http://www.w3.org/2000/svg">
<g clip-path="url(#clip0_48_4080)">
<path opacity="0.988" fill-rule="evenodd" clip-rule="evenodd" d="M1.04492 0.694969C7.40495 0.679939 13.765 0.694969 20.1249 0.739969C22.7199 3.03497 25.315 5.32997 27.9099 7.62497C27.9666 7.84124 27.8917 8.0063 27.6849 8.11997C25.135 10.37 22.5849 12.62 20.0349 14.87C22.66 17.1949 25.2849 19.52 27.9099 21.845C27.97 21.935 27.97 22.025 27.9099 22.115C25.315 24.41 22.7199 26.705 20.1249 29C13.7647 29.0749 7.40468 29.06 1.04492 28.955C3.36611 25.4677 5.67614 21.9727 7.97492 18.47C10.6749 18.44 13.3749 18.4099 16.0749 18.38C17.3078 17.1769 18.5678 16.0069 19.8549 14.87C18.5678 13.733 17.3078 12.563 16.0749 11.36C13.3749 11.33 10.6749 11.2999 7.97492 11.27C5.64257 7.75394 3.33254 4.22891 1.04492 0.694969Z" fill="#040504"/>
</g>
<defs>
<clipPath id="clip0_48_4080">
<rect width="27" height="28.44" fill="white" transform="translate(1 0.649902)"/>
</clipPath>
</defs>
</svg>