<svg xmlns:xlink="http://www.w3.org/1999/xlink" xmlns="http://www.w3.org/2000/svg" style="width:100%;height:100%" viewBox="0 0 59 58" preserveAspectRatio="none" width="59" height="58"><defs><svg width="59" height="58" viewBox="0 0 59 58" fill="none" id="svg-339247471_1612">
<path d="M37.3578 3C42.5578 3 45.1578 3 47.9889 3.86667C51.0511 4.96444 53.4778 7.39111 54.5756 10.4533C55.5 13.2844 55.5 15.9422 55.5 21.1422V36.8578C55.5 42.0578 55.5 44.6578 54.6333 47.4889C53.5356 50.5511 51.1089 52.9778 48.0467 54.0756C45.2156 55 42.5578 55 37.3578 55H21.6422C16.4422 55 13.8422 55 11.0111 54.1333C7.94889 52.9778 5.52222 50.6089 4.42444 47.4889C3.5 44.7156 3.5 42.1156 3.5 36.8578V21.1422C3.5 15.9422 3.5 13.3422 4.36667 10.5111C5.52222 7.44889 7.94889 5.02222 11.0111 3.92444C13.7844 3 16.4422 3 21.6422 3H37.3578Z" fill="url(&quot;#svg-339247471_1612_paint0_linear_4003_4370&quot;)"></path>
<path d="M46.8583 40.9411C46.8 40.9411 46.6833 41 46.625 41H13.375C13.3167 41 13.2 41 13.1417 40.9411L23.525 30.4556L25.7417 32.753C28.1333 35.2271 31.925 35.2271 34.3167 32.753L36.5333 30.4556L46.8583 40.9411ZM47.5 39.8219V19.0276C47.5 18.9098 47.5 18.792 47.4417 18.7331C47.3833 18.8509 37.1167 29.572 37.1167 29.572L47.5 40.0575C47.5 39.9397 47.5 39.8808 47.5 39.8219ZM12.5 39.8808V19.1454C12.5 19.0276 12.5 18.9098 12.5583 18.8509C12.6167 18.9687 22.8833 29.6898 22.8833 29.6898L12.5583 40.1164C12.5 40.0575 12.5 39.9397 12.5 39.8808ZM46.9167 18.0262L33.675 31.6927C31.6333 33.7544 28.3667 33.7544 26.3833 31.6927L13.1417 18.0262C13.0833 17.9673 46.9167 18.0262 46.9167 18.0262Z" fill="#FFFFFF"></path>
<defs>
<linearGradient id="svg-339247471_1612_paint0_linear_4003_4370" x1="29.4988" y1="3.01618" x2="29.4988" y2="54.9988" gradientUnits="userSpaceOnUse">
<stop stop-color="#1E51EE"></stop>
<stop offset="1" stop-color="#19E6FF"></stop>
</linearGradient>
<linearGradient id="svg-339247471_1612_paint0_linear_4003_4370" x1="29.4988" y1="3.01618" x2="29.4988" y2="54.9988" gradientUnits="userSpaceOnUse">
<stop stop-color="#1E51EE"></stop>
<stop offset="1" stop-color="#19E6FF"></stop>
</linearGradient></defs>
</svg></defs><use href="#svg-339247471_1612"></use></svg>