<svg xmlns:xlink="http://www.w3.org/1999/xlink" xmlns="http://www.w3.org/2000/svg" style="width:100%;height:100%" viewBox="0 0 207 152" preserveAspectRatio="none" width="207" height="152"><defs><svg width="207" height="152" fill="none" id="svg220701138_4534"><path d="M103 121V0" stroke="url(&quot;#svg220701138_4534_a&quot;)" stroke-dasharray="2 2" fill="none"></path><g filter="url(#svg220701138_4534_b)" fill="none"><rect x="63" y="9" width="80" height="80" rx="20.247" fill="#FFFFFF"></rect><path fill-rule="evenodd" clip-rule="evenodd" d="M120.959 58.507 86.733 69.243c-.844.274-1.733-.291-1.733-1.108V60.89c0-1.32.912-2.495 2.284-2.942l21.664-7.156c5.498-1.79 11.403 1.64 11.656 6.86.011.217.545.749.355.855Z" fill="#5FC2EE"></path><path fill-rule="evenodd" clip-rule="evenodd" d="m119.681 35.89-23.265 7.817C91.463 45.343 86.282 42.624 85 38.23c.035-1.17.093-2.189.536-2.684.1-.11-.157-.04-.011-.087L120.24 24.26c.857-.283 1.76.3 1.76 1.14v7.46c0 1.36-.927 2.57-2.319 3.03Z" fill="#D93D8D"></path><path d="M118.267 60 102 53l19 1.092v3.957c0 .614-.058.945-.519 1.203l-2.214.748Z" fill="#4C9BBE"></path><path fill-rule="evenodd" clip-rule="evenodd" d="m85.448 47.583 34.412 11.373a.867.867 0 0 0 1.14-.812v-8.828c0-.852-.582-1.612-1.448-1.894L85.14 36.044a.867.867 0 0 0-1.14.812v8.828c0 .852.582 1.612 1.448 1.894v.005Z" fill="url(&quot;#svg220701138_4534_c&quot;)"></path></g><g filter="url(#svg220701138_4534_d)" fill="none"><rect y="122" width="207" height="28" rx="8" fill="#FFFFFF" shape-rendering="crispEdges"></rect><rect x="14" y="130" width="146" height="12" rx="6" fill="#5FC2EE" opacity=".2"></rect><rect x="16" y="132" width="114" height="8" rx="4" fill="#5FC2EE"></rect><path d="M170.451 135.62c.6.108 1.104.324 1.524.672.408.348.612.816.612 1.428 0 .756-.312 1.344-.936 1.764-.636.42-1.476.636-2.52.636-2.124 0-3.48-.9-3.48-2.448 0-1.116.732-1.8 2.196-2.04-1.308-.228-1.896-.912-1.896-1.824 0-1.452 1.248-2.328 3.168-2.328 1.932 0 3.192.852 3.192 2.304 0 .948-.648 1.596-1.86 1.836Zm-1.308-2.664c-.912 0-1.368.336-1.368 1.008 0 .672.444 1.008 1.344 1.008.924 0 1.38-.336 1.38-1.008 0-.672-.456-1.008-1.356-1.008Zm-.024 5.628c.996 0 1.488-.36 1.488-1.068 0-.744-.504-1.116-1.5-1.116s-1.5.372-1.5 1.104c0 .72.504 1.08 1.512 1.08Zm8.114-.924-1.56.696h4.332V140h-6.216v-1.488l2.364-1.704c1.2-.864 1.932-1.608 1.932-2.508 0-.768-.396-1.152-1.2-1.152-1.188 0-1.5.756-1.104 2.352l-2.028-.216c-.216-1.188-.024-2.112.564-2.796.588-.672 1.44-1.008 2.556-1.008.948 0 1.716.252 2.304.744.576.492.864 1.152.864 1.956 0 .828-.228 1.512-.672 2.028-.444.528-1.164 1.008-2.136 1.452Zm8.256-2.16c-.48.444-1.068.66-1.764.66s-1.284-.216-1.764-.66c-.48-.432-.72-.996-.72-1.692 0-.684.24-1.236.72-1.68.48-.432 1.068-.648 1.764-.648s1.284.216 1.764.648c.468.432.708.996.708 1.68 0 .696-.24 1.26-.708 1.692Zm.732.24 2.808-4.14h1.296l-3.132 4.212-2.868 4.188h-1.332l3.228-4.26Zm-3.468-1.932c0 .648.324.972.972.972.648 0 .972-.324.972-.972 0-.636-.324-.96-.972-.96-.648 0-.972.324-.972.96Zm8.724 5.652c-.48.444-1.068.66-1.764.66s-1.284-.216-1.764-.66c-.48-.432-.72-.996-.72-1.692 0-.684.24-1.236.72-1.68.48-.432 1.068-.648 1.764-.648s1.284.216 1.764.648c.468.432.708.996.708 1.68 0 .696-.24 1.26-.708 1.692Zm-2.736-1.692c0 .648.324.972.972.972.648 0 .972-.324.972-.972 0-.636-.324-.96-.972-.96-.648 0-.972.324-.972.96Z" fill="#D93D8D"></path></g><defs><linearGradient id="svg220701138_4534_a" x1="103" y1="0" x2="103" y2="63.792" gradientUnits="userSpaceOnUse"><stop stop-color="#D93D8D" stop-opacity=".29"></stop><stop offset="1" stop-color="#D93D8D"></stop></linearGradient><linearGradient id="svg220701138_4534_c" x1="86.32" y1="40.861" x2="122.406" y2="55.983" gradientUnits="userSpaceOnUse"><stop stop-color="#D93D8D"></stop><stop offset="1" stop-color="#5FC2EE"></stop></linearGradient><filter id="svg220701138_4534_b" x="63" y="9" width="80" height="80" filterUnits="userSpaceOnUse" color-interpolation-filters="sRGB"><feFlood flood-opacity="0" result="BackgroundImageFix"></feFlood><feBlend in="SourceGraphic" in2="BackgroundImageFix" result="shape"></feBlend><feColorMatrix in="SourceAlpha" values="0 0 0 0 0 0 0 0 0 0 0 0 0 0 0 0 0 0 127 0" result="hardAlpha"></feColorMatrix><feOffset dy="-3.375"></feOffset><feComposite in2="hardAlpha" operator="arithmetic" k2="-1" k3="1"></feComposite><feColorMatrix values="0 0 0 0 0.899691 0 0 0 0 0.899691 0 0 0 0 0.899691 0 0 0 0.6 0"></feColorMatrix><feBlend in2="shape" result="effect1_innerShadow_904_4892"></feBlend></filter><filter id="svg220701138_4534_d" x="0" y="122" width="207" height="30" filterUnits="userSpaceOnUse" color-interpolation-filters="sRGB"><feFlood flood-opacity="0" result="BackgroundImageFix"></feFlood><feColorMatrix in="SourceAlpha" values="0 0 0 0 0 0 0 0 0 0 0 0 0 0 0 0 0 0 127 0" result="hardAlpha"></feColorMatrix><feOffset dy="2"></feOffset><feComposite in2="hardAlpha" operator="out"></feComposite><feColorMatrix values="0 0 0 0 0.941176 0 0 0 0 0.941176 0 0 0 0 0.941176 0 0 0 1 0"></feColorMatrix><feBlend in2="BackgroundImageFix" result="effect1_dropShadow_904_4892"></feBlend><feBlend in="SourceGraphic" in2="effect1_dropShadow_904_4892" result="shape"></feBlend></filter><linearGradient id="svg220701138_4534_a" x1="103" y1="0" x2="103" y2="63.792" gradientUnits="userSpaceOnUse"><stop stop-color="#D93D8D" stop-opacity=".29"></stop><stop offset="1" stop-color="#D93D8D"></stop></linearGradient><linearGradient id="svg220701138_4534_c" x1="86.32" y1="40.861" x2="122.406" y2="55.983" gradientUnits="userSpaceOnUse"><stop stop-color="#D93D8D"></stop><stop offset="1" stop-color="#5FC2EE"></stop></linearGradient></defs></svg></defs><g><path d="M103 121V0" stroke="url(&quot;#svg220701138_4534_a&quot;)" stroke-dasharray="2 2" fill="none"></path><g filter="url(#svg220701138_4534_b)" fill="none"><rect x="63" y="9" width="80" height="80" rx="20.247" fill="#FFFFFF"></rect><path fill-rule="evenodd" clip-rule="evenodd" d="M120.959 58.507 86.733 69.243c-.844.274-1.733-.291-1.733-1.108V60.89c0-1.32.912-2.495 2.284-2.942l21.664-7.156c5.498-1.79 11.403 1.64 11.656 6.86.011.217.545.749.355.855Z" fill="#5FC2EE"></path><path fill-rule="evenodd" clip-rule="evenodd" d="m119.681 35.89-23.265 7.817C91.463 45.343 86.282 42.624 85 38.23c.035-1.17.093-2.189.536-2.684.1-.11-.157-.04-.011-.087L120.24 24.26c.857-.283 1.76.3 1.76 1.14v7.46c0 1.36-.927 2.57-2.319 3.03Z" fill="#D93D8D"></path><path d="M118.267 60 102 53l19 1.092v3.957c0 .614-.058.945-.519 1.203l-2.214.748Z" fill="#4C9BBE"></path><path fill-rule="evenodd" clip-rule="evenodd" d="m85.448 47.583 34.412 11.373a.867.867 0 0 0 1.14-.812v-8.828c0-.852-.582-1.612-1.448-1.894L85.14 36.044a.867.867 0 0 0-1.14.812v8.828c0 .852.582 1.612 1.448 1.894v.005Z" fill="url(&quot;#svg220701138_4534_c&quot;)"></path></g><g filter="url(#svg220701138_4534_d)" fill="none"><rect y="122" width="207" height="28" rx="8" fill="#FFFFFF" shape-rendering="crispEdges"></rect><rect x="14" y="130" width="146" height="12" rx="6" fill="#5FC2EE" opacity=".2"></rect><rect x="16" y="132" width="114" height="8" rx="4" fill="#5FC2EE"></rect><path d="M170.451 135.62c.6.108 1.104.324 1.524.672.408.348.612.816.612 1.428 0 .756-.312 1.344-.936 1.764-.636.42-1.476.636-2.52.636-2.124 0-3.48-.9-3.48-2.448 0-1.116.732-1.8 2.196-2.04-1.308-.228-1.896-.912-1.896-1.824 0-1.452 1.248-2.328 3.168-2.328 1.932 0 3.192.852 3.192 2.304 0 .948-.648 1.596-1.86 1.836Zm-1.308-2.664c-.912 0-1.368.336-1.368 1.008 0 .672.444 1.008 1.344 1.008.924 0 1.38-.336 1.38-1.008 0-.672-.456-1.008-1.356-1.008Zm-.024 5.628c.996 0 1.488-.36 1.488-1.068 0-.744-.504-1.116-1.5-1.116s-1.5.372-1.5 1.104c0 .72.504 1.08 1.512 1.08Zm8.114-.924-1.56.696h4.332V140h-6.216v-1.488l2.364-1.704c1.2-.864 1.932-1.608 1.932-2.508 0-.768-.396-1.152-1.2-1.152-1.188 0-1.5.756-1.104 2.352l-2.028-.216c-.216-1.188-.024-2.112.564-2.796.588-.672 1.44-1.008 2.556-1.008.948 0 1.716.252 2.304.744.576.492.864 1.152.864 1.956 0 .828-.228 1.512-.672 2.028-.444.528-1.164 1.008-2.136 1.452Zm8.256-2.16c-.48.444-1.068.66-1.764.66s-1.284-.216-1.764-.66c-.48-.432-.72-.996-.72-1.692 0-.684.24-1.236.72-1.68.48-.432 1.068-.648 1.764-.648s1.284.216 1.764.648c.468.432.708.996.708 1.68 0 .696-.24 1.26-.708 1.692Zm.732.24 2.808-4.14h1.296l-3.132 4.212-2.868 4.188h-1.332l3.228-4.26Zm-3.468-1.932c0 .648.324.972.972.972.648 0 .972-.324.972-.972 0-.636-.324-.96-.972-.96-.648 0-.972.324-.972.96Zm8.724 5.652c-.48.444-1.068.66-1.764.66s-1.284-.216-1.764-.66c-.48-.432-.72-.996-.72-1.692 0-.684.24-1.236.72-1.68.48-.432 1.068-.648 1.764-.648s1.284.216 1.764.648c.468.432.708.996.708 1.68 0 .696-.24 1.26-.708 1.692Zm-2.736-1.692c0 .648.324.972.972.972.648 0 .972-.324.972-.972 0-.636-.324-.96-.972-.96-.648 0-.972.324-.972.96Z" fill="#D93D8D"></path></g><defs><lineargradient id="svg220701138_4534_a" x1="103" y1="0" x2="103" y2="63.792" gradientunits="userSpaceOnUse"><stop stop-color="#D93D8D" stop-opacity=".29"></stop><stop offset="1" stop-color="#D93D8D"></stop></lineargradient><lineargradient id="svg220701138_4534_c" x1="86.32" y1="40.861" x2="122.406" y2="55.983" gradientunits="userSpaceOnUse"><stop stop-color="#D93D8D"></stop><stop offset="1" stop-color="#5FC2EE"></stop></lineargradient><filter id="svg220701138_4534_b" x="63" y="9" width="80" height="80" filterunits="userSpaceOnUse" color-interpolation-filters="sRGB"><feflood flood-opacity="0" result="BackgroundImageFix"></feflood><feblend in="SourceGraphic" in2="BackgroundImageFix" result="shape"></feblend><fecolormatrix in="SourceAlpha" values="0 0 0 0 0 0 0 0 0 0 0 0 0 0 0 0 0 0 127 0" result="hardAlpha"></fecolormatrix><feoffset dy="-3.375"></feoffset><fecomposite in2="hardAlpha" operator="arithmetic" k2="-1" k3="1"></fecomposite><fecolormatrix values="0 0 0 0 0.899691 0 0 0 0 0.899691 0 0 0 0 0.899691 0 0 0 0.6 0"></fecolormatrix><feblend in2="shape" result="effect1_innerShadow_904_4892"></feblend></filter><filter id="svg220701138_4534_d" x="0" y="122" width="207" height="30" filterunits="userSpaceOnUse" color-interpolation-filters="sRGB"><feflood flood-opacity="0" result="BackgroundImageFix"></feflood><fecolormatrix in="SourceAlpha" values="0 0 0 0 0 0 0 0 0 0 0 0 0 0 0 0 0 0 127 0" result="hardAlpha"></fecolormatrix><feoffset dy="2"></feoffset><fecomposite in2="hardAlpha" operator="out"></fecomposite><fecolormatrix values="0 0 0 0 0.941176 0 0 0 0 0.941176 0 0 0 0 0.941176 0 0 0 1 0"></fecolormatrix><feblend in2="BackgroundImageFix" result="effect1_dropShadow_904_4892"></feblend><feblend in="SourceGraphic" in2="effect1_dropShadow_904_4892" result="shape"></feblend></filter><lineargradient id="svg220701138_4534_a" x1="103" y1="0" x2="103" y2="63.792" gradientunits="userSpaceOnUse"><stop stop-color="#D93D8D" stop-opacity=".29"></stop><stop offset="1" stop-color="#D93D8D"></stop></lineargradient><lineargradient id="svg220701138_4534_c" x1="86.32" y1="40.861" x2="122.406" y2="55.983" gradientunits="userSpaceOnUse"><stop stop-color="#D93D8D"></stop><stop offset="1" stop-color="#5FC2EE"></stop></lineargradient></defs></g></svg>