<svg xmlns:xlink="http://www.w3.org/1999/xlink" xmlns="http://www.w3.org/2000/svg" style="width:100%;height:100%" viewBox="0 0 279 267" preserveAspectRatio="none" width="279" height="267"><defs><svg width="279" height="267" fill="none" id="svg1145721068_17950"><path d="M140 201v-54.349a8 8 0 0 1 8-8h64c13.255 0 24-10.745 24-24V82" stroke="url(&quot;#svg1145721068_17950_a&quot;)" stroke-width="2px" fill="none"></path><path d="M140 193v-46.373a8 8 0 0 0-8-8H68c-13.255 0-24-10.745-24-24V82" stroke="url(&quot;#svg1145721068_17950_b&quot;)" stroke-width="2px" fill="none"></path><rect y="16" width="88" height="66" rx="7" fill="#223667"></rect><rect x="192" y="16" width="87" height="66" rx="7" fill="#D93D8D"></rect><rect x="208" y="69" width="55" height="23" rx="11.5" fill="#FFDEE9"></rect><path d="M226.859 83.444V75h1.963v10.845h-2.647l-3.969-7.003-.744-1.564v8.567H219.5V75h2.721l3.821 6.77.817 1.674ZM237.491 75v1.89h-4.594v2.525h4.356v1.875h-4.356v4.555h-1.963V75h6.557Zm1.038 7.204v-1.657h4.698v1.657h-4.698Zm12.971-.264c0 .28 0 .528-.015.729h-5.174c.119 1.255.654 1.797 1.799 1.797.848 0 1.234-.263 1.591-1.069l1.635.62c-.49 1.317-1.59 1.983-3.27 1.983-1.115 0-2.022-.356-2.691-1.069-.684-.713-1.026-1.658-1.026-2.835 0-1.193.342-2.154 1.026-2.897.669-.729 1.546-1.1 2.631-1.1 1.056 0 1.903.34 2.542 1.038.64.697.952 1.642.952 2.804Zm-3.479-2.354c-1.056 0-1.576.511-1.71 1.735h3.316c-.015-1.255-.521-1.735-1.606-1.735Z" fill="#D93D8D"></path><rect x="16" y="69" width="55" height="23" rx="11.5" fill="#5FC2EE"></rect><path d="M32.625 82.938v-6.813h1.634v8.75h-2.203l-3.304-5.65-.619-1.262v6.912H26.5v-8.75h2.265l3.18 5.463.68 1.35Zm8.849-6.813v1.525H37.65v2.037h3.626V81.2H37.65v3.675h-1.633v-8.75h5.457ZM45.506 85c-1.992 0-3.304-.888-3.551-2.775l1.67-.45c.136 1.4.718 1.825 1.918 1.825 1.102 0 1.572-.35 1.572-1.137 0-.363-.087-.6-.26-.738-.186-.137-.52-.25-1.027-.35l-1.473-.287c-1.46-.288-2.19-1.125-2.19-2.513 0-.775.285-1.4.866-1.875.582-.463 1.337-.7 2.277-.7 1.968 0 3.205.925 3.366 2.725l-1.56.438c-.061-1.363-.667-1.738-1.818-1.738-.953 0-1.436.362-1.436 1.075 0 .737.334.925 1.312 1.112l1.361.263c1.51.287 2.265 1.075 2.265 2.362 0 .838-.297 1.5-.891 2-.594.513-1.399.763-2.401.763Zm4.198-3.062V80.6h3.91v1.338h-3.91Zm10.796-.213c0 .225 0 .425-.012.588H56.18c.1 1.012.545 1.45 1.498 1.45.705 0 1.027-.213 1.324-.863l1.36.5c-.407 1.063-1.323 1.6-2.721 1.6-.928 0-1.683-.287-2.24-.862-.57-.576-.854-1.338-.854-2.288 0-.962.285-1.737.854-2.337.557-.588 1.287-.888 2.19-.888.879 0 1.584.275 2.116.838.532.562.792 1.325.792 2.262Zm-2.896-1.9c-.878 0-1.311.412-1.423 1.4h2.76c-.013-1.012-.433-1.4-1.337-1.4Z" fill="#FFFFFF"></path><rect x="185" y="217" width="74" height="24" rx="12" fill="#D93D8D"></rect><path d="m217.229 231.76-2.315 1.033h6.429v2.44h-9.224v-2.208l3.508-2.529c1.78-1.282 2.867-2.386 2.867-3.722 0-1.14-.588-1.71-1.781-1.71-1.763 0-2.226 1.122-1.638 3.491l-3.01-.321c-.32-1.763-.036-3.134.837-4.149.873-.997 2.137-1.496 3.793-1.496 1.407 0 2.547.374 3.419 1.104.855.73 1.282 1.71 1.282 2.903 0 1.229-.338 2.244-.997 3.009-.659.784-1.727 1.496-3.17 2.155Zm10.828-9.171c1.584 0 2.831.57 3.775 1.692.944 1.122 1.407 2.707 1.407 4.719 0 2.012-.463 3.597-1.407 4.719-.944 1.122-2.191 1.692-3.775 1.692-1.568 0-2.814-.57-3.74-1.692-.944-1.122-1.407-2.707-1.407-4.719 0-2.012.463-3.597 1.407-4.719.926-1.122 2.172-1.692 3.74-1.692Zm0 10.329c.943 0 1.567-.267 1.869-.784.303-.516.463-1.567.463-3.134s-.16-2.618-.463-3.134c-.302-.517-.926-.784-1.869-.784-.909 0-1.532.267-1.835.784-.302.516-.463 1.567-.463 3.134s.161 2.618.463 3.134c.303.517.926.784 1.835.784Zm13.006-4.363c-.712.659-1.585.979-2.617.979-1.033 0-1.906-.32-2.618-.979-.713-.641-1.069-1.478-1.069-2.511 0-1.015.356-1.834 1.069-2.493.712-.641 1.585-.962 2.618-.962 1.032 0 1.905.321 2.617.962.695.641 1.051 1.478 1.051 2.493 0 1.033-.356 1.87-1.051 2.511Zm1.087.356 4.167-6.144h1.923l-4.648 6.251-4.256 6.215h-1.977l4.791-6.322Zm-5.147-2.867c0 .961.481 1.442 1.443 1.442.961 0 1.442-.481 1.442-1.442 0-.944-.481-1.425-1.442-1.425-.962 0-1.443.481-1.443 1.425Zm12.946 8.387c-.712.659-1.584.98-2.617.98s-1.906-.321-2.618-.98c-.712-.641-1.069-1.478-1.069-2.511 0-1.015.357-1.834 1.069-2.493.712-.641 1.585-.961 2.618-.961s1.905.32 2.617.961c.695.641 1.051 1.478 1.051 2.493 0 1.033-.356 1.87-1.051 2.511Zm-4.06-2.511c0 .962.481 1.443 1.443 1.443.961 0 1.442-.481 1.442-1.443 0-.943-.481-1.424-1.442-1.424-.962 0-1.443.481-1.443 1.424Z" fill="#FFFFFF"></path><rect x="20" y="217" width="90" height="24" rx="12" fill="#5FC2EE"></rect><path d="M35.034 228.736c.879.159 1.617.475 2.233.985.598.51.897 1.196.897 2.093 0 1.107-.458 1.969-1.372 2.584-.932.616-2.163.932-3.693.932-3.112 0-5.099-1.318-5.099-3.587 0-1.635 1.073-2.637 3.218-2.989-1.917-.334-2.778-1.337-2.778-2.673 0-2.128 1.828-3.411 4.642-3.411 2.83 0 4.677 1.248 4.677 3.376 0 1.389-.95 2.339-2.725 2.69Zm-1.917-3.903c-1.336 0-2.005.492-2.005 1.477 0 .984.651 1.477 1.97 1.477 1.354 0 2.022-.493 2.022-1.477 0-.985-.668-1.477-1.987-1.477Zm-.035 8.247c1.46 0 2.18-.528 2.18-1.565 0-1.091-.738-1.636-2.198-1.636s-2.198.545-2.198 1.618c0 1.055.739 1.583 2.216 1.583ZM44.5 222.67c1.566 0 2.797.562 3.729 1.67.932 1.108 1.389 2.673 1.389 4.66s-.457 3.552-1.39 4.66c-.931 1.108-2.162 1.67-3.727 1.67-1.547 0-2.778-.562-3.693-1.67-.932-1.108-1.389-2.673-1.389-4.66s.457-3.552 1.39-4.66c.914-1.108 2.145-1.67 3.692-1.67Zm0 10.199c.933 0 1.548-.264 1.847-.774.3-.51.457-1.548.457-3.095 0-1.547-.158-2.585-.457-3.095-.299-.51-.914-.774-1.846-.774-.897 0-1.512.264-1.811.774-.3.51-.457 1.548-.457 3.095 0 1.547.158 2.585.457 3.095.299.51.914.774 1.81.774Zm12.844-4.309c-.703.651-1.565.968-2.585.968s-1.881-.317-2.584-.968c-.704-.633-1.055-1.459-1.055-2.479 0-1.002.351-1.811 1.055-2.462.703-.633 1.565-.949 2.584-.949 1.02 0 1.882.316 2.585.949.686.633 1.038 1.46 1.038 2.462 0 1.02-.352 1.846-1.038 2.479Zm1.073.352 4.115-6.066h1.899l-4.59 6.172-4.202 6.137h-1.952l4.73-6.243Zm-5.082-2.831c0 .95.475 1.424 1.424 1.424.95 0 1.425-.474 1.425-1.424 0-.932-.475-1.407-1.425-1.407-.95 0-1.424.475-1.424 1.407Zm12.784 8.282c-.704.651-1.565.967-2.585.967s-1.881-.316-2.585-.967c-.703-.633-1.055-1.459-1.055-2.479 0-1.002.352-1.811 1.055-2.462.704-.633 1.565-.95 2.585-.95s1.881.317 2.585.95c.686.633 1.037 1.46 1.037 2.462 0 1.02-.351 1.846-1.037 2.479Zm-4.01-2.479c0 .949.475 1.424 1.425 1.424.95 0 1.424-.475 1.424-1.424 0-.932-.474-1.407-1.424-1.407s-1.424.475-1.424 1.407ZM257 58h-44v-8h43.999c-1.234 2.667-1.234 5.333 0 8H257Z" fill="#FFFFFF"></path><path d="M257.896 57H238v2h19.896c.61 0 1.104-.448 1.104-1s-.494-1-1.104-1Z" fill="#FFFFFF"></path><path d="M257.917 3h-42.5C212.977 3 211 4.945 211 7.344v47.312c0 2.399 1.977 4.343 4.417 4.343h25.047v-2.13H216.5c-1.841 0-3.333-1.468-3.333-3.28 0-1.81 1.492-3.278 3.333-3.278h41.396c.609 0 1.104-.486 1.104-1.086V4.065c0-.589-.485-1.065-1.084-1.065h.001Z" fill="#2F0B59"></path><path d="M257.896 57H238v2h19.896c.61 0 1.104-.448 1.104-1s-.494-1-1.104-1Z" fill="#654CBF"></path><path d="M213.132 53.19c0-.418.072-.817.197-1.19H211v2.335c0 2.576 1.946 4.665 4.347 4.665H240v-2.289h-23.587c-1.812 0-3.281-1.576-3.281-3.521ZM257.896 50H238v-2h19.896c.61 0 1.104.448 1.104 1s-.494 1-1.104 1Z" fill="#654CBF"></path><path d="M213.208 53.063a3.72 3.72 0 0 0-.013 1.425c.05.264-.13.512-.381.512H211v-2.335c0-2.576 1.946-4.665 4.347-4.665H240v2.289h-23.456c-1.571 0-3 1.128-3.336 2.775Z" fill="#654CBF"></path><path d="M234.5 53a7.5 7.5 0 1 0 0-15 7.5 7.5 0 0 0 0 15Z" fill="#D93D8D"></path><path d="M244 45.5c0-4.694-4.03-8.5-9-8.5s-9 3.806-9 8.5 4.03 8.5 9 8.5 9-3.806 9-8.5Zm-13.205.574h2.207V40.93h3.919v5.143h2.207l-4.167 4.845-4.167-4.845h.001Zm-6.986-26.37c0 .19 0 .368-.013.533h-4.491c.088 1.216.589 1.71 1.731 1.71.853 0 1.217-.227 1.48-.95l1.155.431c-.414 1.027-1.38 1.572-2.647 1.572-.916 0-1.657-.291-2.196-.862-.552-.57-.828-1.344-.828-2.294 0-.951.276-1.712.828-2.307.552-.584 1.267-.875 2.133-.875.84 0 1.53.279 2.057.824.527.558.791 1.293.791 2.218Zm-2.836-2.028c-.991 0-1.543.533-1.656 1.61h3.212c-.05-1.154-.502-1.61-1.556-1.61Zm8.397.634c1.518.19 2.233.989 2.233 2.066 0 1.521-1.079 2.497-2.697 2.497h-3.99V14h3.714c1.606 0 2.622.875 2.622 2.231 0 1.09-.628 1.787-1.882 2.079Zm-.853-3.144h-2.284v2.637h2.246c.916 0 1.368-.47 1.368-1.395 0-.824-.439-1.242-1.33-1.242Zm-2.284 6.541h2.459c1.004 0 1.506-.494 1.506-1.47 0-.875-.54-1.306-1.619-1.306h-2.346v2.776Zm6.829-4.17c.603-.584 1.355-.875 2.246-.875s1.644.291 2.258.875c.615.583.916 1.343.916 2.294 0 .95-.301 1.711-.916 2.294-.614.584-1.367.875-2.258.875s-1.643-.291-2.246-.875c-.614-.583-.915-1.343-.915-2.294 0-.95.301-1.711.915-2.294Zm2.246 4.284c1.292 0 1.882-.634 1.882-1.99 0-1.356-.59-1.99-1.882-1.99-1.267 0-1.869.634-1.869 1.99 0 1.356.602 1.99 1.869 1.99Zm4.595-4.284c.602-.584 1.355-.875 2.246-.875.89 0 1.643.291 2.258.875.615.583.916 1.343.916 2.294 0 .95-.301 1.711-.916 2.294-.615.584-1.368.875-2.258.875-.891 0-1.644-.291-2.246-.875-.615-.583-.916-1.343-.916-2.294 0-.95.301-1.711.916-2.294Zm2.246 4.284c1.292 0 1.881-.634 1.881-1.99 0-1.356-.589-1.99-1.881-1.99-1.268 0-1.87.634-1.87 1.99 0 1.356.602 1.99 1.87 1.99ZM252 22.873h-1.543l-1.731-2.75-1.155 1.242v1.508h-1.279V14h1.279v6.224l.904-1.331 1.756-2.104h1.618l-2.32 2.472L252 22.873Z" fill="#FFFFFF"></path><path d="m144.097 239.759-14.321-9.031 8.931-10.374-7.995-6.429 2.354-5.679-9.772-.727 7.25-16.548s-9.756-6.959-15.309-10.652l-49.2 13.807.628 2.235c.019-.005.038-.018.059-.024 1.79-.505 3.647.548 4.156 2.352a3.374 3.374 0 0 1-2.321 4.174.433.433 0 0 1-.064.011l.633 2.244c.018-.005.037-.018.058-.024 1.79-.505 3.648.548 4.157 2.352a3.374 3.374 0 0 1-2.322 4.174.385.385 0 0 1-.064.01l.633 2.244c.019-.005.038-.018.059-.023 1.79-.505 3.647.547 4.156 2.351a3.375 3.375 0 0 1-2.321 4.175c-.023.006-.065.01-.065.01l.634 2.244c.018-.005.037-.018.058-.024 1.79-.505 3.648.548 4.156 2.352a3.374 3.374 0 0 1-2.32 4.174c-.024.007-.065.011-.065.011l.633 2.244c.019-.005.038-.018.058-.024 1.791-.505 3.648.548 4.157 2.352a3.374 3.374 0 0 1-2.321 4.174c-.023.007-.065.01-.065.01l.634 2.244c.018-.005.037-.018.058-.023 1.79-.505 3.648.547 4.156 2.351a3.375 3.375 0 0 1-2.32 4.175.55.55 0 0 1-.065.01l.633 2.244c.019-.005.037-.018.058-.024 1.79-.505 3.648.548 4.157 2.352a3.374 3.374 0 0 1-2.321 4.174c-.023.009-.065.011-.065.011l.634 2.244c.018-.006.037-.018.058-.024 1.79-.505 3.648.548 4.156 2.352a3.374 3.374 0 0 1-2.32 4.174c-.024.006-.065.01-.065.01l.57 2.024 18.045-5.078.018.066 37.349-10.504 2.374-10.916.011-.003Z" fill="#DFDFDF"></path><path d="m90.001 198.005 14.806 52.964 1.84-.516-14.806-52.965-1.84.517Z" fill="#707070"></path><path d="M109.926 217.461 108 218l8.354 29.853 1.926-.539-8.354-29.853Zm14 5L122 223l5.929 21.186 1.926-.539-5.929-21.186Zm-20-28L102 195l3.503 12.519 1.926-.539-3.503-12.519Zm34.688 46.318 1.918-.538-.969-3.461L137 235l1.614 5.779Zm-11.738-28.3-1.875.523 8.345 29.853 1.877-.526-2.705-9.676-2.54-1.845 1.477-1.955-4.579-16.374Zm-6.95-23.019L118 190l3.506 12.518 1.925-.539-3.505-12.519Zm4.075-.455 2.962 10.588 1.185-3.133-2.234-7.992-1.913.537Zm-3.075 45.456L119 235l2.964 10.593 1.926-.539-2.964-10.593Zm-6-43L113 192l3.503 12.519 1.926-.539-3.503-12.519Zm-6 .999L107 193l3.506 12.518 1.925-.539-3.505-12.519Z" fill="#B2B2B2"></path><path d="m160.882 193.037-14.576 10.68 8.105 5.526-4.886 3.732 3.708 9.567-12.938 4.497 7.886 14.988-7.527 8.252 54.552 13.964.576-2.248c-.019-.005-.042-.004-.063-.009a3.374 3.374 0 0 1-2.423-4.117 3.374 3.374 0 0 1 4.103-2.447.525.525 0 0 1 .061.023l.575-2.258c-.018-.005-.041-.004-.062-.009-1.805-.46-2.887-2.302-2.424-4.117a3.375 3.375 0 0 1 4.103-2.447.457.457 0 0 1 .061.023l.576-2.258c-.019-.005-.041-.003-.062-.009-1.805-.46-2.887-2.302-2.424-4.117a3.375 3.375 0 0 1 4.103-2.447.525.525 0 0 1 .061.023l.575-2.258c-.018-.005-.041-.003-.062-.009-1.805-.46-2.887-2.302-2.424-4.117a3.376 3.376 0 0 1 4.104-2.447.525.525 0 0 1 .061.023l.575-2.258c-.019-.005-.041-.003-.062-.009-1.805-.46-2.887-2.302-2.424-4.117a3.375 3.375 0 0 1 4.103-2.447.525.525 0 0 1 .061.023l.576-2.258c-.019-.005-.042-.003-.063-.008-1.805-.461-2.887-2.302-2.423-4.118a3.375 3.375 0 0 1 4.103-2.447.525.525 0 0 1 .061.023l.575-2.258c-.018-.005-.041-.003-.062-.008-1.805-.461-2.887-2.302-2.424-4.118a3.375 3.375 0 0 1 4.103-2.447c.024.006.061.024.061.024l.576-2.259c-.019-.004-.042-.003-.063-.008-1.804-.461-2.886-2.302-2.423-4.117a3.375 3.375 0 0 1 4.103-2.448.469.469 0 0 1 .061.024l.52-2.036-60.795-15.6c2.962 5.978 7.931 16.886 7.931 16.886l-.009-.003Z" fill="#DFDFDF"></path><path d="m171.011 246.197-.231.89 14.465 3.719.231-.89-14.465-3.719Zm.503-1.94-.231.89 14.465 3.719.231-.89-14.465-3.719Zm15.596-.714-14.462-3.719-.116.448 14.462 3.718.116-.447Zm.382-1.484-14.462-3.719-.116.448 14.462 3.718.116-.447Zm-15.688 1.109 14.462 3.72.56-2.179-14.462-3.72-.56 2.179Zm1.501-5.832 14.463 3.721.559-2.179-14.462-3.721-.56 2.179Zm15.356.186-14.463-3.718-.231.89 14.465 3.719.231-.89-.002-.001Zm.493-1.94-14.463-3.718-.231.89 14.465 3.719.231-.891h-.002Zm2.799-10.898-14.462-3.719-.231.891 14.465 3.719.231-.891h-.003Zm.274-1.045.23-.89-14.465-3.719-.231.89 14.466 3.719Zm-1.93 7.503-14.463-3.718-.116.447 14.463 3.718.116-.447Zm.377-1.475-14.463-3.719-.116.448 14.463 3.718.116-.447Zm-15.682 1.105 14.462 3.721.56-2.179-14.463-3.72-.559 2.178Zm1.504-5.831 14.462 3.721.559-2.179-14.462-3.72-.559 2.178Zm-8.559-34.443L166 190l-13.7 53.266 1.937.499 13.7-53.267Zm2 16L168 206l-6.477 25.18 1.937.499 6.477-25.181Z" fill="#707070"></path><path d="M15.678 6h56.644A3.677 3.677 0 0 1 76 9.67V48H12V9.67A3.677 3.677 0 0 1 15.678 6Z" fill="#5FC2EE"></path><path d="M73 10H16v38h57V10Z" fill="#FFFFFF"></path><path d="M73 10H16v4h57v-4Z" fill="#D6F2FF"></path><path d="M44.998 9a1 1 0 1 1 .006-2 1 1 0 0 1-.006 2Zm0-1.498a.5.5 0 0 0-.5.503.5.5 0 1 0 1.003 0 .502.502 0 0 0-.503-.503Z" fill="#FFFFFF"></path><path d="M12.538 48h62.924c1.4 0 2.538 1.084 2.538 2.417v1.777c0 .443-.38.806-.846.806H10.846c-.465 0-.846-.363-.846-.806v-1.777C10 49.084 11.138 48 12.538 48Z" fill="#5FC2EE"></path><path opacity=".29" d="M77.484 50H10.52a.51.51 0 0 1-.52-.5c0-.83.698-1.5 1.561-1.5H76.44c.863 0 1.561.67 1.561 1.5a.51.51 0 0 1-.52.5h.004Z" fill="#607C88"></path><path d="M57 3.931A3.931 3.931 0 0 1 60.931 0h16.138A3.931 3.931 0 0 1 81 3.931v16.138A3.931 3.931 0 0 1 77.069 24H57V3.931Z" fill="#223667"></path><path d="M69 9.247a2.752 2.752 0 1 0 0 5.504 2.752 2.752 0 0 0 0-5.504Zm0 4.587a1.834 1.834 0 1 1 0-3.67 1.834 1.834 0 0 1 0 3.67Zm5.044-1.711a4.447 4.447 0 0 0 0-.248l.856-1.068a.458.458 0 0 0 .084-.405 6.148 6.148 0 0 0-.623-1.505.458.458 0 0 0-.344-.225l-1.36-.152a4.499 4.499 0 0 0-.172-.172l-.16-1.363a.458.458 0 0 0-.227-.344 6.174 6.174 0 0 0-1.504-.623.458.458 0 0 0-.405.085l-1.066.851h-.248L67.807 6.1a.459.459 0 0 0-.405-.084c-.527.14-1.033.35-1.505.623a.458.458 0 0 0-.225.344l-.152 1.362c-.06.057-.117.115-.172.172l-1.363.157a.458.458 0 0 0-.344.226 6.179 6.179 0 0 0-.623 1.505.46.46 0 0 0 .085.405l.851 1.065v.248l-.854 1.069a.458.458 0 0 0-.084.404c.14.527.35 1.034.623 1.505a.459.459 0 0 0 .344.226l1.36.151c.057.06.114.117.172.172l.159 1.363a.457.457 0 0 0 .226.344c.472.274.978.483 1.505.623a.458.458 0 0 0 .404-.085l1.066-.85c.083.002.165.002.248 0l1.069.855a.458.458 0 0 0 .404.085 6.147 6.147 0 0 0 1.505-.624.459.459 0 0 0 .226-.344l.151-1.36a4.65 4.65 0 0 0 .172-.172l1.363-.16a.458.458 0 0 0 .344-.227c.273-.472.483-.978.623-1.505a.458.458 0 0 0-.085-.404l-.85-1.066Zm-.923-.373c.01.166.01.332 0 .498a.458.458 0 0 0 .1.314l.813 1.017a5.253 5.253 0 0 1-.357.86l-1.295.146a.458.458 0 0 0-.293.152 4.33 4.33 0 0 1-.352.352.459.459 0 0 0-.151.292l-.144 1.295a5.235 5.235 0 0 1-.86.357l-1.017-.814a.459.459 0 0 0-.287-.1h-.027c-.166.01-.332.01-.498 0a.459.459 0 0 0-.314.1l-1.02.814a5.253 5.253 0 0 1-.86-.357l-.146-1.294a.459.459 0 0 0-.151-.293 4.252 4.252 0 0 1-.352-.352.459.459 0 0 0-.293-.151l-1.294-.145a5.234 5.234 0 0 1-.357-.86l.813-1.017a.458.458 0 0 0 .1-.314 4.215 4.215 0 0 1 0-.497.459.459 0 0 0-.1-.315l-.813-1.018a5.13 5.13 0 0 1 .357-.86l1.294-.147a.459.459 0 0 0 .292-.151 4.26 4.26 0 0 1 .352-.352.459.459 0 0 0 .152-.293l.144-1.294a5.13 5.13 0 0 1 .86-.357l1.017.813c.089.071.2.107.314.1.166-.01.332-.01.498 0a.458.458 0 0 0 .314-.1l1.019-.813a5.2 5.2 0 0 1 .86.357l.146 1.294a.459.459 0 0 0 .152.292c.124.11.241.228.352.352.075.085.18.139.292.151l1.295.144c.144.276.263.564.357.86l-.814 1.017a.458.458 0 0 0-.1.317h.002Z" fill="#FFFFFF"></path><path d="m51.529 45-31.094-.063c-.792 0-1.435-.625-1.435-1.399l.027-23.502v-2.643c.005-.768.652-1.393 1.444-1.393l31.094.063c.792 0 1.435.63 1.435 1.399l-.032 26.145c0 .774-.643 1.393-1.44 1.393Z" fill="url(&quot;#svg1145721068_17950_c&quot;)"></path><path d="M19 20v-2.988c.005-.558.652-1.012 1.445-1.012l31.119.046c.793 0 1.436.458 1.436 1.017v2.858" fill="#223667"></path><path d="M20.498 18a.5.5 0 1 1 .004-1 .5.5 0 0 1-.004 1Zm0-.795a.293.293 0 0 0 0 .586c.078 0 .152-.03.21-.084a.293.293 0 0 0-.205-.502h-.005Zm3 .795a.5.5 0 1 1 .004-1 .5.5 0 0 1-.004 1Zm0-.795a.293.293 0 1 0 0 .587.293.293 0 0 0 0-.587Zm2 .795a.5.5 0 1 1 .004-1 .5.5 0 0 1-.004 1Zm0-.795a.293.293 0 1 0 .293.293.305.305 0 0 0-.084-.208.282.282 0 0 0-.209-.088v.003Zm23.242 7.232-25.48-.032c-.144 0-.26-.092-.26-.203 0-.11.116-.202.26-.202l25.48.032c.144 0 .26.092.26.203 0 .11-.116.202-.26.202Zm-12.995 7.982-12.49-.014c-.141 0-.255-.092-.255-.203 0-.11.114-.202.255-.202l12.49.014c.141 0 .255.092.255.202 0 .11-.114.203-.255.203Zm-5.008-6.006-7.474-.009c-.146 0-.263-.092-.263-.202 0-.11.117-.202.263-.202l7.474.01c.146 0 .263.091.263.201 0 .11-.117.202-.263.202Zm18 .001-16.474-.01c-.145 0-.263-.091-.263-.202 0-.11.117-.202.263-.202l16.474.01c.145 0 .263.091.263.201 0 .11-.117.203-.263.203Zm-10.999 3-14.476-.01c-.145 0-.262-.091-.262-.202 0-.11.117-.202.262-.202l14.476.01c.145 0 .262.091.262.201 0 .11-.117.203-.262.203Zm11.002-.001-9.48-.009c-.144 0-.26-.092-.26-.202 0-.11.116-.202.26-.202l9.48.01c.144 0 .26.091.26.201 0 .11-.116.202-.26.202Z" fill="#FFFFFF"></path><defs><linearGradient id="svg1145721068_17950_a" x1="140" y1="141.5" x2="140" y2="192.781" gradientUnits="userSpaceOnUse"><stop stop-color="#DFDFDF"></stop><stop offset="1" stop-color="#DFDFDF" stop-opacity="0"></stop></linearGradient><linearGradient id="svg1145721068_17950_b" x1="140" y1="137.5" x2="140" y2="184.569" gradientUnits="userSpaceOnUse"><stop stop-color="#DFDFDF"></stop><stop offset="1" stop-color="#DFDFDF" stop-opacity="0"></stop></linearGradient><linearGradient id="svg1145721068_17950_c" x1="36" y1="16" x2="36" y2="45" gradientUnits="userSpaceOnUse"><stop stop-color="#A6DFF8"></stop><stop offset="1" stop-color="#fff" stop-opacity="0"></stop></linearGradient><linearGradient id="svg1145721068_17950_a" x1="140" y1="141.5" x2="140" y2="192.781" gradientUnits="userSpaceOnUse"><stop stop-color="#DFDFDF"></stop><stop offset="1" stop-color="#DFDFDF" stop-opacity="0"></stop></linearGradient><linearGradient id="svg1145721068_17950_b" x1="140" y1="137.5" x2="140" y2="184.569" gradientUnits="userSpaceOnUse"><stop stop-color="#DFDFDF"></stop><stop offset="1" stop-color="#DFDFDF" stop-opacity="0"></stop></linearGradient><linearGradient id="svg1145721068_17950_c" x1="36" y1="16" x2="36" y2="45" gradientUnits="userSpaceOnUse"><stop stop-color="#A6DFF8"></stop><stop offset="1" stop-color="#fff" stop-opacity="0"></stop></linearGradient></defs></svg></defs><g><path d="M140 201v-54.349a8 8 0 0 1 8-8h64c13.255 0 24-10.745 24-24V82" stroke="url(&quot;#svg1145721068_17950_a&quot;)" stroke-width="2px" fill="none"></path><path d="M140 193v-46.373a8 8 0 0 0-8-8H68c-13.255 0-24-10.745-24-24V82" stroke="url(&quot;#svg1145721068_17950_b&quot;)" stroke-width="2px" fill="none"></path><rect y="16" width="88" height="66" rx="7" fill="#223667"></rect><rect x="192" y="16" width="87" height="66" rx="7" fill="#D93D8D"></rect><rect x="208" y="69" width="55" height="23" rx="11.5" fill="#FFDEE9"></rect><path d="M226.859 83.444V75h1.963v10.845h-2.647l-3.969-7.003-.744-1.564v8.567H219.5V75h2.721l3.821 6.77.817 1.674ZM237.491 75v1.89h-4.594v2.525h4.356v1.875h-4.356v4.555h-1.963V75h6.557Zm1.038 7.204v-1.657h4.698v1.657h-4.698Zm12.971-.264c0 .28 0 .528-.015.729h-5.174c.119 1.255.654 1.797 1.799 1.797.848 0 1.234-.263 1.591-1.069l1.635.62c-.49 1.317-1.59 1.983-3.27 1.983-1.115 0-2.022-.356-2.691-1.069-.684-.713-1.026-1.658-1.026-2.835 0-1.193.342-2.154 1.026-2.897.669-.729 1.546-1.1 2.631-1.1 1.056 0 1.903.34 2.542 1.038.64.697.952 1.642.952 2.804Zm-3.479-2.354c-1.056 0-1.576.511-1.71 1.735h3.316c-.015-1.255-.521-1.735-1.606-1.735Z" fill="#D93D8D"></path><rect x="16" y="69" width="55" height="23" rx="11.5" fill="#5FC2EE"></rect><path d="M32.625 82.938v-6.813h1.634v8.75h-2.203l-3.304-5.65-.619-1.262v6.912H26.5v-8.75h2.265l3.18 5.463.68 1.35Zm8.849-6.813v1.525H37.65v2.037h3.626V81.2H37.65v3.675h-1.633v-8.75h5.457ZM45.506 85c-1.992 0-3.304-.888-3.551-2.775l1.67-.45c.136 1.4.718 1.825 1.918 1.825 1.102 0 1.572-.35 1.572-1.137 0-.363-.087-.6-.26-.738-.186-.137-.52-.25-1.027-.35l-1.473-.287c-1.46-.288-2.19-1.125-2.19-2.513 0-.775.285-1.4.866-1.875.582-.463 1.337-.7 2.277-.7 1.968 0 3.205.925 3.366 2.725l-1.56.438c-.061-1.363-.667-1.738-1.818-1.738-.953 0-1.436.362-1.436 1.075 0 .737.334.925 1.312 1.112l1.361.263c1.51.287 2.265 1.075 2.265 2.362 0 .838-.297 1.5-.891 2-.594.513-1.399.763-2.401.763Zm4.198-3.062V80.6h3.91v1.338h-3.91Zm10.796-.213c0 .225 0 .425-.012.588H56.18c.1 1.012.545 1.45 1.498 1.45.705 0 1.027-.213 1.324-.863l1.36.5c-.407 1.063-1.323 1.6-2.721 1.6-.928 0-1.683-.287-2.24-.862-.57-.576-.854-1.338-.854-2.288 0-.962.285-1.737.854-2.337.557-.588 1.287-.888 2.19-.888.879 0 1.584.275 2.116.838.532.562.792 1.325.792 2.262Zm-2.896-1.9c-.878 0-1.311.412-1.423 1.4h2.76c-.013-1.012-.433-1.4-1.337-1.4Z" fill="#FFFFFF"></path><rect x="185" y="217" width="74" height="24" rx="12" fill="#D93D8D"></rect><path d="m217.229 231.76-2.315 1.033h6.429v2.44h-9.224v-2.208l3.508-2.529c1.78-1.282 2.867-2.386 2.867-3.722 0-1.14-.588-1.71-1.781-1.71-1.763 0-2.226 1.122-1.638 3.491l-3.01-.321c-.32-1.763-.036-3.134.837-4.149.873-.997 2.137-1.496 3.793-1.496 1.407 0 2.547.374 3.419 1.104.855.73 1.282 1.71 1.282 2.903 0 1.229-.338 2.244-.997 3.009-.659.784-1.727 1.496-3.17 2.155Zm10.828-9.171c1.584 0 2.831.57 3.775 1.692.944 1.122 1.407 2.707 1.407 4.719 0 2.012-.463 3.597-1.407 4.719-.944 1.122-2.191 1.692-3.775 1.692-1.568 0-2.814-.57-3.74-1.692-.944-1.122-1.407-2.707-1.407-4.719 0-2.012.463-3.597 1.407-4.719.926-1.122 2.172-1.692 3.74-1.692Zm0 10.329c.943 0 1.567-.267 1.869-.784.303-.516.463-1.567.463-3.134s-.16-2.618-.463-3.134c-.302-.517-.926-.784-1.869-.784-.909 0-1.532.267-1.835.784-.302.516-.463 1.567-.463 3.134s.161 2.618.463 3.134c.303.517.926.784 1.835.784Zm13.006-4.363c-.712.659-1.585.979-2.617.979-1.033 0-1.906-.32-2.618-.979-.713-.641-1.069-1.478-1.069-2.511 0-1.015.356-1.834 1.069-2.493.712-.641 1.585-.962 2.618-.962 1.032 0 1.905.321 2.617.962.695.641 1.051 1.478 1.051 2.493 0 1.033-.356 1.87-1.051 2.511Zm1.087.356 4.167-6.144h1.923l-4.648 6.251-4.256 6.215h-1.977l4.791-6.322Zm-5.147-2.867c0 .961.481 1.442 1.443 1.442.961 0 1.442-.481 1.442-1.442 0-.944-.481-1.425-1.442-1.425-.962 0-1.443.481-1.443 1.425Zm12.946 8.387c-.712.659-1.584.98-2.617.98s-1.906-.321-2.618-.98c-.712-.641-1.069-1.478-1.069-2.511 0-1.015.357-1.834 1.069-2.493.712-.641 1.585-.961 2.618-.961s1.905.32 2.617.961c.695.641 1.051 1.478 1.051 2.493 0 1.033-.356 1.87-1.051 2.511Zm-4.06-2.511c0 .962.481 1.443 1.443 1.443.961 0 1.442-.481 1.442-1.443 0-.943-.481-1.424-1.442-1.424-.962 0-1.443.481-1.443 1.424Z" fill="#FFFFFF"></path><rect x="20" y="217" width="90" height="24" rx="12" fill="#5FC2EE"></rect><path d="M35.034 228.736c.879.159 1.617.475 2.233.985.598.51.897 1.196.897 2.093 0 1.107-.458 1.969-1.372 2.584-.932.616-2.163.932-3.693.932-3.112 0-5.099-1.318-5.099-3.587 0-1.635 1.073-2.637 3.218-2.989-1.917-.334-2.778-1.337-2.778-2.673 0-2.128 1.828-3.411 4.642-3.411 2.83 0 4.677 1.248 4.677 3.376 0 1.389-.95 2.339-2.725 2.69Zm-1.917-3.903c-1.336 0-2.005.492-2.005 1.477 0 .984.651 1.477 1.97 1.477 1.354 0 2.022-.493 2.022-1.477 0-.985-.668-1.477-1.987-1.477Zm-.035 8.247c1.46 0 2.18-.528 2.18-1.565 0-1.091-.738-1.636-2.198-1.636s-2.198.545-2.198 1.618c0 1.055.739 1.583 2.216 1.583ZM44.5 222.67c1.566 0 2.797.562 3.729 1.67.932 1.108 1.389 2.673 1.389 4.66s-.457 3.552-1.39 4.66c-.931 1.108-2.162 1.67-3.727 1.67-1.547 0-2.778-.562-3.693-1.67-.932-1.108-1.389-2.673-1.389-4.66s.457-3.552 1.39-4.66c.914-1.108 2.145-1.67 3.692-1.67Zm0 10.199c.933 0 1.548-.264 1.847-.774.3-.51.457-1.548.457-3.095 0-1.547-.158-2.585-.457-3.095-.299-.51-.914-.774-1.846-.774-.897 0-1.512.264-1.811.774-.3.51-.457 1.548-.457 3.095 0 1.547.158 2.585.457 3.095.299.51.914.774 1.81.774Zm12.844-4.309c-.703.651-1.565.968-2.585.968s-1.881-.317-2.584-.968c-.704-.633-1.055-1.459-1.055-2.479 0-1.002.351-1.811 1.055-2.462.703-.633 1.565-.949 2.584-.949 1.02 0 1.882.316 2.585.949.686.633 1.038 1.46 1.038 2.462 0 1.02-.352 1.846-1.038 2.479Zm1.073.352 4.115-6.066h1.899l-4.59 6.172-4.202 6.137h-1.952l4.73-6.243Zm-5.082-2.831c0 .95.475 1.424 1.424 1.424.95 0 1.425-.474 1.425-1.424 0-.932-.475-1.407-1.425-1.407-.95 0-1.424.475-1.424 1.407Zm12.784 8.282c-.704.651-1.565.967-2.585.967s-1.881-.316-2.585-.967c-.703-.633-1.055-1.459-1.055-2.479 0-1.002.352-1.811 1.055-2.462.704-.633 1.565-.95 2.585-.95s1.881.317 2.585.95c.686.633 1.037 1.46 1.037 2.462 0 1.02-.351 1.846-1.037 2.479Zm-4.01-2.479c0 .949.475 1.424 1.425 1.424.95 0 1.424-.475 1.424-1.424 0-.932-.474-1.407-1.424-1.407s-1.424.475-1.424 1.407ZM257 58h-44v-8h43.999c-1.234 2.667-1.234 5.333 0 8H257Z" fill="#FFFFFF"></path><path d="M257.896 57H238v2h19.896c.61 0 1.104-.448 1.104-1s-.494-1-1.104-1Z" fill="#FFFFFF"></path><path d="M257.917 3h-42.5C212.977 3 211 4.945 211 7.344v47.312c0 2.399 1.977 4.343 4.417 4.343h25.047v-2.13H216.5c-1.841 0-3.333-1.468-3.333-3.28 0-1.81 1.492-3.278 3.333-3.278h41.396c.609 0 1.104-.486 1.104-1.086V4.065c0-.589-.485-1.065-1.084-1.065h.001Z" fill="#2F0B59"></path><path d="M257.896 57H238v2h19.896c.61 0 1.104-.448 1.104-1s-.494-1-1.104-1Z" fill="#654CBF"></path><path d="M213.132 53.19c0-.418.072-.817.197-1.19H211v2.335c0 2.576 1.946 4.665 4.347 4.665H240v-2.289h-23.587c-1.812 0-3.281-1.576-3.281-3.521ZM257.896 50H238v-2h19.896c.61 0 1.104.448 1.104 1s-.494 1-1.104 1Z" fill="#654CBF"></path><path d="M213.208 53.063a3.72 3.72 0 0 0-.013 1.425c.05.264-.13.512-.381.512H211v-2.335c0-2.576 1.946-4.665 4.347-4.665H240v2.289h-23.456c-1.571 0-3 1.128-3.336 2.775Z" fill="#654CBF"></path><path d="M234.5 53a7.5 7.5 0 1 0 0-15 7.5 7.5 0 0 0 0 15Z" fill="#D93D8D"></path><path d="M244 45.5c0-4.694-4.03-8.5-9-8.5s-9 3.806-9 8.5 4.03 8.5 9 8.5 9-3.806 9-8.5Zm-13.205.574h2.207V40.93h3.919v5.143h2.207l-4.167 4.845-4.167-4.845h.001Zm-6.986-26.37c0 .19 0 .368-.013.533h-4.491c.088 1.216.589 1.71 1.731 1.71.853 0 1.217-.227 1.48-.95l1.155.431c-.414 1.027-1.38 1.572-2.647 1.572-.916 0-1.657-.291-2.196-.862-.552-.57-.828-1.344-.828-2.294 0-.951.276-1.712.828-2.307.552-.584 1.267-.875 2.133-.875.84 0 1.53.279 2.057.824.527.558.791 1.293.791 2.218Zm-2.836-2.028c-.991 0-1.543.533-1.656 1.61h3.212c-.05-1.154-.502-1.61-1.556-1.61Zm8.397.634c1.518.19 2.233.989 2.233 2.066 0 1.521-1.079 2.497-2.697 2.497h-3.99V14h3.714c1.606 0 2.622.875 2.622 2.231 0 1.09-.628 1.787-1.882 2.079Zm-.853-3.144h-2.284v2.637h2.246c.916 0 1.368-.47 1.368-1.395 0-.824-.439-1.242-1.33-1.242Zm-2.284 6.541h2.459c1.004 0 1.506-.494 1.506-1.47 0-.875-.54-1.306-1.619-1.306h-2.346v2.776Zm6.829-4.17c.603-.584 1.355-.875 2.246-.875s1.644.291 2.258.875c.615.583.916 1.343.916 2.294 0 .95-.301 1.711-.916 2.294-.614.584-1.367.875-2.258.875s-1.643-.291-2.246-.875c-.614-.583-.915-1.343-.915-2.294 0-.95.301-1.711.915-2.294Zm2.246 4.284c1.292 0 1.882-.634 1.882-1.99 0-1.356-.59-1.99-1.882-1.99-1.267 0-1.869.634-1.869 1.99 0 1.356.602 1.99 1.869 1.99Zm4.595-4.284c.602-.584 1.355-.875 2.246-.875.89 0 1.643.291 2.258.875.615.583.916 1.343.916 2.294 0 .95-.301 1.711-.916 2.294-.615.584-1.368.875-2.258.875-.891 0-1.644-.291-2.246-.875-.615-.583-.916-1.343-.916-2.294 0-.95.301-1.711.916-2.294Zm2.246 4.284c1.292 0 1.881-.634 1.881-1.99 0-1.356-.589-1.99-1.881-1.99-1.268 0-1.87.634-1.87 1.99 0 1.356.602 1.99 1.87 1.99ZM252 22.873h-1.543l-1.731-2.75-1.155 1.242v1.508h-1.279V14h1.279v6.224l.904-1.331 1.756-2.104h1.618l-2.32 2.472L252 22.873Z" fill="#FFFFFF"></path><path d="m144.097 239.759-14.321-9.031 8.931-10.374-7.995-6.429 2.354-5.679-9.772-.727 7.25-16.548s-9.756-6.959-15.309-10.652l-49.2 13.807.628 2.235c.019-.005.038-.018.059-.024 1.79-.505 3.647.548 4.156 2.352a3.374 3.374 0 0 1-2.321 4.174.433.433 0 0 1-.064.011l.633 2.244c.018-.005.037-.018.058-.024 1.79-.505 3.648.548 4.157 2.352a3.374 3.374 0 0 1-2.322 4.174.385.385 0 0 1-.064.01l.633 2.244c.019-.005.038-.018.059-.023 1.79-.505 3.647.547 4.156 2.351a3.375 3.375 0 0 1-2.321 4.175c-.023.006-.065.01-.065.01l.634 2.244c.018-.005.037-.018.058-.024 1.79-.505 3.648.548 4.156 2.352a3.374 3.374 0 0 1-2.32 4.174c-.024.007-.065.011-.065.011l.633 2.244c.019-.005.038-.018.058-.024 1.791-.505 3.648.548 4.157 2.352a3.374 3.374 0 0 1-2.321 4.174c-.023.007-.065.01-.065.01l.634 2.244c.018-.005.037-.018.058-.023 1.79-.505 3.648.547 4.156 2.351a3.375 3.375 0 0 1-2.32 4.175.55.55 0 0 1-.065.01l.633 2.244c.019-.005.037-.018.058-.024 1.79-.505 3.648.548 4.157 2.352a3.374 3.374 0 0 1-2.321 4.174c-.023.009-.065.011-.065.011l.634 2.244c.018-.006.037-.018.058-.024 1.79-.505 3.648.548 4.156 2.352a3.374 3.374 0 0 1-2.32 4.174c-.024.006-.065.01-.065.01l.57 2.024 18.045-5.078.018.066 37.349-10.504 2.374-10.916.011-.003Z" fill="#DFDFDF"></path><path d="m90.001 198.005 14.806 52.964 1.84-.516-14.806-52.965-1.84.517Z" fill="#707070"></path><path d="M109.926 217.461 108 218l8.354 29.853 1.926-.539-8.354-29.853Zm14 5L122 223l5.929 21.186 1.926-.539-5.929-21.186Zm-20-28L102 195l3.503 12.519 1.926-.539-3.503-12.519Zm34.688 46.318 1.918-.538-.969-3.461L137 235l1.614 5.779Zm-11.738-28.3-1.875.523 8.345 29.853 1.877-.526-2.705-9.676-2.54-1.845 1.477-1.955-4.579-16.374Zm-6.95-23.019L118 190l3.506 12.518 1.925-.539-3.505-12.519Zm4.075-.455 2.962 10.588 1.185-3.133-2.234-7.992-1.913.537Zm-3.075 45.456L119 235l2.964 10.593 1.926-.539-2.964-10.593Zm-6-43L113 192l3.503 12.519 1.926-.539-3.503-12.519Zm-6 .999L107 193l3.506 12.518 1.925-.539-3.505-12.519Z" fill="#B2B2B2"></path><path d="m160.882 193.037-14.576 10.68 8.105 5.526-4.886 3.732 3.708 9.567-12.938 4.497 7.886 14.988-7.527 8.252 54.552 13.964.576-2.248c-.019-.005-.042-.004-.063-.009a3.374 3.374 0 0 1-2.423-4.117 3.374 3.374 0 0 1 4.103-2.447.525.525 0 0 1 .061.023l.575-2.258c-.018-.005-.041-.004-.062-.009-1.805-.46-2.887-2.302-2.424-4.117a3.375 3.375 0 0 1 4.103-2.447.457.457 0 0 1 .061.023l.576-2.258c-.019-.005-.041-.003-.062-.009-1.805-.46-2.887-2.302-2.424-4.117a3.375 3.375 0 0 1 4.103-2.447.525.525 0 0 1 .061.023l.575-2.258c-.018-.005-.041-.003-.062-.009-1.805-.46-2.887-2.302-2.424-4.117a3.376 3.376 0 0 1 4.104-2.447.525.525 0 0 1 .061.023l.575-2.258c-.019-.005-.041-.003-.062-.009-1.805-.46-2.887-2.302-2.424-4.117a3.375 3.375 0 0 1 4.103-2.447.525.525 0 0 1 .061.023l.576-2.258c-.019-.005-.042-.003-.063-.008-1.805-.461-2.887-2.302-2.423-4.118a3.375 3.375 0 0 1 4.103-2.447.525.525 0 0 1 .061.023l.575-2.258c-.018-.005-.041-.003-.062-.008-1.805-.461-2.887-2.302-2.424-4.118a3.375 3.375 0 0 1 4.103-2.447c.024.006.061.024.061.024l.576-2.259c-.019-.004-.042-.003-.063-.008-1.804-.461-2.886-2.302-2.423-4.117a3.375 3.375 0 0 1 4.103-2.448.469.469 0 0 1 .061.024l.52-2.036-60.795-15.6c2.962 5.978 7.931 16.886 7.931 16.886l-.009-.003Z" fill="#DFDFDF"></path><path d="m171.011 246.197-.231.89 14.465 3.719.231-.89-14.465-3.719Zm.503-1.94-.231.89 14.465 3.719.231-.89-14.465-3.719Zm15.596-.714-14.462-3.719-.116.448 14.462 3.718.116-.447Zm.382-1.484-14.462-3.719-.116.448 14.462 3.718.116-.447Zm-15.688 1.109 14.462 3.72.56-2.179-14.462-3.72-.56 2.179Zm1.501-5.832 14.463 3.721.559-2.179-14.462-3.721-.56 2.179Zm15.356.186-14.463-3.718-.231.89 14.465 3.719.231-.89-.002-.001Zm.493-1.94-14.463-3.718-.231.89 14.465 3.719.231-.891h-.002Zm2.799-10.898-14.462-3.719-.231.891 14.465 3.719.231-.891h-.003Zm.274-1.045.23-.89-14.465-3.719-.231.89 14.466 3.719Zm-1.93 7.503-14.463-3.718-.116.447 14.463 3.718.116-.447Zm.377-1.475-14.463-3.719-.116.448 14.463 3.718.116-.447Zm-15.682 1.105 14.462 3.721.56-2.179-14.463-3.72-.559 2.178Zm1.504-5.831 14.462 3.721.559-2.179-14.462-3.72-.559 2.178Zm-8.559-34.443L166 190l-13.7 53.266 1.937.499 13.7-53.267Zm2 16L168 206l-6.477 25.18 1.937.499 6.477-25.181Z" fill="#707070"></path><path d="M15.678 6h56.644A3.677 3.677 0 0 1 76 9.67V48H12V9.67A3.677 3.677 0 0 1 15.678 6Z" fill="#5FC2EE"></path><path d="M73 10H16v38h57V10Z" fill="#FFFFFF"></path><path d="M73 10H16v4h57v-4Z" fill="#D6F2FF"></path><path d="M44.998 9a1 1 0 1 1 .006-2 1 1 0 0 1-.006 2Zm0-1.498a.5.5 0 0 0-.5.503.5.5 0 1 0 1.003 0 .502.502 0 0 0-.503-.503Z" fill="#FFFFFF"></path><path d="M12.538 48h62.924c1.4 0 2.538 1.084 2.538 2.417v1.777c0 .443-.38.806-.846.806H10.846c-.465 0-.846-.363-.846-.806v-1.777C10 49.084 11.138 48 12.538 48Z" fill="#5FC2EE"></path><path opacity=".29" d="M77.484 50H10.52a.51.51 0 0 1-.52-.5c0-.83.698-1.5 1.561-1.5H76.44c.863 0 1.561.67 1.561 1.5a.51.51 0 0 1-.52.5h.004Z" fill="#607C88"></path><path d="M57 3.931A3.931 3.931 0 0 1 60.931 0h16.138A3.931 3.931 0 0 1 81 3.931v16.138A3.931 3.931 0 0 1 77.069 24H57V3.931Z" fill="#223667"></path><path d="M69 9.247a2.752 2.752 0 1 0 0 5.504 2.752 2.752 0 0 0 0-5.504Zm0 4.587a1.834 1.834 0 1 1 0-3.67 1.834 1.834 0 0 1 0 3.67Zm5.044-1.711a4.447 4.447 0 0 0 0-.248l.856-1.068a.458.458 0 0 0 .084-.405 6.148 6.148 0 0 0-.623-1.505.458.458 0 0 0-.344-.225l-1.36-.152a4.499 4.499 0 0 0-.172-.172l-.16-1.363a.458.458 0 0 0-.227-.344 6.174 6.174 0 0 0-1.504-.623.458.458 0 0 0-.405.085l-1.066.851h-.248L67.807 6.1a.459.459 0 0 0-.405-.084c-.527.14-1.033.35-1.505.623a.458.458 0 0 0-.225.344l-.152 1.362c-.06.057-.117.115-.172.172l-1.363.157a.458.458 0 0 0-.344.226 6.179 6.179 0 0 0-.623 1.505.46.46 0 0 0 .085.405l.851 1.065v.248l-.854 1.069a.458.458 0 0 0-.084.404c.14.527.35 1.034.623 1.505a.459.459 0 0 0 .344.226l1.36.151c.057.06.114.117.172.172l.159 1.363a.457.457 0 0 0 .226.344c.472.274.978.483 1.505.623a.458.458 0 0 0 .404-.085l1.066-.85c.083.002.165.002.248 0l1.069.855a.458.458 0 0 0 .404.085 6.147 6.147 0 0 0 1.505-.624.459.459 0 0 0 .226-.344l.151-1.36a4.65 4.65 0 0 0 .172-.172l1.363-.16a.458.458 0 0 0 .344-.227c.273-.472.483-.978.623-1.505a.458.458 0 0 0-.085-.404l-.85-1.066Zm-.923-.373c.01.166.01.332 0 .498a.458.458 0 0 0 .1.314l.813 1.017a5.253 5.253 0 0 1-.357.86l-1.295.146a.458.458 0 0 0-.293.152 4.33 4.33 0 0 1-.352.352.459.459 0 0 0-.151.292l-.144 1.295a5.235 5.235 0 0 1-.86.357l-1.017-.814a.459.459 0 0 0-.287-.1h-.027c-.166.01-.332.01-.498 0a.459.459 0 0 0-.314.1l-1.02.814a5.253 5.253 0 0 1-.86-.357l-.146-1.294a.459.459 0 0 0-.151-.293 4.252 4.252 0 0 1-.352-.352.459.459 0 0 0-.293-.151l-1.294-.145a5.234 5.234 0 0 1-.357-.86l.813-1.017a.458.458 0 0 0 .1-.314 4.215 4.215 0 0 1 0-.497.459.459 0 0 0-.1-.315l-.813-1.018a5.13 5.13 0 0 1 .357-.86l1.294-.147a.459.459 0 0 0 .292-.151 4.26 4.26 0 0 1 .352-.352.459.459 0 0 0 .152-.293l.144-1.294a5.13 5.13 0 0 1 .86-.357l1.017.813c.089.071.2.107.314.1.166-.01.332-.01.498 0a.458.458 0 0 0 .314-.1l1.019-.813a5.2 5.2 0 0 1 .86.357l.146 1.294a.459.459 0 0 0 .152.292c.124.11.241.228.352.352.075.085.18.139.292.151l1.295.144c.144.276.263.564.357.86l-.814 1.017a.458.458 0 0 0-.1.317h.002Z" fill="#FFFFFF"></path><path d="m51.529 45-31.094-.063c-.792 0-1.435-.625-1.435-1.399l.027-23.502v-2.643c.005-.768.652-1.393 1.444-1.393l31.094.063c.792 0 1.435.63 1.435 1.399l-.032 26.145c0 .774-.643 1.393-1.44 1.393Z" fill="url(&quot;#svg1145721068_17950_c&quot;)"></path><path d="M19 20v-2.988c.005-.558.652-1.012 1.445-1.012l31.119.046c.793 0 1.436.458 1.436 1.017v2.858" fill="#223667"></path><path d="M20.498 18a.5.5 0 1 1 .004-1 .5.5 0 0 1-.004 1Zm0-.795a.293.293 0 0 0 0 .586c.078 0 .152-.03.21-.084a.293.293 0 0 0-.205-.502h-.005Zm3 .795a.5.5 0 1 1 .004-1 .5.5 0 0 1-.004 1Zm0-.795a.293.293 0 1 0 0 .587.293.293 0 0 0 0-.587Zm2 .795a.5.5 0 1 1 .004-1 .5.5 0 0 1-.004 1Zm0-.795a.293.293 0 1 0 .293.293.305.305 0 0 0-.084-.208.282.282 0 0 0-.209-.088v.003Zm23.242 7.232-25.48-.032c-.144 0-.26-.092-.26-.203 0-.11.116-.202.26-.202l25.48.032c.144 0 .26.092.26.203 0 .11-.116.202-.26.202Zm-12.995 7.982-12.49-.014c-.141 0-.255-.092-.255-.203 0-.11.114-.202.255-.202l12.49.014c.141 0 .255.092.255.202 0 .11-.114.203-.255.203Zm-5.008-6.006-7.474-.009c-.146 0-.263-.092-.263-.202 0-.11.117-.202.263-.202l7.474.01c.146 0 .263.091.263.201 0 .11-.117.202-.263.202Zm18 .001-16.474-.01c-.145 0-.263-.091-.263-.202 0-.11.117-.202.263-.202l16.474.01c.145 0 .263.091.263.201 0 .11-.117.203-.263.203Zm-10.999 3-14.476-.01c-.145 0-.262-.091-.262-.202 0-.11.117-.202.262-.202l14.476.01c.145 0 .262.091.262.201 0 .11-.117.203-.262.203Zm11.002-.001-9.48-.009c-.144 0-.26-.092-.26-.202 0-.11.116-.202.26-.202l9.48.01c.144 0 .26.091.26.201 0 .11-.116.202-.26.202Z" fill="#FFFFFF"></path><defs><lineargradient id="svg1145721068_17950_a" x1="140" y1="141.5" x2="140" y2="192.781" gradientunits="userSpaceOnUse"><stop stop-color="#DFDFDF"></stop><stop offset="1" stop-color="#DFDFDF" stop-opacity="0"></stop></lineargradient><lineargradient id="svg1145721068_17950_b" x1="140" y1="137.5" x2="140" y2="184.569" gradientunits="userSpaceOnUse"><stop stop-color="#DFDFDF"></stop><stop offset="1" stop-color="#DFDFDF" stop-opacity="0"></stop></lineargradient><lineargradient id="svg1145721068_17950_c" x1="36" y1="16" x2="36" y2="45" gradientunits="userSpaceOnUse"><stop stop-color="#A6DFF8"></stop><stop offset="1" stop-color="#fff" stop-opacity="0"></stop></lineargradient><lineargradient id="svg1145721068_17950_a" x1="140" y1="141.5" x2="140" y2="192.781" gradientunits="userSpaceOnUse"><stop stop-color="#DFDFDF"></stop><stop offset="1" stop-color="#DFDFDF" stop-opacity="0"></stop></lineargradient><lineargradient id="svg1145721068_17950_b" x1="140" y1="137.5" x2="140" y2="184.569" gradientunits="userSpaceOnUse"><stop stop-color="#DFDFDF"></stop><stop offset="1" stop-color="#DFDFDF" stop-opacity="0"></stop></lineargradient><lineargradient id="svg1145721068_17950_c" x1="36" y1="16" x2="36" y2="45" gradientunits="userSpaceOnUse"><stop stop-color="#A6DFF8"></stop><stop offset="1" stop-color="#fff" stop-opacity="0"></stop></lineargradient></defs></g></svg>