<svg xmlns:xlink="http://www.w3.org/1999/xlink" xmlns="http://www.w3.org/2000/svg" style="width:100%;height:100%" viewBox="0 0 270 254" preserveAspectRatio="none" width="270" height="254"><defs><svg width="270" height="254" fill="none" id="svg-1701540935_15826"><path d="M132 187V19" stroke="#DFDFDF" stroke-width="2px" fill="none"></path><path d="m166.668 65-70.418-.141c-1.794 0-3.25-1.401-3.25-3.136l.061-52.676V3.123C93.072 1.4 94.538 0 96.332 0l70.418.141c1.794 0 3.25 1.414 3.25 3.136l-.072 58.6c0 1.735-1.456 3.123-3.26 3.123Z" fill="url(&quot;#svg-1701540935_15826_a&quot;)"></path><path d="M93 10V2.531C93.01 1.135 94.478 0 96.273 0l70.474.115C168.543.115 170 1.26 170 2.656v7.146" fill="#D93D8D"></path><path d="M98.495 7a1.5 1.5 0 1 1 .01-3 1.5 1.5 0 0 1-.01 3Zm0-2.384a.88.88 0 0 0 0 1.758.912.912 0 0 0 .626-.253.88.88 0 0 0-.616-1.505h-.01Zm5 2.384a1.5 1.5 0 1 1 .01-3 1.5 1.5 0 0 1-.01 3Zm0-2.384a.88.88 0 1 0 .001 1.76.88.88 0 0 0-.001-1.76Zm4 2.384a1.5 1.5 0 1 1 .01-3 1.5 1.5 0 0 1-.01 3Zm0-2.384a.88.88 0 1 0 .879.879.912.912 0 0 0-.253-.626.845.845 0 0 0-.626-.263v.01ZM159.429 19l-55.858-.074c-.316 0-.571-.21-.571-.463s.255-.463.571-.463l55.858.074c.316 0 .571.21.571.463s-.255.463-.571.463Zm-28.998 19-27.862-.033c-.315 0-.569-.22-.569-.483 0-.264.254-.484.569-.484l27.862.033c.315 0 .569.22.569.483 0 .264-.254.484-.569.484Zm-10.989-13-15.884-.022c-.309 0-.558-.222-.558-.49 0-.266.249-.488.558-.488l15.884.022c.309 0 .558.222.558.49 0 .266-.249.488-.558.488Zm39.985 0-35.854-.022c-.317 0-.573-.222-.573-.49 0-.266.256-.488.573-.488l35.854.022c.317 0 .573.222.573.49 0 .266-.256.488-.573.488Zm-24.003 7-31.848-.022c-.319 0-.576-.222-.576-.49 0-.266.257-.488.576-.488l31.848.022c.319 0 .576.222.576.49 0 .266-.257.488-.576.488Zm24.005 0-20.858-.022c-.316 0-.571-.222-.571-.49 0-.266.255-.488.571-.488l20.858.022c.316 0 .571.222.571.49 0 .266-.255.488-.571.488Z" fill="#FFFFFF"></path><g filter="url(#svg-1701540935_15826_b)" fill="none"><rect x="109" y="23" width="44" height="44" rx="10.963" fill="#D93D8D"></rect><path d="M140.808 38.366a.81.81 0 0 0-.625-.292h-16.429l-.498-2.736A1.628 1.628 0 0 0 121.653 34h-1.838a.813.813 0 0 0-.576 1.39.81.81 0 0 0 .576.24h1.833l2.603 14.287c.077.423.264.82.543 1.148a2.852 2.852 0 1 0 4.521.86h4.626a2.847 2.847 0 0 0 1.484 3.856 2.853 2.853 0 1 0 1.092-5.486h-9.862a.817.817 0 0 1-.801-.67l-.323-1.775h11.814a2.446 2.446 0 0 0 2.404-2.007l1.238-6.809a.814.814 0 0 0-.179-.668Zm-12.846 14.78a1.224 1.224 0 0 1-1.461 1.199 1.221 1.221 0 1 1 1.461-1.199Zm9.777 0a1.224 1.224 0 0 1-1.461 1.199 1.224 1.224 0 0 1-.96-.96 1.22 1.22 0 0 1 .52-1.255 1.221 1.221 0 0 1 1.901 1.016Zm.407-7.594a.815.815 0 0 1-.805.669h-12.106l-1.185-6.518h15.156l-1.06 5.849Z" fill="#FFFFFF"></path></g><path d="M22 235v-45.874c0-13.255 10.745-24 24-24h62.114a24.01 24.01 0 0 0 9.455-1.941L125 160m118 11v-45.874c0-13.255-10.745-24-24-24h-62.114a24.01 24.01 0 0 1-9.455-1.941L140 96" stroke="#D93D8D" stroke-width="2px" fill="none"></path><rect x="215" y="170" width="55" height="23" rx="11.5" fill="#FFDEE9"></rect><path d="M229.145 183.499v-6.825h2.165v9.652h-2.827l-3.337-5.874-.551-1.227v7.101h-2.165v-9.652h2.937l3.116 5.474.662 1.351Zm10.558-6.825v1.999h-4.012v1.972h3.764v2h-3.764v3.681h-2.179v-9.652h6.191Zm4.917 9.79c-2.33 0-3.833-.993-4.095-3.047l2.22-.566c.124 1.366.703 1.765 1.903 1.765 1.061 0 1.503-.317 1.503-.992 0-.607-.29-.814-1.228-.979l-1.751-.331c-1.42-.262-2.427-1.2-2.427-2.868 0-.869.331-1.572 1.007-2.11.662-.538 1.531-.8 2.62-.8 2.165 0 3.613.924 3.875 2.923l-2.083.566c-.124-1.283-.689-1.614-1.792-1.614-.924 0-1.393.318-1.393.966 0 .661.345.841 1.434 1.02l1.462.248c1.641.276 2.496 1.269 2.496 2.689 0 .951-.331 1.71-1.007 2.275-.676.566-1.599.855-2.744.855Zm5.128-3.282v-1.751h4.537v1.751h-4.537Zm12.82-.358c0 .276 0 .51-.013.717h-4.689c.125.938.566 1.324 1.448 1.324.662 0 .979-.207 1.31-.869l1.793.634c-.483 1.227-1.545 1.834-3.158 1.834-1.062 0-1.93-.331-2.578-.979-.662-.648-.993-1.489-.993-2.551 0-1.089.317-1.958.965-2.634.648-.675 1.489-1.006 2.537-1.006 1.007 0 1.834.317 2.455.965.62.648.923 1.503.923 2.565Zm-3.336-2c-.842 0-1.255.4-1.366 1.352h2.634c-.014-.979-.4-1.352-1.268-1.352ZM229.712 211h-1.792l-2.114-4.2h-1.904v4.2h-1.47v-9.8h3.878c.994 0 1.778.252 2.38.756.588.518.882 1.19.882 2.03 0 1.47-.98 2.52-2.548 2.758l.826.994 1.862 3.262Zm-3.346-8.484h-2.464v2.996h2.464c1.218 0 1.694-.434 1.694-1.512 0-1.064-.476-1.484-1.694-1.484Zm11.766 5.628c0 1.68-1.246 2.856-3.22 2.982l.042 1.834h-1.176l.056-1.862c-1.89-.21-2.954-1.232-3.206-3.08l1.526-.434c.112 1.47.658 2.072 1.708 2.24l.098-3.122-.574-.126c-.686-.126-1.162-.308-1.68-.7-.518-.392-.812-1.078-.812-1.988 0-1.554 1.162-2.646 2.94-2.8l-.056-1.806h1.176l-.042 1.806c1.904.182 3.01 1.274 3.08 3.108l-1.428.42c0-1.512-.574-2.128-1.694-2.254l-.084 3.038.784.154c1.638.336 2.562 1.008 2.562 2.59Zm-5.698-4.368c0 .966.392 1.232 1.512 1.456l-.084-2.884c-.952.098-1.428.574-1.428 1.428Zm2.352 3.094.084 2.982c1.19-.056 1.722-.504 1.722-1.498 0-.504-.112-.84-.322-.994-.21-.154-.672-.308-1.358-.462l-.126-.028Zm7.751-4.074 3.08-1.596h1.386v9.8h-1.47v-8.792l-2.24 1.89-.756-1.302Zm6.138 0 3.08-1.596h1.386v9.8h-1.47v-8.792l-2.24 1.89-.756-1.302Zm9.807-1.736c1.078 0 1.974.322 2.66.952.686.63 1.022 1.47 1.022 2.506 0 .868-.252 1.778-.77 2.73s-1.47 2.198-2.87 3.752h-2.156c.14-.126.392-.35.742-.672.35-.322.602-.532.728-.644.126-.112.322-.308.588-.574.574-.574.756-.798 1.274-1.442.238-.294.49-.616.742-.966-.742.742-1.582 1.106-2.548 1.106a2.912 2.912 0 0 1-2.198-.938c-.602-.616-.896-1.414-.896-2.38 0-1.022.35-1.862 1.036-2.492.686-.63 1.568-.938 2.646-.938Zm-1.652 5.026c.364.35.924.532 1.666.532.742 0 1.302-.182 1.666-.532.35-.35.532-.882.532-1.61 0-1.414-.728-2.114-2.198-2.114-1.498 0-2.212.672-2.212 2.114 0 .728.182 1.26.546 1.61Z" fill="#D93D8D"></path><g clip-path="url(#svg-1701540935_15826_c)" fill="none"><path fill-rule="evenodd" clip-rule="evenodd" d="M41.985 254a2 2 0 0 0 2-1.999l.014-34A2 2 0 0 0 42 216H2a2 2 0 0 0-2 2v34a2 2 0 0 0 2 2h39.985Z" fill="#EBCC89"></path><path d="M42 216h-8v38h8a2 2 0 0 0 2-2v-34a2 2 0 0 0-2-2Z" fill="#D8B05D"></path><path d="M11 241c-.397 3.033-1.892 5.338-3.709 5.561v3.625h1.774V251h-4.13v-.814h1.774v-3.625C4.892 246.338 3.397 244.033 3 241h5.77l.464 1.105-.523-.051.532 2.039-.178-1.722.414.017-.093-1.379h1.606L11 241Z" fill="#58595B"></path><path fill-rule="evenodd" clip-rule="evenodd" d="M14 216h5v7.671l-.795.182-.872-.632-1.277.779-.965-.762-1.091.658V216Zm24 0h2v7.671l-.32.182-.347-.632-.513.779-.387-.762-.433.658V216Z" fill="#A78B6B"></path><path d="m22 240 .674 2.073h2.18l-1.764 1.281.673 2.073L22 244.146l-1.763 1.281.673-2.073-1.763-1.281h2.18L22 240Zm6.5-4 .337 1.036h1.09l-.882.641.337 1.037-.882-.641-.882.641.337-1.037-.882-.641h1.09L28.5 236Zm0 11 .337 1.036h1.09l-.882.641.337 1.037-.882-.641-.882.641.337-1.037-.882-.641h1.09L28.5 247Zm2-3 .337 1.036h1.09l-.882.641.337 1.037-.882-.641-.882.641.337-1.037-.882-.641h1.09L30.5 244Zm0-4 .337 1.036h1.09l-.882.641.337 1.037-.882-.641-.882.641.337-1.037-.882-.641h1.09L30.5 240Z" fill="#58595B"></path></g><path fill-rule="evenodd" clip-rule="evenodd" d="m131 80.746-5.506 3.197c-1.47.853-2.01 2.786-1.204 4.302l6.519 12.251c.781 1.468 2.101 2.536 3.66 2.961l41.71 11.911c3.198.873 6.508-1.142 7.393-4.501l4.064-15.428c.885-3.359-.99-6.79-4.189-7.662L142.48 76.068a5.81 5.81 0 0 0-4.456.6L133 79.584v4.96a2.993 2.993 0 0 1 1.777 3.558 3.006 3.006 0 0 1-3.677 2.123 2.994 2.994 0 0 1-2.12-3.671 3.006 3.006 0 0 1 2.02-2.092v-3.717Z" fill="#FFDEE9"></path><path d="m146.928 97.898-1.724-.486-.887-4.615-1.833-.517-1.147 4.04-1.415-.399 2.678-9.427 3.732 1.054c.957.27 1.643.725 2.084 1.373.425.658.524 1.384.294 2.192-.401 1.415-1.631 2.158-3.206 1.961l.524 1.18.9 3.644Zm-.901-9.07-2.372-.669-.819 2.882 2.372.67c1.172.33 1.749.042 2.043-.995.291-1.023-.052-1.556-1.224-1.887Zm9.786 8.61c-.459 1.616-1.98 2.409-3.914 1.994l-.461 1.776-1.132-.32.563-1.776c-1.762-.715-2.506-1.987-2.244-3.833l1.587-.003c-.294 1.444.067 2.172 1.032 2.618l.948-2.976-.518-.277c-.626-.308-1.035-.612-1.426-1.13-.391-.518-.487-1.257-.238-2.133.425-1.495 1.841-2.23 3.595-1.894l.439-1.753 1.132.32-.534 1.725c1.783.692 2.549 2.043 2.115 3.826l-1.489.017c.413-1.455.029-2.203-1.014-2.629l-.912 2.9.713.36c1.484.769 2.19 1.666 1.758 3.188Zm-4.29-5.75c-.264.93.04 1.292 1.057 1.812l.707-2.797c-.943-.164-1.531.164-1.764.986Zm1.418 3.616-.735 2.891c1.161.27 1.795-.017 2.067-.973.138-.485.122-.839-.038-1.044-.16-.205-.563-.478-1.181-.813l-.113-.061Zm5.204-2.765 3.4-.698 1.334.376-2.678 9.427-1.415-.399 2.403-8.458-2.672 1.21-.372-1.458Zm9.984 6.018c1.315.648 2.038 1.739 1.667 3.045-.233.822-.74 1.377-1.525 1.679-.784.303-1.702.306-2.766.005-1.078-.304-1.872-.79-2.377-1.471-.509-.667-.645-1.418-.411-2.24.363-1.279 1.522-1.825 2.996-1.685-1.257-.646-1.713-1.603-1.407-2.68.44-1.55 2-2.171 3.954-1.62.97.274 1.686.723 2.149 1.348.449.622.57 1.325.351 2.093-.31 1.09-1.248 1.626-2.631 1.526Zm-.206-3.782c-1.213-.342-1.953-.042-2.225.914-.271.956.201 1.599 1.414 1.941 1.199.338 1.926.034 2.197-.922.272-.956-.187-1.595-1.386-1.933Zm-2.074 7.299c1.361.384 2.201.039 2.507-1.038.31-1.09-.224-1.823-1.598-2.211-1.388-.392-2.228-.047-2.538 1.044-.306 1.077.241 1.813 1.629 2.205Zm10.327-6.25c1.037.293 1.812.846 2.3 1.638.488.792.582 1.692.298 2.688-.237.835-.728 1.642-1.487 2.417-.759.775-2.015 1.715-3.787 2.83l-2.075-.586c.169-.083.473-.23.897-.445.425-.214.725-.348.877-.421.152-.074.394-.209.723-.393.709-.396.946-.562 1.62-1.041.309-.218.64-.459.978-.728-.917.513-1.825.635-2.754.372-.836-.235-1.452-.729-1.859-1.499-.411-.756-.476-1.603-.212-2.533.279-.983.846-1.696 1.678-2.115.832-.42 1.765-.477 2.803-.184Zm-2.964 4.386c.255.435.744.763 1.458.964.714.202 1.303.179 1.749-.059.433-.242.753-.704.952-1.404.387-1.36-.123-2.232-1.537-2.63-1.442-.408-2.313.045-2.707 1.432-.199.7-.169 1.261.085 1.697Z" fill="#D93D8D"></path><path d="M163.234 149.912c18.355 18.55 18.355 48.626 0 67.176-18.355 18.549-48.113 18.549-66.468 0-18.355-18.55-18.355-48.626 0-67.176 18.355-18.549 48.113-18.549 66.468 0Z" fill="url(&quot;#svg-1701540935_15826_d&quot;)"></path><path d="m170.743 164.741 1.354 2.339.004-.004-.616 1.354-.985 2.092-2.092-.369-.248-1.107-.737-2.213.369-1.598.121-1.354-2.83-1.844v-4.059l-2.708-1.97-1.107-3.567-1.354-1.598-.616-2.951-2.708-1.476-2.092.122 1.475 2.092-1.597.49 1.97.248 3.199 2.46-.985.248-.616 1.228-2.708-.247-1.845-2.461-4.428-2.461-2.092-2.708 3.69-.985.122-.985-1.598-.738-.616 1.107-1.845-.247v-1.845l-1.476-1.107-3.567-2.213s-1.845.859-2.461.859c-.617 0-1.354-.49-1.354-.49l-2.83-.248-2.214 1.354h-2.583l-1.844-1.475s-1.723-.616-2.092-.616-2.214.985-2.214.985l-2.583.121-.369 2.092-3.567.369-.86 1.476-3.446.247-.369 1.97-3.568 4.553h-2.092l.86-2.092-2.092-.247-.122-2.214 1.229-1.354.985-.369.247-3.32 2.339-.491 1.723-2.213-2.837-2.01A51.614 51.614 0 0 1 130.163 131c16.186 0 30.638 7.418 40.144 19.039l.314 2.649 1.476 1.97v1.229l-1.476.859-1.354.616 1.598.122-.122 1.228-2.214-.369.491 3.69 1.723 2.708Z" fill="url(&quot;#svg-1701540935_15826_e&quot;)"></path><path d="m159.302 215.672-3.937-1.602-4.796-1.723h-3.815l-3.568-.737-3.936.859-2.214.122h-1.354l-2.583 1.475-2.461.986-3.32-2.092.859-3.446-2.092-.86h-2.461l-.369-1.107.248-2.213-.86-1.228-1.723.247-.491 1.228-2.092.122-1.844-2.214-.738-2.951 1.845-3.446 3.567.247.985.86h1.476l1.845-1.107 1.597.491 2.214 3.814.86-.121-.248-2.83-.738-1.476.248-2.339 4.553-1.97.616-4.553 1.97-1.601 1.598-2.83 1.228-.247 2.83-1.844.122-.986-1.971.122-.368-.985h-1.355l-2.092.491.986-1.602 4.305-1.228.985-1.107 1.723 2.708 1.107 1.107 1.723-.491-.738-1.597-2.582-1.845-2.952-3.32-3.077-2.092-2.951-.49-1.476-1.476-1.971-.491-.247.491-.247 3.567.491 1.229-1.107 3.936-2.461-1.97.369-1.723-2.583-1.228-1.107-1.354.616-3.077 3.568-2.583.247-2.951-1.354.122-.859-1.107-.369-1.845-.86-.121-.49 1.97-1.354.247-.617-4.305-.985-.617-1.723-.737-1.97.985 2.461 2.339.49 2.092-4.427-3.321-3.077-3.32-.247-3.32-3.199-.985-2.461 1.597s-1.229.738-1.845.985c-.616.247-2.951.491-2.951.491l-.491 2.092-2.83.121.247 1.354 4.553.738 2.339 2.583v4.305l-1.354 3.815.248 4.058-3.446 6.028-.738 8.98 1.106 5.169 1.598 3.936 1.845.248-.617-1.971-.985-1.475-.616-2.708 1.107-.248 1.723 4.428 1.228 3.936v3.199l2.34 2.829 4.184 3.077 6.397 1.723 1.971 1.845 1.476 1.97 2.213 1.354 2.708.738 2.709-.122s-.122 1.229-.122 1.845c0 .616-1.723 2.708-1.723 2.708l-1.354 2.461.985 2.708 2.708 1.107 3.815 3.936 1.723.738v1.845l.216.859a51.64 51.64 0 0 0 25.803-12.147l.063-.891 3.32-6.028-1.597-1.107-6.767 1.845h-.004Z" fill="url(&quot;#svg-1701540935_15826_f&quot;)"></path><path d="m127.314 159.576 1.475 1.966 3.321 1.232.742 2.583-2.092.859v.495l3.689 1.476 1.723-.369.86-1.354-.244-2.339-2.217-.86-1.35-2.214-4.922-2.213-.985.738Z" fill="url(&quot;#svg-1701540935_15826_g&quot;)"></path><path d="M173.695 154.693v.699l-.616 1.97.369 1.723 1.354.491v2.339l-1.476-.616-.369 6.644-1.476 2.708.985 3.446 1.598 1.476v6.644l1.597 5.169 1.723 3.937 2.83.738.985-2.461.401-.314c.263-2.112.4-4.262.4-6.445a51.6 51.6 0 0 0-8.305-28.148Z" fill="url(&quot;#svg-1701540935_15826_h&quot;)"></path><path d="m137.157 150.349 8.117 3.567 1.354 2.214-1.228 2.092.243 4.921 1.111 2.092.122 1.845-5.17.859-3.198-4.058-.738-3.567-3.811-3.325-1.849-1.844-1.598 2.339-2.213-1.601.243-4.059 2.708-.616 1.476 1.602.864-2.34 3.567-.121Z" fill="url(&quot;#svg-1701540935_15826_i&quot;)"></path><path d="m151.919 156.62-1.845-.49-1.601 1.354.864 3.567h1.597l.985-4.431Z" fill="url(&quot;#svg-1701540935_15826_j&quot;)"></path><path d="m159.181 156.746 4.18 2.214-.122 1.966-3.199-1.229 1.107 1.845-.369.495-1.845-.738-.738-3.199-.863-2.461.985-.369.864 1.476Z" fill="url(&quot;#svg-1701540935_15826_k&quot;)"></path><path d="m127.435 203.372-.491.49 3.69 1.107 1.476 1.723 2.339.247.86-1.354-2.83-.491-5.044-1.722Z" fill="url(&quot;#svg-1701540935_15826_l&quot;)"></path><path d="m135.803 206.445 2.583-.738.491.863 1.11-.125-.616.985h-3.199l-.369-.985Z" fill="url(&quot;#svg-1701540935_15826_m&quot;)"></path><defs><linearGradient id="svg-1701540935_15826_a" x1="131.5" y1="0" x2="131.5" y2="65" gradientUnits="userSpaceOnUse"><stop stop-color="#D93D8D" stop-opacity=".44"></stop><stop offset="1" stop-color="#D93D8D" stop-opacity="0"></stop></linearGradient><linearGradient id="svg-1701540935_15826_d" x1="154.434" y1="228.171" x2="101.382" y2="139.909" gradientUnits="userSpaceOnUse"><stop stop-color="#DFF5FF"></stop><stop offset="1" stop-color="#fff"></stop></linearGradient><linearGradient id="svg-1701540935_15826_e" x1="141" y1="131" x2="141" y2="234" gradientUnits="userSpaceOnUse"><stop stop-color="#DDE6FF"></stop><stop offset="1" stop-color="#FFD6EB"></stop></linearGradient><linearGradient id="svg-1701540935_15826_f" x1="141" y1="131" x2="141" y2="234" gradientUnits="userSpaceOnUse"><stop stop-color="#DDE6FF"></stop><stop offset="1" stop-color="#FFD6EB"></stop></linearGradient><linearGradient id="svg-1701540935_15826_g" x1="141" y1="131" x2="141" y2="234" gradientUnits="userSpaceOnUse"><stop stop-color="#DDE6FF"></stop><stop offset="1" stop-color="#FFD6EB"></stop></linearGradient><linearGradient id="svg-1701540935_15826_h" x1="141" y1="131" x2="141" y2="234" gradientUnits="userSpaceOnUse"><stop stop-color="#DDE6FF"></stop><stop offset="1" stop-color="#FFD6EB"></stop></linearGradient><linearGradient id="svg-1701540935_15826_i" x1="141" y1="131" x2="141" y2="234" gradientUnits="userSpaceOnUse"><stop stop-color="#DDE6FF"></stop><stop offset="1" stop-color="#FFD6EB"></stop></linearGradient><linearGradient id="svg-1701540935_15826_j" x1="141" y1="131" x2="141" y2="234" gradientUnits="userSpaceOnUse"><stop stop-color="#DDE6FF"></stop><stop offset="1" stop-color="#FFD6EB"></stop></linearGradient><linearGradient id="svg-1701540935_15826_k" x1="141" y1="131" x2="141" y2="234" gradientUnits="userSpaceOnUse"><stop stop-color="#DDE6FF"></stop><stop offset="1" stop-color="#FFD6EB"></stop></linearGradient><linearGradient id="svg-1701540935_15826_l" x1="141" y1="131" x2="141" y2="234" gradientUnits="userSpaceOnUse"><stop stop-color="#DDE6FF"></stop><stop offset="1" stop-color="#FFD6EB"></stop></linearGradient><linearGradient id="svg-1701540935_15826_m" x1="141" y1="131" x2="141" y2="234" gradientUnits="userSpaceOnUse"><stop stop-color="#DDE6FF"></stop><stop offset="1" stop-color="#FFD6EB"></stop></linearGradient><clipPath id="svg-1701540935_15826_c"><path fill="#fff" transform="translate(0 216)" d="M0 0h44v38H0z"></path></clipPath><filter id="svg-1701540935_15826_b" x="109" y="23" width="44" height="44" filterUnits="userSpaceOnUse" color-interpolation-filters="sRGB"><feFlood flood-opacity="0" result="BackgroundImageFix"></feFlood><feBlend in="SourceGraphic" in2="BackgroundImageFix" result="shape"></feBlend><feColorMatrix in="SourceAlpha" values="0 0 0 0 0 0 0 0 0 0 0 0 0 0 0 0 0 0 127 0" result="hardAlpha"></feColorMatrix><feOffset dy="-2.741"></feOffset><feComposite in2="hardAlpha" operator="arithmetic" k2="-1" k3="1"></feComposite><feColorMatrix values="0 0 0 0 0.546582 0 0 0 0 0.107341 0 0 0 0 0.332593 0 0 0 1 0"></feColorMatrix><feBlend in2="shape" result="effect1_innerShadow_904_4892"></feBlend></filter><linearGradient id="svg-1701540935_15826_a" x1="131.5" y1="0" x2="131.5" y2="65" gradientUnits="userSpaceOnUse"><stop stop-color="#D93D8D" stop-opacity=".44"></stop><stop offset="1" stop-color="#D93D8D" stop-opacity="0"></stop></linearGradient><linearGradient id="svg-1701540935_15826_d" x1="154.434" y1="228.171" x2="101.382" y2="139.909" gradientUnits="userSpaceOnUse"><stop stop-color="#DFF5FF"></stop><stop offset="1" stop-color="#fff"></stop></linearGradient><linearGradient id="svg-1701540935_15826_e" x1="141" y1="131" x2="141" y2="234" gradientUnits="userSpaceOnUse"><stop stop-color="#DDE6FF"></stop><stop offset="1" stop-color="#FFD6EB"></stop></linearGradient><linearGradient id="svg-1701540935_15826_f" x1="141" y1="131" x2="141" y2="234" gradientUnits="userSpaceOnUse"><stop stop-color="#DDE6FF"></stop><stop offset="1" stop-color="#FFD6EB"></stop></linearGradient><linearGradient id="svg-1701540935_15826_g" x1="141" y1="131" x2="141" y2="234" gradientUnits="userSpaceOnUse"><stop stop-color="#DDE6FF"></stop><stop offset="1" stop-color="#FFD6EB"></stop></linearGradient><linearGradient id="svg-1701540935_15826_h" x1="141" y1="131" x2="141" y2="234" gradientUnits="userSpaceOnUse"><stop stop-color="#DDE6FF"></stop><stop offset="1" stop-color="#FFD6EB"></stop></linearGradient><linearGradient id="svg-1701540935_15826_i" x1="141" y1="131" x2="141" y2="234" gradientUnits="userSpaceOnUse"><stop stop-color="#DDE6FF"></stop><stop offset="1" stop-color="#FFD6EB"></stop></linearGradient><linearGradient id="svg-1701540935_15826_j" x1="141" y1="131" x2="141" y2="234" gradientUnits="userSpaceOnUse"><stop stop-color="#DDE6FF"></stop><stop offset="1" stop-color="#FFD6EB"></stop></linearGradient><linearGradient id="svg-1701540935_15826_k" x1="141" y1="131" x2="141" y2="234" gradientUnits="userSpaceOnUse"><stop stop-color="#DDE6FF"></stop><stop offset="1" stop-color="#FFD6EB"></stop></linearGradient><linearGradient id="svg-1701540935_15826_l" x1="141" y1="131" x2="141" y2="234" gradientUnits="userSpaceOnUse"><stop stop-color="#DDE6FF"></stop><stop offset="1" stop-color="#FFD6EB"></stop></linearGradient><linearGradient id="svg-1701540935_15826_m" x1="141" y1="131" x2="141" y2="234" gradientUnits="userSpaceOnUse"><stop stop-color="#DDE6FF"></stop><stop offset="1" stop-color="#FFD6EB"></stop></linearGradient></defs></svg></defs><g><path d="M132 187V19" stroke="#DFDFDF" stroke-width="2px" fill="none"></path><path d="m166.668 65-70.418-.141c-1.794 0-3.25-1.401-3.25-3.136l.061-52.676V3.123C93.072 1.4 94.538 0 96.332 0l70.418.141c1.794 0 3.25 1.414 3.25 3.136l-.072 58.6c0 1.735-1.456 3.123-3.26 3.123Z" fill="url(&quot;#svg-1701540935_15826_a&quot;)"></path><path d="M93 10V2.531C93.01 1.135 94.478 0 96.273 0l70.474.115C168.543.115 170 1.26 170 2.656v7.146" fill="#D93D8D"></path><path d="M98.495 7a1.5 1.5 0 1 1 .01-3 1.5 1.5 0 0 1-.01 3Zm0-2.384a.88.88 0 0 0 0 1.758.912.912 0 0 0 .626-.253.88.88 0 0 0-.616-1.505h-.01Zm5 2.384a1.5 1.5 0 1 1 .01-3 1.5 1.5 0 0 1-.01 3Zm0-2.384a.88.88 0 1 0 .001 1.76.88.88 0 0 0-.001-1.76Zm4 2.384a1.5 1.5 0 1 1 .01-3 1.5 1.5 0 0 1-.01 3Zm0-2.384a.88.88 0 1 0 .879.879.912.912 0 0 0-.253-.626.845.845 0 0 0-.626-.263v.01ZM159.429 19l-55.858-.074c-.316 0-.571-.21-.571-.463s.255-.463.571-.463l55.858.074c.316 0 .571.21.571.463s-.255.463-.571.463Zm-28.998 19-27.862-.033c-.315 0-.569-.22-.569-.483 0-.264.254-.484.569-.484l27.862.033c.315 0 .569.22.569.483 0 .264-.254.484-.569.484Zm-10.989-13-15.884-.022c-.309 0-.558-.222-.558-.49 0-.266.249-.488.558-.488l15.884.022c.309 0 .558.222.558.49 0 .266-.249.488-.558.488Zm39.985 0-35.854-.022c-.317 0-.573-.222-.573-.49 0-.266.256-.488.573-.488l35.854.022c.317 0 .573.222.573.49 0 .266-.256.488-.573.488Zm-24.003 7-31.848-.022c-.319 0-.576-.222-.576-.49 0-.266.257-.488.576-.488l31.848.022c.319 0 .576.222.576.49 0 .266-.257.488-.576.488Zm24.005 0-20.858-.022c-.316 0-.571-.222-.571-.49 0-.266.255-.488.571-.488l20.858.022c.316 0 .571.222.571.49 0 .266-.255.488-.571.488Z" fill="#FFFFFF"></path><g filter="url(#svg-1701540935_15826_b)" fill="none"><rect x="109" y="23" width="44" height="44" rx="10.963" fill="#D93D8D"></rect><path d="M140.808 38.366a.81.81 0 0 0-.625-.292h-16.429l-.498-2.736A1.628 1.628 0 0 0 121.653 34h-1.838a.813.813 0 0 0-.576 1.39.81.81 0 0 0 .576.24h1.833l2.603 14.287c.077.423.264.82.543 1.148a2.852 2.852 0 1 0 4.521.86h4.626a2.847 2.847 0 0 0 1.484 3.856 2.853 2.853 0 1 0 1.092-5.486h-9.862a.817.817 0 0 1-.801-.67l-.323-1.775h11.814a2.446 2.446 0 0 0 2.404-2.007l1.238-6.809a.814.814 0 0 0-.179-.668Zm-12.846 14.78a1.224 1.224 0 0 1-1.461 1.199 1.221 1.221 0 1 1 1.461-1.199Zm9.777 0a1.224 1.224 0 0 1-1.461 1.199 1.224 1.224 0 0 1-.96-.96 1.22 1.22 0 0 1 .52-1.255 1.221 1.221 0 0 1 1.901 1.016Zm.407-7.594a.815.815 0 0 1-.805.669h-12.106l-1.185-6.518h15.156l-1.06 5.849Z" fill="#FFFFFF"></path></g><path d="M22 235v-45.874c0-13.255 10.745-24 24-24h62.114a24.01 24.01 0 0 0 9.455-1.941L125 160m118 11v-45.874c0-13.255-10.745-24-24-24h-62.114a24.01 24.01 0 0 1-9.455-1.941L140 96" stroke="#D93D8D" stroke-width="2px" fill="none"></path><rect x="215" y="170" width="55" height="23" rx="11.5" fill="#FFDEE9"></rect><path d="M229.145 183.499v-6.825h2.165v9.652h-2.827l-3.337-5.874-.551-1.227v7.101h-2.165v-9.652h2.937l3.116 5.474.662 1.351Zm10.558-6.825v1.999h-4.012v1.972h3.764v2h-3.764v3.681h-2.179v-9.652h6.191Zm4.917 9.79c-2.33 0-3.833-.993-4.095-3.047l2.22-.566c.124 1.366.703 1.765 1.903 1.765 1.061 0 1.503-.317 1.503-.992 0-.607-.29-.814-1.228-.979l-1.751-.331c-1.42-.262-2.427-1.2-2.427-2.868 0-.869.331-1.572 1.007-2.11.662-.538 1.531-.8 2.62-.8 2.165 0 3.613.924 3.875 2.923l-2.083.566c-.124-1.283-.689-1.614-1.792-1.614-.924 0-1.393.318-1.393.966 0 .661.345.841 1.434 1.02l1.462.248c1.641.276 2.496 1.269 2.496 2.689 0 .951-.331 1.71-1.007 2.275-.676.566-1.599.855-2.744.855Zm5.128-3.282v-1.751h4.537v1.751h-4.537Zm12.82-.358c0 .276 0 .51-.013.717h-4.689c.125.938.566 1.324 1.448 1.324.662 0 .979-.207 1.31-.869l1.793.634c-.483 1.227-1.545 1.834-3.158 1.834-1.062 0-1.93-.331-2.578-.979-.662-.648-.993-1.489-.993-2.551 0-1.089.317-1.958.965-2.634.648-.675 1.489-1.006 2.537-1.006 1.007 0 1.834.317 2.455.965.62.648.923 1.503.923 2.565Zm-3.336-2c-.842 0-1.255.4-1.366 1.352h2.634c-.014-.979-.4-1.352-1.268-1.352ZM229.712 211h-1.792l-2.114-4.2h-1.904v4.2h-1.47v-9.8h3.878c.994 0 1.778.252 2.38.756.588.518.882 1.19.882 2.03 0 1.47-.98 2.52-2.548 2.758l.826.994 1.862 3.262Zm-3.346-8.484h-2.464v2.996h2.464c1.218 0 1.694-.434 1.694-1.512 0-1.064-.476-1.484-1.694-1.484Zm11.766 5.628c0 1.68-1.246 2.856-3.22 2.982l.042 1.834h-1.176l.056-1.862c-1.89-.21-2.954-1.232-3.206-3.08l1.526-.434c.112 1.47.658 2.072 1.708 2.24l.098-3.122-.574-.126c-.686-.126-1.162-.308-1.68-.7-.518-.392-.812-1.078-.812-1.988 0-1.554 1.162-2.646 2.94-2.8l-.056-1.806h1.176l-.042 1.806c1.904.182 3.01 1.274 3.08 3.108l-1.428.42c0-1.512-.574-2.128-1.694-2.254l-.084 3.038.784.154c1.638.336 2.562 1.008 2.562 2.59Zm-5.698-4.368c0 .966.392 1.232 1.512 1.456l-.084-2.884c-.952.098-1.428.574-1.428 1.428Zm2.352 3.094.084 2.982c1.19-.056 1.722-.504 1.722-1.498 0-.504-.112-.84-.322-.994-.21-.154-.672-.308-1.358-.462l-.126-.028Zm7.751-4.074 3.08-1.596h1.386v9.8h-1.47v-8.792l-2.24 1.89-.756-1.302Zm6.138 0 3.08-1.596h1.386v9.8h-1.47v-8.792l-2.24 1.89-.756-1.302Zm9.807-1.736c1.078 0 1.974.322 2.66.952.686.63 1.022 1.47 1.022 2.506 0 .868-.252 1.778-.77 2.73s-1.47 2.198-2.87 3.752h-2.156c.14-.126.392-.35.742-.672.35-.322.602-.532.728-.644.126-.112.322-.308.588-.574.574-.574.756-.798 1.274-1.442.238-.294.49-.616.742-.966-.742.742-1.582 1.106-2.548 1.106a2.912 2.912 0 0 1-2.198-.938c-.602-.616-.896-1.414-.896-2.38 0-1.022.35-1.862 1.036-2.492.686-.63 1.568-.938 2.646-.938Zm-1.652 5.026c.364.35.924.532 1.666.532.742 0 1.302-.182 1.666-.532.35-.35.532-.882.532-1.61 0-1.414-.728-2.114-2.198-2.114-1.498 0-2.212.672-2.212 2.114 0 .728.182 1.26.546 1.61Z" fill="#D93D8D"></path><g clip-path="url(#svg-1701540935_15826_c)" fill="none"><path fill-rule="evenodd" clip-rule="evenodd" d="M41.985 254a2 2 0 0 0 2-1.999l.014-34A2 2 0 0 0 42 216H2a2 2 0 0 0-2 2v34a2 2 0 0 0 2 2h39.985Z" fill="#EBCC89"></path><path d="M42 216h-8v38h8a2 2 0 0 0 2-2v-34a2 2 0 0 0-2-2Z" fill="#D8B05D"></path><path d="M11 241c-.397 3.033-1.892 5.338-3.709 5.561v3.625h1.774V251h-4.13v-.814h1.774v-3.625C4.892 246.338 3.397 244.033 3 241h5.77l.464 1.105-.523-.051.532 2.039-.178-1.722.414.017-.093-1.379h1.606L11 241Z" fill="#58595B"></path><path fill-rule="evenodd" clip-rule="evenodd" d="M14 216h5v7.671l-.795.182-.872-.632-1.277.779-.965-.762-1.091.658V216Zm24 0h2v7.671l-.32.182-.347-.632-.513.779-.387-.762-.433.658V216Z" fill="#A78B6B"></path><path d="m22 240 .674 2.073h2.18l-1.764 1.281.673 2.073L22 244.146l-1.763 1.281.673-2.073-1.763-1.281h2.18L22 240Zm6.5-4 .337 1.036h1.09l-.882.641.337 1.037-.882-.641-.882.641.337-1.037-.882-.641h1.09L28.5 236Zm0 11 .337 1.036h1.09l-.882.641.337 1.037-.882-.641-.882.641.337-1.037-.882-.641h1.09L28.5 247Zm2-3 .337 1.036h1.09l-.882.641.337 1.037-.882-.641-.882.641.337-1.037-.882-.641h1.09L30.5 244Zm0-4 .337 1.036h1.09l-.882.641.337 1.037-.882-.641-.882.641.337-1.037-.882-.641h1.09L30.5 240Z" fill="#58595B"></path></g><path fill-rule="evenodd" clip-rule="evenodd" d="m131 80.746-5.506 3.197c-1.47.853-2.01 2.786-1.204 4.302l6.519 12.251c.781 1.468 2.101 2.536 3.66 2.961l41.71 11.911c3.198.873 6.508-1.142 7.393-4.501l4.064-15.428c.885-3.359-.99-6.79-4.189-7.662L142.48 76.068a5.81 5.81 0 0 0-4.456.6L133 79.584v4.96a2.993 2.993 0 0 1 1.777 3.558 3.006 3.006 0 0 1-3.677 2.123 2.994 2.994 0 0 1-2.12-3.671 3.006 3.006 0 0 1 2.02-2.092v-3.717Z" fill="#FFDEE9"></path><path d="m146.928 97.898-1.724-.486-.887-4.615-1.833-.517-1.147 4.04-1.415-.399 2.678-9.427 3.732 1.054c.957.27 1.643.725 2.084 1.373.425.658.524 1.384.294 2.192-.401 1.415-1.631 2.158-3.206 1.961l.524 1.18.9 3.644Zm-.901-9.07-2.372-.669-.819 2.882 2.372.67c1.172.33 1.749.042 2.043-.995.291-1.023-.052-1.556-1.224-1.887Zm9.786 8.61c-.459 1.616-1.98 2.409-3.914 1.994l-.461 1.776-1.132-.32.563-1.776c-1.762-.715-2.506-1.987-2.244-3.833l1.587-.003c-.294 1.444.067 2.172 1.032 2.618l.948-2.976-.518-.277c-.626-.308-1.035-.612-1.426-1.13-.391-.518-.487-1.257-.238-2.133.425-1.495 1.841-2.23 3.595-1.894l.439-1.753 1.132.32-.534 1.725c1.783.692 2.549 2.043 2.115 3.826l-1.489.017c.413-1.455.029-2.203-1.014-2.629l-.912 2.9.713.36c1.484.769 2.19 1.666 1.758 3.188Zm-4.29-5.75c-.264.93.04 1.292 1.057 1.812l.707-2.797c-.943-.164-1.531.164-1.764.986Zm1.418 3.616-.735 2.891c1.161.27 1.795-.017 2.067-.973.138-.485.122-.839-.038-1.044-.16-.205-.563-.478-1.181-.813l-.113-.061Zm5.204-2.765 3.4-.698 1.334.376-2.678 9.427-1.415-.399 2.403-8.458-2.672 1.21-.372-1.458Zm9.984 6.018c1.315.648 2.038 1.739 1.667 3.045-.233.822-.74 1.377-1.525 1.679-.784.303-1.702.306-2.766.005-1.078-.304-1.872-.79-2.377-1.471-.509-.667-.645-1.418-.411-2.24.363-1.279 1.522-1.825 2.996-1.685-1.257-.646-1.713-1.603-1.407-2.68.44-1.55 2-2.171 3.954-1.62.97.274 1.686.723 2.149 1.348.449.622.57 1.325.351 2.093-.31 1.09-1.248 1.626-2.631 1.526Zm-.206-3.782c-1.213-.342-1.953-.042-2.225.914-.271.956.201 1.599 1.414 1.941 1.199.338 1.926.034 2.197-.922.272-.956-.187-1.595-1.386-1.933Zm-2.074 7.299c1.361.384 2.201.039 2.507-1.038.31-1.09-.224-1.823-1.598-2.211-1.388-.392-2.228-.047-2.538 1.044-.306 1.077.241 1.813 1.629 2.205Zm10.327-6.25c1.037.293 1.812.846 2.3 1.638.488.792.582 1.692.298 2.688-.237.835-.728 1.642-1.487 2.417-.759.775-2.015 1.715-3.787 2.83l-2.075-.586c.169-.083.473-.23.897-.445.425-.214.725-.348.877-.421.152-.074.394-.209.723-.393.709-.396.946-.562 1.62-1.041.309-.218.64-.459.978-.728-.917.513-1.825.635-2.754.372-.836-.235-1.452-.729-1.859-1.499-.411-.756-.476-1.603-.212-2.533.279-.983.846-1.696 1.678-2.115.832-.42 1.765-.477 2.803-.184Zm-2.964 4.386c.255.435.744.763 1.458.964.714.202 1.303.179 1.749-.059.433-.242.753-.704.952-1.404.387-1.36-.123-2.232-1.537-2.63-1.442-.408-2.313.045-2.707 1.432-.199.7-.169 1.261.085 1.697Z" fill="#D93D8D"></path><path d="M163.234 149.912c18.355 18.55 18.355 48.626 0 67.176-18.355 18.549-48.113 18.549-66.468 0-18.355-18.55-18.355-48.626 0-67.176 18.355-18.549 48.113-18.549 66.468 0Z" fill="url(&quot;#svg-1701540935_15826_d&quot;)"></path><path d="m170.743 164.741 1.354 2.339.004-.004-.616 1.354-.985 2.092-2.092-.369-.248-1.107-.737-2.213.369-1.598.121-1.354-2.83-1.844v-4.059l-2.708-1.97-1.107-3.567-1.354-1.598-.616-2.951-2.708-1.476-2.092.122 1.475 2.092-1.597.49 1.97.248 3.199 2.46-.985.248-.616 1.228-2.708-.247-1.845-2.461-4.428-2.461-2.092-2.708 3.69-.985.122-.985-1.598-.738-.616 1.107-1.845-.247v-1.845l-1.476-1.107-3.567-2.213s-1.845.859-2.461.859c-.617 0-1.354-.49-1.354-.49l-2.83-.248-2.214 1.354h-2.583l-1.844-1.475s-1.723-.616-2.092-.616-2.214.985-2.214.985l-2.583.121-.369 2.092-3.567.369-.86 1.476-3.446.247-.369 1.97-3.568 4.553h-2.092l.86-2.092-2.092-.247-.122-2.214 1.229-1.354.985-.369.247-3.32 2.339-.491 1.723-2.213-2.837-2.01A51.614 51.614 0 0 1 130.163 131c16.186 0 30.638 7.418 40.144 19.039l.314 2.649 1.476 1.97v1.229l-1.476.859-1.354.616 1.598.122-.122 1.228-2.214-.369.491 3.69 1.723 2.708Z" fill="url(&quot;#svg-1701540935_15826_e&quot;)"></path><path d="m159.302 215.672-3.937-1.602-4.796-1.723h-3.815l-3.568-.737-3.936.859-2.214.122h-1.354l-2.583 1.475-2.461.986-3.32-2.092.859-3.446-2.092-.86h-2.461l-.369-1.107.248-2.213-.86-1.228-1.723.247-.491 1.228-2.092.122-1.844-2.214-.738-2.951 1.845-3.446 3.567.247.985.86h1.476l1.845-1.107 1.597.491 2.214 3.814.86-.121-.248-2.83-.738-1.476.248-2.339 4.553-1.97.616-4.553 1.97-1.601 1.598-2.83 1.228-.247 2.83-1.844.122-.986-1.971.122-.368-.985h-1.355l-2.092.491.986-1.602 4.305-1.228.985-1.107 1.723 2.708 1.107 1.107 1.723-.491-.738-1.597-2.582-1.845-2.952-3.32-3.077-2.092-2.951-.49-1.476-1.476-1.971-.491-.247.491-.247 3.567.491 1.229-1.107 3.936-2.461-1.97.369-1.723-2.583-1.228-1.107-1.354.616-3.077 3.568-2.583.247-2.951-1.354.122-.859-1.107-.369-1.845-.86-.121-.49 1.97-1.354.247-.617-4.305-.985-.617-1.723-.737-1.97.985 2.461 2.339.49 2.092-4.427-3.321-3.077-3.32-.247-3.32-3.199-.985-2.461 1.597s-1.229.738-1.845.985c-.616.247-2.951.491-2.951.491l-.491 2.092-2.83.121.247 1.354 4.553.738 2.339 2.583v4.305l-1.354 3.815.248 4.058-3.446 6.028-.738 8.98 1.106 5.169 1.598 3.936 1.845.248-.617-1.971-.985-1.475-.616-2.708 1.107-.248 1.723 4.428 1.228 3.936v3.199l2.34 2.829 4.184 3.077 6.397 1.723 1.971 1.845 1.476 1.97 2.213 1.354 2.708.738 2.709-.122s-.122 1.229-.122 1.845c0 .616-1.723 2.708-1.723 2.708l-1.354 2.461.985 2.708 2.708 1.107 3.815 3.936 1.723.738v1.845l.216.859a51.64 51.64 0 0 0 25.803-12.147l.063-.891 3.32-6.028-1.597-1.107-6.767 1.845h-.004Z" fill="url(&quot;#svg-1701540935_15826_f&quot;)"></path><path d="m127.314 159.576 1.475 1.966 3.321 1.232.742 2.583-2.092.859v.495l3.689 1.476 1.723-.369.86-1.354-.244-2.339-2.217-.86-1.35-2.214-4.922-2.213-.985.738Z" fill="url(&quot;#svg-1701540935_15826_g&quot;)"></path><path d="M173.695 154.693v.699l-.616 1.97.369 1.723 1.354.491v2.339l-1.476-.616-.369 6.644-1.476 2.708.985 3.446 1.598 1.476v6.644l1.597 5.169 1.723 3.937 2.83.738.985-2.461.401-.314c.263-2.112.4-4.262.4-6.445a51.6 51.6 0 0 0-8.305-28.148Z" fill="url(&quot;#svg-1701540935_15826_h&quot;)"></path><path d="m137.157 150.349 8.117 3.567 1.354 2.214-1.228 2.092.243 4.921 1.111 2.092.122 1.845-5.17.859-3.198-4.058-.738-3.567-3.811-3.325-1.849-1.844-1.598 2.339-2.213-1.601.243-4.059 2.708-.616 1.476 1.602.864-2.34 3.567-.121Z" fill="url(&quot;#svg-1701540935_15826_i&quot;)"></path><path d="m151.919 156.62-1.845-.49-1.601 1.354.864 3.567h1.597l.985-4.431Z" fill="url(&quot;#svg-1701540935_15826_j&quot;)"></path><path d="m159.181 156.746 4.18 2.214-.122 1.966-3.199-1.229 1.107 1.845-.369.495-1.845-.738-.738-3.199-.863-2.461.985-.369.864 1.476Z" fill="url(&quot;#svg-1701540935_15826_k&quot;)"></path><path d="m127.435 203.372-.491.49 3.69 1.107 1.476 1.723 2.339.247.86-1.354-2.83-.491-5.044-1.722Z" fill="url(&quot;#svg-1701540935_15826_l&quot;)"></path><path d="m135.803 206.445 2.583-.738.491.863 1.11-.125-.616.985h-3.199l-.369-.985Z" fill="url(&quot;#svg-1701540935_15826_m&quot;)"></path><defs><lineargradient id="svg-1701540935_15826_a" x1="131.5" y1="0" x2="131.5" y2="65" gradientunits="userSpaceOnUse"><stop stop-color="#D93D8D" stop-opacity=".44"></stop><stop offset="1" stop-color="#D93D8D" stop-opacity="0"></stop></lineargradient><lineargradient id="svg-1701540935_15826_d" x1="154.434" y1="228.171" x2="101.382" y2="139.909" gradientunits="userSpaceOnUse"><stop stop-color="#DFF5FF"></stop><stop offset="1" stop-color="#fff"></stop></lineargradient><lineargradient id="svg-1701540935_15826_e" x1="141" y1="131" x2="141" y2="234" gradientunits="userSpaceOnUse"><stop stop-color="#DDE6FF"></stop><stop offset="1" stop-color="#FFD6EB"></stop></lineargradient><lineargradient id="svg-1701540935_15826_f" x1="141" y1="131" x2="141" y2="234" gradientunits="userSpaceOnUse"><stop stop-color="#DDE6FF"></stop><stop offset="1" stop-color="#FFD6EB"></stop></lineargradient><lineargradient id="svg-1701540935_15826_g" x1="141" y1="131" x2="141" y2="234" gradientunits="userSpaceOnUse"><stop stop-color="#DDE6FF"></stop><stop offset="1" stop-color="#FFD6EB"></stop></lineargradient><lineargradient id="svg-1701540935_15826_h" x1="141" y1="131" x2="141" y2="234" gradientunits="userSpaceOnUse"><stop stop-color="#DDE6FF"></stop><stop offset="1" stop-color="#FFD6EB"></stop></lineargradient><lineargradient id="svg-1701540935_15826_i" x1="141" y1="131" x2="141" y2="234" gradientunits="userSpaceOnUse"><stop stop-color="#DDE6FF"></stop><stop offset="1" stop-color="#FFD6EB"></stop></lineargradient><lineargradient id="svg-1701540935_15826_j" x1="141" y1="131" x2="141" y2="234" gradientunits="userSpaceOnUse"><stop stop-color="#DDE6FF"></stop><stop offset="1" stop-color="#FFD6EB"></stop></lineargradient><lineargradient id="svg-1701540935_15826_k" x1="141" y1="131" x2="141" y2="234" gradientunits="userSpaceOnUse"><stop stop-color="#DDE6FF"></stop><stop offset="1" stop-color="#FFD6EB"></stop></lineargradient><lineargradient id="svg-1701540935_15826_l" x1="141" y1="131" x2="141" y2="234" gradientunits="userSpaceOnUse"><stop stop-color="#DDE6FF"></stop><stop offset="1" stop-color="#FFD6EB"></stop></lineargradient><lineargradient id="svg-1701540935_15826_m" x1="141" y1="131" x2="141" y2="234" gradientunits="userSpaceOnUse"><stop stop-color="#DDE6FF"></stop><stop offset="1" stop-color="#FFD6EB"></stop></lineargradient><clippath id="svg-1701540935_15826_c"><path fill="#fff" transform="translate(0 216)" d="M0 0h44v38H0z"></path></clippath><filter id="svg-1701540935_15826_b" x="109" y="23" width="44" height="44" filterunits="userSpaceOnUse" color-interpolation-filters="sRGB"><feflood flood-opacity="0" result="BackgroundImageFix"></feflood><feblend in="SourceGraphic" in2="BackgroundImageFix" result="shape"></feblend><fecolormatrix in="SourceAlpha" values="0 0 0 0 0 0 0 0 0 0 0 0 0 0 0 0 0 0 127 0" result="hardAlpha"></fecolormatrix><feoffset dy="-2.741"></feoffset><fecomposite in2="hardAlpha" operator="arithmetic" k2="-1" k3="1"></fecomposite><fecolormatrix values="0 0 0 0 0.546582 0 0 0 0 0.107341 0 0 0 0 0.332593 0 0 0 1 0"></fecolormatrix><feblend in2="shape" result="effect1_innerShadow_904_4892"></feblend></filter><lineargradient id="svg-1701540935_15826_a" x1="131.5" y1="0" x2="131.5" y2="65" gradientunits="userSpaceOnUse"><stop stop-color="#D93D8D" stop-opacity=".44"></stop><stop offset="1" stop-color="#D93D8D" stop-opacity="0"></stop></lineargradient><lineargradient id="svg-1701540935_15826_d" x1="154.434" y1="228.171" x2="101.382" y2="139.909" gradientunits="userSpaceOnUse"><stop stop-color="#DFF5FF"></stop><stop offset="1" stop-color="#fff"></stop></lineargradient><lineargradient id="svg-1701540935_15826_e" x1="141" y1="131" x2="141" y2="234" gradientunits="userSpaceOnUse"><stop stop-color="#DDE6FF"></stop><stop offset="1" stop-color="#FFD6EB"></stop></lineargradient><lineargradient id="svg-1701540935_15826_f" x1="141" y1="131" x2="141" y2="234" gradientunits="userSpaceOnUse"><stop stop-color="#DDE6FF"></stop><stop offset="1" stop-color="#FFD6EB"></stop></lineargradient><lineargradient id="svg-1701540935_15826_g" x1="141" y1="131" x2="141" y2="234" gradientunits="userSpaceOnUse"><stop stop-color="#DDE6FF"></stop><stop offset="1" stop-color="#FFD6EB"></stop></lineargradient><lineargradient id="svg-1701540935_15826_h" x1="141" y1="131" x2="141" y2="234" gradientunits="userSpaceOnUse"><stop stop-color="#DDE6FF"></stop><stop offset="1" stop-color="#FFD6EB"></stop></lineargradient><lineargradient id="svg-1701540935_15826_i" x1="141" y1="131" x2="141" y2="234" gradientunits="userSpaceOnUse"><stop stop-color="#DDE6FF"></stop><stop offset="1" stop-color="#FFD6EB"></stop></lineargradient><lineargradient id="svg-1701540935_15826_j" x1="141" y1="131" x2="141" y2="234" gradientunits="userSpaceOnUse"><stop stop-color="#DDE6FF"></stop><stop offset="1" stop-color="#FFD6EB"></stop></lineargradient><lineargradient id="svg-1701540935_15826_k" x1="141" y1="131" x2="141" y2="234" gradientunits="userSpaceOnUse"><stop stop-color="#DDE6FF"></stop><stop offset="1" stop-color="#FFD6EB"></stop></lineargradient><lineargradient id="svg-1701540935_15826_l" x1="141" y1="131" x2="141" y2="234" gradientunits="userSpaceOnUse"><stop stop-color="#DDE6FF"></stop><stop offset="1" stop-color="#FFD6EB"></stop></lineargradient><lineargradient id="svg-1701540935_15826_m" x1="141" y1="131" x2="141" y2="234" gradientunits="userSpaceOnUse"><stop stop-color="#DDE6FF"></stop><stop offset="1" stop-color="#FFD6EB"></stop></lineargradient></defs></g></svg>