<svg xmlns:xlink="http://www.w3.org/1999/xlink" xmlns="http://www.w3.org/2000/svg" style="width:100%;height:100%" viewBox="0 0 247 158" preserveAspectRatio="none" width="247" height="158"><defs><svg width="247" height="158" fill="none" id="svg1056874163_12199"><path d="M33.593 8s124.539.312 202.396.04C241.529 8.02 246 12.504 246 18.044V39.67c0 5.523-4.477 10-10 10H11c-5.523 0-10 4.478-10 10v21.672c0 5.53 4.49 10.011 10.02 10l103.058-.206c5.531-.01 10.02 4.47 10.02 10V158" stroke="url(&quot;#svg1056874163_12199_a&quot;)" stroke-dasharray="2 2" fill="none"></path><rect x="19" y="42" width="37" height="16" rx="8" fill="#ABE5FF"></rect><path d="m27.295 51.66-1.56.696h4.332V54h-6.216v-1.488l2.364-1.704c1.2-.864 1.932-1.608 1.932-2.508 0-.768-.396-1.152-1.2-1.152-1.188 0-1.5.756-1.104 2.352l-2.028-.216c-.216-1.188-.024-2.112.564-2.796.588-.672 1.44-1.008 2.556-1.008.948 0 1.716.252 2.304.744.576.492.864 1.152.864 1.956 0 .828-.228 1.512-.672 2.028-.444.528-1.164 1.008-2.136 1.452Zm7.296-6.18c1.068 0 1.908.384 2.544 1.14.636.756.948 1.824.948 3.18s-.312 2.424-.948 3.18c-.636.756-1.476 1.14-2.544 1.14-1.056 0-1.896-.384-2.52-1.14-.636-.756-.948-1.824-.948-3.18s.312-2.424.948-3.18c.624-.756 1.464-1.14 2.52-1.14Zm0 6.96c.636 0 1.056-.18 1.26-.528.204-.348.312-1.056.312-2.112s-.108-1.764-.312-2.112c-.204-.348-.624-.528-1.26-.528-.612 0-1.032.18-1.236.528-.204.348-.312 1.056-.312 2.112s.108 1.764.312 2.112c.204.348.624.528 1.236.528Zm8.009-.78-1.56.696h4.332V54h-6.216v-1.488l2.364-1.704c1.2-.864 1.932-1.608 1.932-2.508 0-.768-.396-1.152-1.2-1.152-1.188 0-1.5.756-1.104 2.352l-2.028-.216c-.216-1.188-.024-2.112.564-2.796.588-.672 1.44-1.008 2.556-1.008.948 0 1.716.252 2.304.744.576.492.864 1.152.864 1.956 0 .828-.228 1.512-.672 2.028-.444.528-1.164 1.008-2.136 1.452Zm3.672-4.608 2.784-1.452h1.776V54h-1.884v-7.092l-1.68 1.836-.996-1.692Z" fill="#FFFFFF"></path><rect x="18" y="84" width="39" height="16" rx="8" fill="#D93D8D"></rect><path d="m26.44 93.66-1.56.696h4.332V96h-6.216v-1.488l2.364-1.704c1.2-.864 1.932-1.608 1.932-2.508 0-.768-.396-1.152-1.2-1.152-1.188 0-1.5.756-1.104 2.352l-2.028-.216c-.216-1.188-.024-2.112.564-2.796.588-.672 1.44-1.008 2.556-1.008.948 0 1.716.252 2.304.744.576.492.864 1.152.864 1.956 0 .828-.228 1.512-.672 2.028-.444.528-1.164 1.008-2.136 1.452Zm7.296-6.18c1.068 0 1.908.384 2.544 1.14.636.756.948 1.824.948 3.18s-.312 2.424-.948 3.18c-.636.756-1.476 1.14-2.544 1.14-1.056 0-1.896-.384-2.52-1.14-.636-.756-.948-1.824-.948-3.18s.312-2.424.948-3.18c.624-.756 1.464-1.14 2.52-1.14Zm0 6.96c.636 0 1.056-.18 1.26-.528.204-.348.312-1.056.312-2.112s-.108-1.764-.312-2.112c-.204-.348-.624-.528-1.26-.528-.612 0-1.032.18-1.236.528-.204.348-.312 1.056-.312 2.112s.108 1.764.312 2.112c.204.348.624.528 1.236.528Zm8.008-.78-1.56.696h4.332V96H38.3v-1.488l2.364-1.704c1.2-.864 1.932-1.608 1.932-2.508 0-.768-.396-1.152-1.2-1.152-1.188 0-1.5.756-1.104 2.352l-2.028-.216c-.216-1.188-.024-2.112.564-2.796.588-.672 1.44-1.008 2.556-1.008.948 0 1.716.252 2.304.744.576.492.864 1.152.864 1.956 0 .828-.228 1.512-.672 2.028-.444.528-1.164 1.008-2.136 1.452Zm7.5 0-1.56.696h4.332V96H45.8v-1.488l2.364-1.704c1.2-.864 1.932-1.608 1.932-2.508 0-.768-.396-1.152-1.2-1.152-1.188 0-1.5.756-1.104 2.352l-2.028-.216c-.216-1.188-.024-2.112.564-2.796.588-.672 1.44-1.008 2.556-1.008.948 0 1.716.252 2.304.744.576.492.864 1.152.864 1.956 0 .828-.228 1.512-.672 2.028-.444.528-1.164 1.008-2.136 1.452Z" fill="#FFFFFF"></path><rect x="191" y="42" width="37" height="16" rx="8" fill="#ABE5FF"></rect><path d="m199.588 51.66-1.56.696h4.332V54h-6.216v-1.488l2.364-1.704c1.2-.864 1.932-1.608 1.932-2.508 0-.768-.396-1.152-1.2-1.152-1.188 0-1.5.756-1.104 2.352l-2.028-.216c-.216-1.188-.024-2.112.564-2.796.588-.672 1.44-1.008 2.556-1.008.948 0 1.716.252 2.304.744.576.492.864 1.152.864 1.956 0 .828-.228 1.512-.672 2.028-.444.528-1.164 1.008-2.136 1.452Zm7.296-6.18c1.068 0 1.908.384 2.544 1.14.636.756.948 1.824.948 3.18s-.312 2.424-.948 3.18c-.636.756-1.476 1.14-2.544 1.14-1.056 0-1.896-.384-2.52-1.14-.636-.756-.948-1.824-.948-3.18s.312-2.424.948-3.18c.624-.756 1.464-1.14 2.52-1.14Zm0 6.96c.636 0 1.056-.18 1.26-.528.204-.348.312-1.056.312-2.112s-.108-1.764-.312-2.112c-.204-.348-.624-.528-1.26-.528-.612 0-1.032.18-1.236.528-.204.348-.312 1.056-.312 2.112s.108 1.764.312 2.112c.204.348.624.528 1.236.528Zm3.818-5.388 2.784-1.452h1.776V54h-1.884v-7.092l-1.68 1.836-.996-1.692Zm9.077-1.572c.948 0 1.728.276 2.364.84.624.564.936 1.308.936 2.22 0 .756-.204 1.512-.612 2.292-.408.78-1.2 1.836-2.364 3.168h-2.784c.3-.276.696-.624 1.212-1.044.504-.42.936-.804 1.284-1.152.348-.348.744-.792 1.2-1.344-.6.564-1.26.84-1.98.84a2.51 2.51 0 0 1-1.848-.768c-.516-.516-.78-1.176-.78-1.992 0-.912.324-1.656.972-2.22.648-.564 1.452-.84 2.4-.84Zm-.012 4.404c.948 0 1.416-.456 1.416-1.368 0-.9-.468-1.344-1.416-1.344s-1.428.444-1.428 1.344c0 .924.456 1.368 1.428 1.368Z" fill="#FFFFFF"></path><rect x="19" width="37" height="16" rx="8" fill="#FFEEF6"></rect><path d="m27.588 9.66-1.56.696h4.332V12h-6.216v-1.488l2.364-1.704c1.2-.864 1.932-1.608 1.932-2.508 0-.768-.396-1.152-1.2-1.152-1.188 0-1.5.756-1.104 2.352l-2.028-.216c-.216-1.188-.024-2.112.564-2.796.588-.672 1.44-1.008 2.556-1.008.948 0 1.716.252 2.304.744.576.492.864 1.152.864 1.956 0 .828-.228 1.512-.672 2.028-.444.528-1.164 1.008-2.136 1.452Zm7.296-6.18c1.068 0 1.908.384 2.544 1.14.636.756.948 1.824.948 3.18s-.312 2.424-.948 3.18c-.636.756-1.476 1.14-2.544 1.14-1.056 0-1.896-.384-2.52-1.14-.636-.756-.948-1.824-.948-3.18s.312-2.424.948-3.18c.624-.756 1.464-1.14 2.52-1.14Zm0 6.96c.636 0 1.056-.18 1.26-.528.204-.348.312-1.056.312-2.112s-.108-1.764-.312-2.112c-.204-.348-.624-.528-1.26-.528-.612 0-1.032.18-1.236.528-.204.348-.312 1.056-.312 2.112s.108 1.764.312 2.112c.204.348.624.528 1.236.528Zm3.818-5.388L41.486 3.6h1.776V12h-1.885V4.908l-1.68 1.836-.995-1.692ZM46.71 7.14c.6-.564 1.26-.84 1.98-.84s1.344.252 1.86.768.768 1.176.768 1.992c0 .912-.324 1.644-.972 2.208-.648.564-1.452.852-2.4.852s-1.728-.288-2.352-.852c-.636-.564-.948-1.296-.948-2.208 0-.756.204-1.524.612-2.304.408-.78 1.2-1.824 2.364-3.156h2.784c-.3.276-.696.624-1.2 1.044-.516.42-.936.804-1.284 1.152-.348.348-.756.792-1.212 1.344Zm1.248 3.288c.948 0 1.428-.444 1.428-1.344 0-.924-.456-1.368-1.428-1.368-.948 0-1.416.456-1.416 1.368 0 .9.468 1.344 1.416 1.344Z" fill="#FFFFFF"></path><rect x="104" y="42" width="39" height="16" rx="8" fill="#FFA4D3"></rect><path d="m112.287 51.66-1.56.696h4.332V54h-6.216v-1.488l2.364-1.704c1.2-.864 1.932-1.608 1.932-2.508 0-.768-.396-1.152-1.2-1.152-1.188 0-1.5.756-1.104 2.352l-2.028-.216c-.216-1.188-.024-2.112.564-2.796.588-.672 1.44-1.008 2.556-1.008.948 0 1.716.252 2.304.744.576.492.864 1.152.864 1.956 0 .828-.228 1.512-.672 2.028-.444.528-1.164 1.008-2.136 1.452Zm7.296-6.18c1.068 0 1.908.384 2.544 1.14.636.756.948 1.824.948 3.18s-.312 2.424-.948 3.18c-.636.756-1.476 1.14-2.544 1.14-1.056 0-1.896-.384-2.52-1.14-.636-.756-.948-1.824-.948-3.18s.312-2.424.948-3.18c.624-.756 1.464-1.14 2.52-1.14Zm0 6.96c.636 0 1.056-.18 1.26-.528.204-.348.312-1.056.312-2.112s-.108-1.764-.312-2.112c-.204-.348-.624-.528-1.26-.528-.612 0-1.032.18-1.236.528-.204.348-.312 1.056-.312 2.112s.108 1.764.312 2.112c.204.348.624.528 1.236.528Zm8.009-.78-1.56.696h4.332V54h-6.216v-1.488l2.364-1.704c1.2-.864 1.932-1.608 1.932-2.508 0-.768-.396-1.152-1.2-1.152-1.188 0-1.5.756-1.104 2.352l-2.028-.216c-.216-1.188-.024-2.112.564-2.796.588-.672 1.44-1.008 2.556-1.008.948 0 1.716.252 2.304.744.576.492.864 1.152.864 1.956 0 .828-.228 1.512-.672 2.028-.444.528-1.164 1.008-2.136 1.452Zm7.296-6.18c1.068 0 1.908.384 2.544 1.14.636.756.948 1.824.948 3.18s-.312 2.424-.948 3.18c-.636.756-1.476 1.14-2.544 1.14-1.056 0-1.896-.384-2.52-1.14-.636-.756-.948-1.824-.948-3.18s.312-2.424.948-3.18c.624-.756 1.464-1.14 2.52-1.14Zm0 6.96c.636 0 1.056-.18 1.26-.528.204-.348.312-1.056.312-2.112s-.108-1.764-.312-2.112c-.204-.348-.624-.528-1.26-.528-.612 0-1.032.18-1.236.528-.204.348-.312 1.056-.312 2.112s.108 1.764.312 2.112c.204.348.624.528 1.236.528Z" fill="#FFFFFF"></path><rect x="104" y="84" width="39" height="16" rx="8" fill="#5FC2EE"></rect><path d="m112.522 93.66-1.56.696h4.332V96h-6.216v-1.488l2.364-1.704c1.2-.864 1.932-1.608 1.932-2.508 0-.768-.396-1.152-1.2-1.152-1.188 0-1.5.756-1.104 2.352l-2.028-.216c-.216-1.188-.024-2.112.564-2.796.588-.672 1.44-1.008 2.556-1.008.948 0 1.716.252 2.304.744.576.492.864 1.152.864 1.956 0 .828-.228 1.512-.672 2.028-.444.528-1.164 1.008-2.136 1.452Zm7.296-6.18c1.068 0 1.908.384 2.544 1.14.636.756.948 1.824.948 3.18s-.312 2.424-.948 3.18c-.636.756-1.476 1.14-2.544 1.14-1.056 0-1.896-.384-2.52-1.14-.636-.756-.948-1.824-.948-3.18s.312-2.424.948-3.18c.624-.756 1.464-1.14 2.52-1.14Zm0 6.96c.636 0 1.056-.18 1.26-.528.204-.348.312-1.056.312-2.112s-.108-1.764-.312-2.112c-.204-.348-.624-.528-1.26-.528-.612 0-1.032.18-1.236.528-.204.348-.312 1.056-.312 2.112s.108 1.764.312 2.112c.204.348.624.528 1.236.528Zm8.008-.78-1.56.696h4.332V96h-6.216v-1.488l2.364-1.704c1.2-.864 1.932-1.608 1.932-2.508 0-.768-.396-1.152-1.2-1.152-1.188 0-1.5.756-1.104 2.352l-2.028-.216c-.216-1.188-.024-2.112.564-2.796.588-.672 1.44-1.008 2.556-1.008.948 0 1.716.252 2.304.744.576.492.864 1.152.864 1.956 0 .828-.228 1.512-.672 2.028-.444.528-1.164 1.008-2.136 1.452Zm8.4-1.992c1.26.276 1.992 1.02 1.992 2.04 0 .684-.288 1.26-.864 1.716-.588.468-1.392.696-2.436.696-2.16 0-3.372-1.056-3.408-2.736l2.004-.228c0 .888.492 1.332 1.464 1.332.852 0 1.38-.36 1.38-1.032 0-.66-.528-.972-1.584-.948l-.972.024v-1.596l1.008.024c.888.024 1.332-.276 1.332-.912 0-.624-.396-.936-1.188-.936-.828 0-1.26.432-1.284 1.308l-2.004-.24c.036-1.644 1.212-2.7 3.228-2.7.972 0 1.728.216 2.28.648.552.432.828.972.828 1.632 0 .96-.588 1.596-1.776 1.908Z" fill="#FFFFFF"></path><rect x="106" width="35" height="16" rx="8" fill="#EAF9FF"></rect><path d="m114.121 9.66-1.56.696h4.332V12h-6.216v-1.488l2.364-1.704c1.2-.864 1.932-1.608 1.932-2.508 0-.768-.396-1.152-1.2-1.152-1.188 0-1.5.756-1.104 2.352l-2.028-.216c-.216-1.188-.024-2.112.564-2.796.588-.672 1.44-1.008 2.556-1.008.948 0 1.716.252 2.304.744.576.492.864 1.152.864 1.956 0 .828-.228 1.512-.672 2.028-.444.528-1.164 1.008-2.136 1.452Zm7.296-6.18c1.068 0 1.908.384 2.544 1.14.636.756.948 1.824.948 3.18s-.312 2.424-.948 3.18c-.636.756-1.476 1.14-2.544 1.14-1.056 0-1.896-.384-2.52-1.14-.636-.756-.948-1.824-.948-3.18s.312-2.424.948-3.18c.624-.756 1.464-1.14 2.52-1.14Zm0 6.96c.636 0 1.056-.18 1.26-.528.204-.348.312-1.056.312-2.112s-.108-1.764-.312-2.112c-.204-.348-.624-.528-1.26-.528-.612 0-1.032.18-1.236.528-.204.348-.312 1.056-.312 2.112s.108 1.764.312 2.112c.204.348.624.528 1.236.528Zm3.818-5.388 2.784-1.452h1.776V12h-1.884V4.908l-1.68 1.836-.996-1.692Zm5.825.192V3.6h5.856v1.596c-.876 1.356-1.512 2.508-1.908 3.456-.396.948-.624 2.064-.66 3.348h-2.436c.504-2.724 1.752-4.968 3.744-6.756h-4.596Z" fill="#FFFFFF"></path><rect x="191" width="37" height="16" rx="8" fill="#FFEEF6"></rect><path d="m199.324 9.66-1.56.696h4.332V12h-6.216v-1.488l2.364-1.704c1.2-.864 1.932-1.608 1.932-2.508 0-.768-.396-1.152-1.2-1.152-1.188 0-1.5.756-1.104 2.352l-2.028-.216c-.216-1.188-.024-2.112.564-2.796.588-.672 1.44-1.008 2.556-1.008.948 0 1.716.252 2.304.744.576.492.864 1.152.864 1.956 0 .828-.228 1.512-.672 2.028-.444.528-1.164 1.008-2.136 1.452Zm7.296-6.18c1.068 0 1.908.384 2.544 1.14.636.756.948 1.824.948 3.18s-.312 2.424-.948 3.18c-.636.756-1.476 1.14-2.544 1.14-1.056 0-1.896-.384-2.52-1.14-.636-.756-.948-1.824-.948-3.18s.312-2.424.948-3.18c.624-.756 1.464-1.14 2.52-1.14Zm0 6.96c.636 0 1.056-.18 1.26-.528.204-.348.312-1.056.312-2.112s-.108-1.764-.312-2.112c-.204-.348-.624-.528-1.26-.528-.612 0-1.032.18-1.236.528-.204.348-.312 1.056-.312 2.112s.108 1.764.312 2.112c.204.348.624.528 1.236.528Zm3.818-5.388 2.784-1.452h1.776V12h-1.884V4.908l-1.68 1.836-.996-1.692Zm10.757 2.568c.6.108 1.104.324 1.524.672.408.348.612.816.612 1.428 0 .756-.312 1.344-.936 1.764-.636.42-1.476.636-2.52.636-2.124 0-3.48-.9-3.48-2.448 0-1.116.732-1.8 2.196-2.04-1.308-.228-1.896-.912-1.896-1.824 0-1.452 1.248-2.328 3.168-2.328 1.932 0 3.192.852 3.192 2.304 0 .948-.648 1.596-1.86 1.836Zm-1.308-2.664c-.912 0-1.368.336-1.368 1.008 0 .672.444 1.008 1.344 1.008.924 0 1.38-.336 1.38-1.008 0-.672-.456-1.008-1.356-1.008Zm-.024 5.628c.996 0 1.488-.36 1.488-1.068 0-.744-.504-1.116-1.5-1.116s-1.5.372-1.5 1.104c0 .72.504 1.08 1.512 1.08Z" fill="#FFFFFF"></path><defs><linearGradient id="svg1056874163_12199_a" x1="123.5" y1="8" x2="123.5" y2="118.306" gradientUnits="userSpaceOnUse"><stop stop-color="#D93D8D" stop-opacity=".09"></stop><stop offset="1" stop-color="#D93D8D"></stop></linearGradient><linearGradient id="svg1056874163_12199_a" x1="123.5" y1="8" x2="123.5" y2="118.306" gradientUnits="userSpaceOnUse"><stop stop-color="#D93D8D" stop-opacity=".09"></stop><stop offset="1" stop-color="#D93D8D"></stop></linearGradient></defs></svg></defs><g><path d="M33.593 8s124.539.312 202.396.04C241.529 8.02 246 12.504 246 18.044V39.67c0 5.523-4.477 10-10 10H11c-5.523 0-10 4.478-10 10v21.672c0 5.53 4.49 10.011 10.02 10l103.058-.206c5.531-.01 10.02 4.47 10.02 10V158" stroke="url(&quot;#svg1056874163_12199_a&quot;)" stroke-dasharray="2 2" fill="none"></path><rect x="19" y="42" width="37" height="16" rx="8" fill="#ABE5FF"></rect><path d="m27.295 51.66-1.56.696h4.332V54h-6.216v-1.488l2.364-1.704c1.2-.864 1.932-1.608 1.932-2.508 0-.768-.396-1.152-1.2-1.152-1.188 0-1.5.756-1.104 2.352l-2.028-.216c-.216-1.188-.024-2.112.564-2.796.588-.672 1.44-1.008 2.556-1.008.948 0 1.716.252 2.304.744.576.492.864 1.152.864 1.956 0 .828-.228 1.512-.672 2.028-.444.528-1.164 1.008-2.136 1.452Zm7.296-6.18c1.068 0 1.908.384 2.544 1.14.636.756.948 1.824.948 3.18s-.312 2.424-.948 3.18c-.636.756-1.476 1.14-2.544 1.14-1.056 0-1.896-.384-2.52-1.14-.636-.756-.948-1.824-.948-3.18s.312-2.424.948-3.18c.624-.756 1.464-1.14 2.52-1.14Zm0 6.96c.636 0 1.056-.18 1.26-.528.204-.348.312-1.056.312-2.112s-.108-1.764-.312-2.112c-.204-.348-.624-.528-1.26-.528-.612 0-1.032.18-1.236.528-.204.348-.312 1.056-.312 2.112s.108 1.764.312 2.112c.204.348.624.528 1.236.528Zm8.009-.78-1.56.696h4.332V54h-6.216v-1.488l2.364-1.704c1.2-.864 1.932-1.608 1.932-2.508 0-.768-.396-1.152-1.2-1.152-1.188 0-1.5.756-1.104 2.352l-2.028-.216c-.216-1.188-.024-2.112.564-2.796.588-.672 1.44-1.008 2.556-1.008.948 0 1.716.252 2.304.744.576.492.864 1.152.864 1.956 0 .828-.228 1.512-.672 2.028-.444.528-1.164 1.008-2.136 1.452Zm3.672-4.608 2.784-1.452h1.776V54h-1.884v-7.092l-1.68 1.836-.996-1.692Z" fill="#FFFFFF"></path><rect x="18" y="84" width="39" height="16" rx="8" fill="#D93D8D"></rect><path d="m26.44 93.66-1.56.696h4.332V96h-6.216v-1.488l2.364-1.704c1.2-.864 1.932-1.608 1.932-2.508 0-.768-.396-1.152-1.2-1.152-1.188 0-1.5.756-1.104 2.352l-2.028-.216c-.216-1.188-.024-2.112.564-2.796.588-.672 1.44-1.008 2.556-1.008.948 0 1.716.252 2.304.744.576.492.864 1.152.864 1.956 0 .828-.228 1.512-.672 2.028-.444.528-1.164 1.008-2.136 1.452Zm7.296-6.18c1.068 0 1.908.384 2.544 1.14.636.756.948 1.824.948 3.18s-.312 2.424-.948 3.18c-.636.756-1.476 1.14-2.544 1.14-1.056 0-1.896-.384-2.52-1.14-.636-.756-.948-1.824-.948-3.18s.312-2.424.948-3.18c.624-.756 1.464-1.14 2.52-1.14Zm0 6.96c.636 0 1.056-.18 1.26-.528.204-.348.312-1.056.312-2.112s-.108-1.764-.312-2.112c-.204-.348-.624-.528-1.26-.528-.612 0-1.032.18-1.236.528-.204.348-.312 1.056-.312 2.112s.108 1.764.312 2.112c.204.348.624.528 1.236.528Zm8.008-.78-1.56.696h4.332V96H38.3v-1.488l2.364-1.704c1.2-.864 1.932-1.608 1.932-2.508 0-.768-.396-1.152-1.2-1.152-1.188 0-1.5.756-1.104 2.352l-2.028-.216c-.216-1.188-.024-2.112.564-2.796.588-.672 1.44-1.008 2.556-1.008.948 0 1.716.252 2.304.744.576.492.864 1.152.864 1.956 0 .828-.228 1.512-.672 2.028-.444.528-1.164 1.008-2.136 1.452Zm7.5 0-1.56.696h4.332V96H45.8v-1.488l2.364-1.704c1.2-.864 1.932-1.608 1.932-2.508 0-.768-.396-1.152-1.2-1.152-1.188 0-1.5.756-1.104 2.352l-2.028-.216c-.216-1.188-.024-2.112.564-2.796.588-.672 1.44-1.008 2.556-1.008.948 0 1.716.252 2.304.744.576.492.864 1.152.864 1.956 0 .828-.228 1.512-.672 2.028-.444.528-1.164 1.008-2.136 1.452Z" fill="#FFFFFF"></path><rect x="191" y="42" width="37" height="16" rx="8" fill="#ABE5FF"></rect><path d="m199.588 51.66-1.56.696h4.332V54h-6.216v-1.488l2.364-1.704c1.2-.864 1.932-1.608 1.932-2.508 0-.768-.396-1.152-1.2-1.152-1.188 0-1.5.756-1.104 2.352l-2.028-.216c-.216-1.188-.024-2.112.564-2.796.588-.672 1.44-1.008 2.556-1.008.948 0 1.716.252 2.304.744.576.492.864 1.152.864 1.956 0 .828-.228 1.512-.672 2.028-.444.528-1.164 1.008-2.136 1.452Zm7.296-6.18c1.068 0 1.908.384 2.544 1.14.636.756.948 1.824.948 3.18s-.312 2.424-.948 3.18c-.636.756-1.476 1.14-2.544 1.14-1.056 0-1.896-.384-2.52-1.14-.636-.756-.948-1.824-.948-3.18s.312-2.424.948-3.18c.624-.756 1.464-1.14 2.52-1.14Zm0 6.96c.636 0 1.056-.18 1.26-.528.204-.348.312-1.056.312-2.112s-.108-1.764-.312-2.112c-.204-.348-.624-.528-1.26-.528-.612 0-1.032.18-1.236.528-.204.348-.312 1.056-.312 2.112s.108 1.764.312 2.112c.204.348.624.528 1.236.528Zm3.818-5.388 2.784-1.452h1.776V54h-1.884v-7.092l-1.68 1.836-.996-1.692Zm9.077-1.572c.948 0 1.728.276 2.364.84.624.564.936 1.308.936 2.22 0 .756-.204 1.512-.612 2.292-.408.78-1.2 1.836-2.364 3.168h-2.784c.3-.276.696-.624 1.212-1.044.504-.42.936-.804 1.284-1.152.348-.348.744-.792 1.2-1.344-.6.564-1.26.84-1.98.84a2.51 2.51 0 0 1-1.848-.768c-.516-.516-.78-1.176-.78-1.992 0-.912.324-1.656.972-2.22.648-.564 1.452-.84 2.4-.84Zm-.012 4.404c.948 0 1.416-.456 1.416-1.368 0-.9-.468-1.344-1.416-1.344s-1.428.444-1.428 1.344c0 .924.456 1.368 1.428 1.368Z" fill="#FFFFFF"></path><rect x="19" width="37" height="16" rx="8" fill="#FFEEF6"></rect><path d="m27.588 9.66-1.56.696h4.332V12h-6.216v-1.488l2.364-1.704c1.2-.864 1.932-1.608 1.932-2.508 0-.768-.396-1.152-1.2-1.152-1.188 0-1.5.756-1.104 2.352l-2.028-.216c-.216-1.188-.024-2.112.564-2.796.588-.672 1.44-1.008 2.556-1.008.948 0 1.716.252 2.304.744.576.492.864 1.152.864 1.956 0 .828-.228 1.512-.672 2.028-.444.528-1.164 1.008-2.136 1.452Zm7.296-6.18c1.068 0 1.908.384 2.544 1.14.636.756.948 1.824.948 3.18s-.312 2.424-.948 3.18c-.636.756-1.476 1.14-2.544 1.14-1.056 0-1.896-.384-2.52-1.14-.636-.756-.948-1.824-.948-3.18s.312-2.424.948-3.18c.624-.756 1.464-1.14 2.52-1.14Zm0 6.96c.636 0 1.056-.18 1.26-.528.204-.348.312-1.056.312-2.112s-.108-1.764-.312-2.112c-.204-.348-.624-.528-1.26-.528-.612 0-1.032.18-1.236.528-.204.348-.312 1.056-.312 2.112s.108 1.764.312 2.112c.204.348.624.528 1.236.528Zm3.818-5.388L41.486 3.6h1.776V12h-1.885V4.908l-1.68 1.836-.995-1.692ZM46.71 7.14c.6-.564 1.26-.84 1.98-.84s1.344.252 1.86.768.768 1.176.768 1.992c0 .912-.324 1.644-.972 2.208-.648.564-1.452.852-2.4.852s-1.728-.288-2.352-.852c-.636-.564-.948-1.296-.948-2.208 0-.756.204-1.524.612-2.304.408-.78 1.2-1.824 2.364-3.156h2.784c-.3.276-.696.624-1.2 1.044-.516.42-.936.804-1.284 1.152-.348.348-.756.792-1.212 1.344Zm1.248 3.288c.948 0 1.428-.444 1.428-1.344 0-.924-.456-1.368-1.428-1.368-.948 0-1.416.456-1.416 1.368 0 .9.468 1.344 1.416 1.344Z" fill="#FFFFFF"></path><rect x="104" y="42" width="39" height="16" rx="8" fill="#FFA4D3"></rect><path d="m112.287 51.66-1.56.696h4.332V54h-6.216v-1.488l2.364-1.704c1.2-.864 1.932-1.608 1.932-2.508 0-.768-.396-1.152-1.2-1.152-1.188 0-1.5.756-1.104 2.352l-2.028-.216c-.216-1.188-.024-2.112.564-2.796.588-.672 1.44-1.008 2.556-1.008.948 0 1.716.252 2.304.744.576.492.864 1.152.864 1.956 0 .828-.228 1.512-.672 2.028-.444.528-1.164 1.008-2.136 1.452Zm7.296-6.18c1.068 0 1.908.384 2.544 1.14.636.756.948 1.824.948 3.18s-.312 2.424-.948 3.18c-.636.756-1.476 1.14-2.544 1.14-1.056 0-1.896-.384-2.52-1.14-.636-.756-.948-1.824-.948-3.18s.312-2.424.948-3.18c.624-.756 1.464-1.14 2.52-1.14Zm0 6.96c.636 0 1.056-.18 1.26-.528.204-.348.312-1.056.312-2.112s-.108-1.764-.312-2.112c-.204-.348-.624-.528-1.26-.528-.612 0-1.032.18-1.236.528-.204.348-.312 1.056-.312 2.112s.108 1.764.312 2.112c.204.348.624.528 1.236.528Zm8.009-.78-1.56.696h4.332V54h-6.216v-1.488l2.364-1.704c1.2-.864 1.932-1.608 1.932-2.508 0-.768-.396-1.152-1.2-1.152-1.188 0-1.5.756-1.104 2.352l-2.028-.216c-.216-1.188-.024-2.112.564-2.796.588-.672 1.44-1.008 2.556-1.008.948 0 1.716.252 2.304.744.576.492.864 1.152.864 1.956 0 .828-.228 1.512-.672 2.028-.444.528-1.164 1.008-2.136 1.452Zm7.296-6.18c1.068 0 1.908.384 2.544 1.14.636.756.948 1.824.948 3.18s-.312 2.424-.948 3.18c-.636.756-1.476 1.14-2.544 1.14-1.056 0-1.896-.384-2.52-1.14-.636-.756-.948-1.824-.948-3.18s.312-2.424.948-3.18c.624-.756 1.464-1.14 2.52-1.14Zm0 6.96c.636 0 1.056-.18 1.26-.528.204-.348.312-1.056.312-2.112s-.108-1.764-.312-2.112c-.204-.348-.624-.528-1.26-.528-.612 0-1.032.18-1.236.528-.204.348-.312 1.056-.312 2.112s.108 1.764.312 2.112c.204.348.624.528 1.236.528Z" fill="#FFFFFF"></path><rect x="104" y="84" width="39" height="16" rx="8" fill="#5FC2EE"></rect><path d="m112.522 93.66-1.56.696h4.332V96h-6.216v-1.488l2.364-1.704c1.2-.864 1.932-1.608 1.932-2.508 0-.768-.396-1.152-1.2-1.152-1.188 0-1.5.756-1.104 2.352l-2.028-.216c-.216-1.188-.024-2.112.564-2.796.588-.672 1.44-1.008 2.556-1.008.948 0 1.716.252 2.304.744.576.492.864 1.152.864 1.956 0 .828-.228 1.512-.672 2.028-.444.528-1.164 1.008-2.136 1.452Zm7.296-6.18c1.068 0 1.908.384 2.544 1.14.636.756.948 1.824.948 3.18s-.312 2.424-.948 3.18c-.636.756-1.476 1.14-2.544 1.14-1.056 0-1.896-.384-2.52-1.14-.636-.756-.948-1.824-.948-3.18s.312-2.424.948-3.18c.624-.756 1.464-1.14 2.52-1.14Zm0 6.96c.636 0 1.056-.18 1.26-.528.204-.348.312-1.056.312-2.112s-.108-1.764-.312-2.112c-.204-.348-.624-.528-1.26-.528-.612 0-1.032.18-1.236.528-.204.348-.312 1.056-.312 2.112s.108 1.764.312 2.112c.204.348.624.528 1.236.528Zm8.008-.78-1.56.696h4.332V96h-6.216v-1.488l2.364-1.704c1.2-.864 1.932-1.608 1.932-2.508 0-.768-.396-1.152-1.2-1.152-1.188 0-1.5.756-1.104 2.352l-2.028-.216c-.216-1.188-.024-2.112.564-2.796.588-.672 1.44-1.008 2.556-1.008.948 0 1.716.252 2.304.744.576.492.864 1.152.864 1.956 0 .828-.228 1.512-.672 2.028-.444.528-1.164 1.008-2.136 1.452Zm8.4-1.992c1.26.276 1.992 1.02 1.992 2.04 0 .684-.288 1.26-.864 1.716-.588.468-1.392.696-2.436.696-2.16 0-3.372-1.056-3.408-2.736l2.004-.228c0 .888.492 1.332 1.464 1.332.852 0 1.38-.36 1.38-1.032 0-.66-.528-.972-1.584-.948l-.972.024v-1.596l1.008.024c.888.024 1.332-.276 1.332-.912 0-.624-.396-.936-1.188-.936-.828 0-1.26.432-1.284 1.308l-2.004-.24c.036-1.644 1.212-2.7 3.228-2.7.972 0 1.728.216 2.28.648.552.432.828.972.828 1.632 0 .96-.588 1.596-1.776 1.908Z" fill="#FFFFFF"></path><rect x="106" width="35" height="16" rx="8" fill="#EAF9FF"></rect><path d="m114.121 9.66-1.56.696h4.332V12h-6.216v-1.488l2.364-1.704c1.2-.864 1.932-1.608 1.932-2.508 0-.768-.396-1.152-1.2-1.152-1.188 0-1.5.756-1.104 2.352l-2.028-.216c-.216-1.188-.024-2.112.564-2.796.588-.672 1.44-1.008 2.556-1.008.948 0 1.716.252 2.304.744.576.492.864 1.152.864 1.956 0 .828-.228 1.512-.672 2.028-.444.528-1.164 1.008-2.136 1.452Zm7.296-6.18c1.068 0 1.908.384 2.544 1.14.636.756.948 1.824.948 3.18s-.312 2.424-.948 3.18c-.636.756-1.476 1.14-2.544 1.14-1.056 0-1.896-.384-2.52-1.14-.636-.756-.948-1.824-.948-3.18s.312-2.424.948-3.18c.624-.756 1.464-1.14 2.52-1.14Zm0 6.96c.636 0 1.056-.18 1.26-.528.204-.348.312-1.056.312-2.112s-.108-1.764-.312-2.112c-.204-.348-.624-.528-1.26-.528-.612 0-1.032.18-1.236.528-.204.348-.312 1.056-.312 2.112s.108 1.764.312 2.112c.204.348.624.528 1.236.528Zm3.818-5.388 2.784-1.452h1.776V12h-1.884V4.908l-1.68 1.836-.996-1.692Zm5.825.192V3.6h5.856v1.596c-.876 1.356-1.512 2.508-1.908 3.456-.396.948-.624 2.064-.66 3.348h-2.436c.504-2.724 1.752-4.968 3.744-6.756h-4.596Z" fill="#FFFFFF"></path><rect x="191" width="37" height="16" rx="8" fill="#FFEEF6"></rect><path d="m199.324 9.66-1.56.696h4.332V12h-6.216v-1.488l2.364-1.704c1.2-.864 1.932-1.608 1.932-2.508 0-.768-.396-1.152-1.2-1.152-1.188 0-1.5.756-1.104 2.352l-2.028-.216c-.216-1.188-.024-2.112.564-2.796.588-.672 1.44-1.008 2.556-1.008.948 0 1.716.252 2.304.744.576.492.864 1.152.864 1.956 0 .828-.228 1.512-.672 2.028-.444.528-1.164 1.008-2.136 1.452Zm7.296-6.18c1.068 0 1.908.384 2.544 1.14.636.756.948 1.824.948 3.18s-.312 2.424-.948 3.18c-.636.756-1.476 1.14-2.544 1.14-1.056 0-1.896-.384-2.52-1.14-.636-.756-.948-1.824-.948-3.18s.312-2.424.948-3.18c.624-.756 1.464-1.14 2.52-1.14Zm0 6.96c.636 0 1.056-.18 1.26-.528.204-.348.312-1.056.312-2.112s-.108-1.764-.312-2.112c-.204-.348-.624-.528-1.26-.528-.612 0-1.032.18-1.236.528-.204.348-.312 1.056-.312 2.112s.108 1.764.312 2.112c.204.348.624.528 1.236.528Zm3.818-5.388 2.784-1.452h1.776V12h-1.884V4.908l-1.68 1.836-.996-1.692Zm10.757 2.568c.6.108 1.104.324 1.524.672.408.348.612.816.612 1.428 0 .756-.312 1.344-.936 1.764-.636.42-1.476.636-2.52.636-2.124 0-3.48-.9-3.48-2.448 0-1.116.732-1.8 2.196-2.04-1.308-.228-1.896-.912-1.896-1.824 0-1.452 1.248-2.328 3.168-2.328 1.932 0 3.192.852 3.192 2.304 0 .948-.648 1.596-1.86 1.836Zm-1.308-2.664c-.912 0-1.368.336-1.368 1.008 0 .672.444 1.008 1.344 1.008.924 0 1.38-.336 1.38-1.008 0-.672-.456-1.008-1.356-1.008Zm-.024 5.628c.996 0 1.488-.36 1.488-1.068 0-.744-.504-1.116-1.5-1.116s-1.5.372-1.5 1.104c0 .72.504 1.08 1.512 1.08Z" fill="#FFFFFF"></path><defs><lineargradient id="svg1056874163_12199_a" x1="123.5" y1="8" x2="123.5" y2="118.306" gradientunits="userSpaceOnUse"><stop stop-color="#D93D8D" stop-opacity=".09"></stop><stop offset="1" stop-color="#D93D8D"></stop></lineargradient><lineargradient id="svg1056874163_12199_a" x1="123.5" y1="8" x2="123.5" y2="118.306" gradientunits="userSpaceOnUse"><stop stop-color="#D93D8D" stop-opacity=".09"></stop><stop offset="1" stop-color="#D93D8D"></stop></lineargradient></defs></g></svg>