<svg xmlns:xlink="http://www.w3.org/1999/xlink" xmlns="http://www.w3.org/2000/svg" width="858" height="490" viewBox="0 0 858 490" fill="none"><g clip-path="url(#clip0_2315_16321)" fill="none">
    

    </g><g clip-path="url(#clip1_2315_16321)" fill="none"></g><rect x="386.5" y="216.589" width="83.6803" height="80" rx="11.5" fill="none"></rect><rect x="49" y="221.589" width="71" height="71" rx="7.5" fill="#FFFFFF"></rect><rect x="67.543" y="240.132" width="33.9188" height="33.9188" rx="5" fill="#FFFFFF"></rect><path d="M96.4592 240.132H72.543C69.793 240.132 67.543 242.382 67.543 245.132V269.051C67.543 271.801 69.793 274.051 72.543 274.051H96.4617C99.2117 274.051 101.462 271.801 101.462 269.051V245.132C101.459 242.382 99.2117 240.132 96.4592 240.132ZM96.138 258.236H92.113V272.798H86.0905V258.236H83.078V253.216H86.0905V250.203C86.0905 246.108 87.7905 243.672 92.628 243.672H96.6492V248.691H94.1342C92.2542 248.691 92.1292 249.394 92.1292 250.703L92.113 253.216H96.6692L96.138 258.236Z" fill="#1877F2"></path><rect x="49" y="221.589" width="71" height="71" rx="7.5" stroke="#D7D9E0" fill="none"></rect><rect x="-0.5" y="0.5" width="71" height="71" rx="7.5" transform="matrix(-1 0 0 1 808.5 221.089)" fill="#FFFFFF"></rect><g clip-path="url(#clip2_2315_16321)" fill="none"></g><rect x="-0.5" y="0.5" width="71" height="71" rx="7.5" transform="matrix(-1 0 0 1 808.5 221.089)" stroke="#D7D9E0" fill="none"></rect><path d="M346 256.178H124.5" stroke="#F1F3F5" stroke-width="4px" stroke-miterlimit="0" stroke-linecap="round" stroke-linejoin="bevel" fill="none"></path><rect x="1" y="98.5889" width="71" height="71" rx="7.5" fill="#FFFFFF"></rect><path d="M19.3217 141.289L31.1709 121.003C32.676 121.889 40.2658 126.089 41.4916 126.888L29.6424 147.175C28.3465 148.887 17.6799 143.887 19.3217 141.287V141.289Z" fill="#FBBC04"></path>
<path d="M53.3669 141.288L41.5177 121.003C39.8611 118.247 36.2935 117.245 33.3631 118.873C30.4327 120.501 29.5405 124.009 31.197 126.889L43.0462 147.176C44.7027 149.931 48.2705 150.933 51.2009 149.305C54.0031 147.676 55.0234 144.045 53.3669 141.29V141.288Z" fill="#4285F4"></path><path d="M24.448 150.088C27.733 150.088 30.396 147.491 30.396 144.288C30.396 141.084 27.733 138.487 24.448 138.487C21.163 138.487 18.5 141.084 18.5 144.288C18.5 147.491 21.163 150.088 24.448 150.088Z" fill="#34A853"></path><rect x="1" y="98.5889" width="71" height="71" rx="7.5" stroke="#D7D9E0" fill="none"></rect><rect x="-0.5" y="0.5" width="71" height="71" rx="7.5" transform="matrix(-1 0 0 1 856.5 98.0889)" fill="#FFFFFF"></rect><rect x="804.271" y="120.613" width="34.457" height="26.9504" fill="url(&quot;#patter2323232n0&quot;)"></rect><rect x="-0.5" y="0.5" width="71" height="71" rx="7.5" transform="matrix(-1 0 0 1 856.5 98.0889)" stroke="#D7D9E0" fill="none"></rect><rect x="103" y="0.588867" width="71" height="71" rx="7.5" fill="#FFFFFF"></rect><rect x="122.061" y="16.9736" width="32.8789" height="38.2313" fill="url(&quot;#pattern155454&quot;)"></rect><rect x="103" y="0.588867" width="71" height="71" rx="7.5" stroke="#D7D9E0" fill="none"></rect><rect x="-0.5" y="0.5" width="71" height="71" rx="7.5" transform="matrix(-1 0 0 1 754.5 0.0888672)" fill="#FFFFFF"></rect><rect x="702.5" y="19.0889" width="34" height="34" fill="url(&quot;#pattern3232434342&quot;)"></rect><rect x="-0.5" y="0.5" width="71" height="71" rx="7.5" transform="matrix(-1 0 0 1 754.5 0.0888672)" stroke="#D7D9E0" fill="none"></rect><rect x="196" y="98.5889" width="71" height="71" rx="7.5" fill="#FFFFFF"></rect><rect x="211" y="113.589" width="41" height="41" fill="url(&quot;#pattern3&quot;)"></rect><rect x="196" y="98.5889" width="71" height="71" rx="7.5" stroke="#D7D9E0" fill="none"></rect><rect x="-0.5" y="0.5" width="71" height="71" rx="7.5" transform="matrix(-1 0 0 1 661.5 98.0889)" fill="#FFFFFF"></rect><g clip-path="url(#clip3_2315_16321)" fill="none">
    icone aqui
    </g><rect x="-0.5" y="0.5" width="71" height="71" rx="7.5" transform="matrix(-1 0 0 1 661.5 98.0889)" stroke="#D7D9E0" fill="none"></rect><rect x="141" y="417.589" width="71" height="71" rx="7.5" fill="#FFFFFF"></rect><rect x="155.565" y="432.154" width="41.8688" height="41.8688" rx="5.23359" fill="url(&quot;#pattern4&quot;)"></rect><rect x="141" y="417.589" width="71" height="71" rx="7.5" stroke="#D7D9E0" fill="none"></rect><rect x="-0.5" y="0.5" width="71" height="71" rx="7.5" transform="matrix(-1 0 0 1 716.5 417.089)" fill="#FFFFFF"></rect><rect x="665.5" y="438.999" width="32" height="28.1791" fill="url(&quot;#pattern5&quot;)"></rect><rect x="-0.5" y="0.5" width="71" height="71" rx="7.5" transform="matrix(-1 0 0 1 716.5 417.089)" stroke="#D7D9E0" fill="none"></rect><rect x="252" y="380.589" width="71" height="71" rx="7.5" fill="#FFFFFF"></rect><g clip-path="url(#clip4_2315_16321)" fill="none"><path d="M295.373 410.914C297.755 412.616 300.674 413.618 303.826 413.618V407.555C303.23 407.555 302.635 407.493 302.051 407.369V412.141C298.899 412.141 295.981 411.14 293.598 409.438V421.81C293.598 428 288.577 433.017 282.385 433.017C280.075 433.017 277.927 432.319 276.144 431.121C278.18 433.202 281.019 434.493 284.16 434.493C290.353 434.493 295.373 429.476 295.373 423.286V410.914H295.373ZM297.563 404.797C296.345 403.468 295.546 401.75 295.373 399.85V399.07H293.69C294.114 401.485 295.558 403.547 297.563 404.797ZM280.06 426.372C279.38 425.48 279.012 424.39 279.014 423.268C279.014 420.438 281.31 418.142 284.143 418.142C284.671 418.142 285.195 418.223 285.699 418.383V412.184C285.11 412.104 284.517 412.07 283.924 412.082V416.907C283.421 416.747 282.895 416.666 282.367 416.667C279.535 416.667 277.239 418.961 277.239 421.793C277.239 423.794 278.386 425.528 280.06 426.372Z" fill="#FF004F"></path><path d="M293.596 409.438C295.979 411.14 298.897 412.141 302.049 412.141V407.369C300.29 406.994 298.732 406.076 297.561 404.797C295.556 403.547 294.112 401.484 293.689 399.07H289.27V423.286C289.26 426.109 286.967 428.395 284.141 428.395C282.475 428.395 280.995 427.601 280.058 426.372C278.385 425.528 277.237 423.794 277.237 421.793C277.237 418.962 279.533 416.667 282.366 416.667C282.908 416.667 283.431 416.751 283.922 416.907V412.082C277.839 412.208 272.946 417.176 272.946 423.286C272.946 426.336 274.165 429.101 276.142 431.122C277.926 432.319 280.073 433.017 282.384 433.017C288.576 433.017 293.596 428 293.596 421.81V409.438L293.596 409.438Z" fill="#18171D"></path><path d="M302.051 407.368V406.078C300.464 406.081 298.909 405.637 297.563 404.797C298.754 406.101 300.323 407 302.051 407.369V407.368ZM293.69 399.07C293.65 398.839 293.619 398.607 293.597 398.373V397.594H287.496V421.81C287.486 424.632 285.194 426.918 282.367 426.918C281.566 426.919 280.775 426.732 280.06 426.371C280.997 427.601 282.477 428.394 284.142 428.394C286.969 428.394 289.261 426.108 289.271 423.285V399.07H293.69V399.07ZM283.924 412.082V410.708C283.414 410.638 282.9 410.603 282.386 410.604C276.193 410.604 271.173 415.621 271.173 421.81C271.173 425.69 273.146 429.109 276.144 431.121C274.166 429.1 272.948 426.335 272.948 423.285C272.948 417.175 277.84 412.207 283.924 412.082Z" fill="#00F2EA">
        
        </path></g><rect x="252" y="380.589" width="71" height="71" rx="7.5" stroke="#D7D9E0" fill="none"></rect><rect x="-0.5" y="0.5" width="71" height="71" rx="7.5" transform="matrix(-1 0 0 1 605.5 380.089)" fill="#FFFFFF"></rect><g clip-path="url(#clip5_2315_16321)" fill="none"><path d="M586.501 428.025C586.504 428.587 586.375 429.144 586.122 429.658C585.868 430.172 585.496 430.631 585.031 431.006C584.565 431.38 584.017 431.662 583.422 431.831C582.827 432 582.199 432.053 581.579 431.987C579.324 431.686 577.671 429.917 577.726 427.862V404.24C577.671 402.184 579.328 400.413 581.587 400.116C582.206 400.05 582.833 400.104 583.427 400.274C584.021 400.443 584.569 400.725 585.033 401.099C585.498 401.474 585.869 401.933 586.122 402.446C586.375 402.96 586.504 403.516 586.501 404.077V428.025Z" fill="#F9AB00"></path><path d="M558.888 424.112C561.311 424.112 563.275 425.882 563.275 428.067C563.275 430.251 561.311 432.022 558.888 432.022C556.464 432.022 554.5 430.251 554.5 428.067C554.5 425.882 556.464 424.112 558.888 424.112ZM570.432 412.124C567.998 412.245 566.109 414.086 566.165 416.283V426.907C566.165 429.79 567.573 431.54 569.635 431.913C570.274 432.03 570.934 432.017 571.567 431.875C572.2 431.734 572.79 431.467 573.295 431.094C573.799 430.721 574.205 430.252 574.483 429.72C574.761 429.188 574.905 428.607 574.903 428.019V416.1C574.904 415.573 574.789 415.051 574.564 414.565C574.339 414.079 574.008 413.638 573.592 413.267C573.176 412.897 572.682 412.606 572.14 412.41C571.597 412.213 571.017 412.116 570.432 412.124Z" fill="#E37400"></path></g><rect x="-0.5" y="0.5" width="71" height="71" rx="7.5" transform="matrix(-1 0 0 1 605.5 380.089)" stroke="#D7D9E0" fill="none"></rect><path d="M511 256.177H733.5" stroke="#F1F3F5" stroke-width="4px" stroke-miterlimit="0" stroke-linecap="round" stroke-linejoin="bevel" fill="none"></path><path d="M231.5 327.089V174.089" stroke="#F1F3F5" stroke-width="4px" stroke-miterlimit="0" stroke-linecap="round" stroke-linejoin="bevel" fill="none"></path><path d="M626.5 327.089V174.089" stroke="#F1F3F5" stroke-width="4px" stroke-miterlimit="0" stroke-linecap="round" stroke-linejoin="bevel" fill="none"></path><path d="M681.5 413.089V350.089" stroke="#F1F3F5" stroke-width="4px" stroke-miterlimit="0" stroke-linecap="round" stroke-linejoin="bevel" fill="none"></path><rect x="1" y="344.589" width="71" height="71" rx="7.5" fill="#FFFFFF"></rect><g clip-path="url(#clip6_2315_16321)" fill="none"><path d="M49.9668 369.16C49.9385 368.98 49.7587 368.88 49.61 368.869C48.514 368.797 47.4179 368.725 46.3218 368.654C46.3218 368.654 44.1411 366.756 43.9018 366.546C43.6623 366.336 43.1946 366.4 43.013 366.447C42.9863 366.454 42.5366 366.576 41.7927 366.777C41.0642 364.94 39.7786 363.251 37.517 363.251C37.4545 363.251 37.3903 363.253 37.326 363.256C36.6828 362.511 35.886 362.187 35.1978 362.187C29.9293 362.187 27.4122 367.961 26.623 370.895C24.5758 371.451 23.1215 371.846 22.9357 371.898C21.793 372.212 21.7568 372.243 21.6068 373.187C21.4939 373.902 18.5039 394.174 18.5039 394.174L41.8024 398.001L54.4263 395.607C54.4263 395.607 49.9946 369.34 49.9668 369.16ZM40.505 367.127L38.5335 367.661C38.5343 367.54 38.535 367.42 38.535 367.289C38.535 366.147 38.3541 365.227 38.064 364.498C39.2294 364.626 40.0055 365.789 40.505 367.127ZM36.6184 364.725C36.9424 365.436 37.153 366.458 37.153 367.836C37.153 367.907 37.1523 367.971 37.1516 368.036C35.8695 368.384 34.4764 368.762 33.0801 369.142C33.8641 366.489 35.3336 365.208 36.6184 364.725ZM35.0531 363.425C35.2805 363.425 35.5095 363.493 35.7288 363.625C34.0403 364.322 32.2305 366.076 31.4662 369.58L28.2478 370.454C29.143 367.781 31.2689 363.425 35.0531 363.425Z" fill="#95BF46"></path><path d="M49.6112 368.868C48.5152 368.795 47.4191 368.724 46.323 368.653C46.323 368.653 44.1423 366.755 43.903 366.545C43.8134 366.467 43.6926 366.426 43.5663 366.409L41.8047 398L54.4275 395.606C54.4275 395.606 49.9958 369.338 49.968 369.158C49.9397 368.978 49.7598 368.879 49.6112 368.868Z" fill="#5E8E3E"></path><path d="M37.5186 374.983L35.962 379.042C35.962 379.042 34.5982 378.404 32.9265 378.404C30.4757 378.404 30.3523 379.753 30.3523 380.092C30.3523 381.946 35.8648 382.657 35.8648 387C35.8648 390.416 33.3931 392.616 30.0603 392.616C26.0609 392.616 24.0156 390.434 24.0156 390.434L25.0865 387.332C25.0865 387.332 27.1888 388.915 28.9628 388.915C30.122 388.915 30.5935 388.114 30.5935 387.53C30.5935 385.111 26.071 385.004 26.071 381.03C26.071 377.685 28.8092 374.448 34.3367 374.448C36.4664 374.448 37.5186 374.983 37.5186 374.983Z" fill="#FFFFFF"></path></g><rect x="1" y="344.589" width="71" height="71" rx="7.5" stroke="#D7D9E0" fill="none"></rect><rect x="-0.5" y="0.5" width="71" height="71" rx="7.5" transform="matrix(-1 0 0 1 856.5 344.089)" fill="#FFFFFF"></rect><g clip-path="url(#clip7_2315_16321)" fill="none">icone aqui</g><rect x="-0.5" y="0.5" width="71" height="71" rx="7.5" transform="matrix(-1 0 0 1 856.5 344.089)" stroke="#D7D9E0" fill="none"></rect><path d="M346 256.177H184.442C180.023 256.177 176.442 259.758 176.442 264.177V372.088C176.442 376.507 172.86 380.089 168.442 380.089H76.5" stroke="#F1F3F5" stroke-width="4px" stroke-miterlimit="0" stroke-linecap="round" stroke-linejoin="bevel" fill="none"></path><path d="M176.5 330.089V413.089" stroke="#F1F3F5" stroke-width="4px" stroke-miterlimit="0" stroke-linecap="round" stroke-linejoin="bevel" fill="none"></path><path d="M511 256.177H554.997C554.999 256.177 555 256.179 555 256.18V256.18C555 256.182 554.999 256.184 554.997 256.184H510.646C510.554 256.184 510.479 256.109 510.479 256.017V256.017C510.479 255.925 510.554 255.851 510.646 255.851H673.501C677.92 255.851 681.501 259.432 681.501 263.851V372.089C681.501 376.507 685.083 380.089 689.501 380.089H781.5" stroke="#F1F3F5" stroke-width="4px" stroke-miterlimit="0" stroke-linecap="round" stroke-linejoin="bevel" fill="none"></path><path d="M346 256.177H295.5C291.082 256.177 287.5 259.758 287.5 264.177V376.089" stroke="#F1F3F5" stroke-width="4px" stroke-miterlimit="0" stroke-linecap="round" stroke-linejoin="bevel" fill="none"></path><path d="M511 256.177H562.5C566.918 256.177 570.5 259.758 570.5 264.177V376.089" stroke="#F1F3F5" stroke-width="4px" stroke-miterlimit="0" stroke-linecap="round" stroke-linejoin="bevel" fill="none"></path><path d="M231.5 327.089V220.089C231.5 215.671 227.918 212.089 223.5 212.089H147.499C143.081 212.089 139.499 208.507 139.499 204.089V142.089C139.499 137.671 135.917 134.089 131.499 134.089H76.5" stroke="#F1F3F5" stroke-width="4px" stroke-miterlimit="0" stroke-linecap="round" stroke-linejoin="bevel" fill="none"></path><path d="M626.5 327.089V220.089C626.5 215.671 630.082 212.089 634.5 212.089H710.501C714.919 212.089 718.501 208.507 718.501 204.089V142.089C718.501 137.671 722.083 134.089 726.501 134.089H781.5" stroke="#F1F3F5" stroke-width="4px" stroke-miterlimit="0" stroke-linecap="round" stroke-linejoin="bevel" fill="none"></path><path d="M139.482 142.131V76.0889" stroke="#F1F3F5" stroke-width="4px" stroke-miterlimit="0" stroke-linecap="round" stroke-linejoin="bevel" fill="none"></path><path d="M718.52 142.131V76.0889" stroke="#F1F3F5" stroke-width="4px" stroke-miterlimit="0" stroke-linecap="round" stroke-linejoin="bevel" fill="none"></path><defs><pattern id="patter2323232n0" patternContentUnits="objectBoundingBox" width="1" height="1"><g></g></pattern><pattern id="pattern155454" patternContentUnits="objectBoundingBox" width="1" height="1"><g></g></pattern><pattern id="pattern3232434342" patternContentUnits="objectBoundingBox" width="1" height="1"><g></g></pattern><pattern id="pattern3" patternContentUnits="objectBoundingBox" width="1" height="1"><g></g></pattern><pattern id="pattern4" patternContentUnits="objectBoundingBox" width="1" height="1"><g></g></pattern><pattern id="pattern5" patternContentUnits="objectBoundingBox" width="1" height="1"><use xlink:href="#image5_2315_16321" transform="scale(0.00746269 0.00847458)"></use></pattern><clipPath id="clip0_2315_16321"><rect width="79.4123" height="22.9153" fill="white" transform="translate(388.294 245.371)"></rect></clipPath><clipPath id="clip1_2315_16321"><rect width="64.6602" height="18.6584" fill="white" transform="translate(396.01 247.26)"></rect></clipPath><clipPath id="clip2_2315_16321"><rect width="32" height="32" fill="white" transform="translate(757.5 241.089)"></rect></clipPath><clipPath id="clip3_2315_16321"><rect width="32" height="32" fill="white" transform="translate(610.5 118.089)"></rect></clipPath><clipPath id="clip4_2315_16321"><rect width="32.6543" height="36.9912" fill="white" transform="translate(271.173 397.594)"></rect></clipPath><clipPath id="clip5_2315_16321"><rect width="32" height="32" fill="white" transform="translate(554.5 400.089)"></rect></clipPath><clipPath id="clip6_2315_16321"><rect width="36" height="36" fill="white" transform="translate(18.5 362.089)"></rect></clipPath><clipPath id="clip7_2315_16321"><rect width="32" height="32" fill="white" transform="translate(805.5 364.089)"></rect></clipPath>

<image id="image0_2315_16321" width="1501" height="1174" ></image>

<image id="image1_2315_16321" width="258" height="300" ></image>

<image id="image2_2315_16321" width="516" height="516" ></image>


<image id="image3_2315_16321" width="250" height="250" ></image>

<image id="image4_2315_16321" width="225" height="225" ></image>


<pattern id="patter2323232n0" patternContentUnits="objectBoundingBox" width="1" height="1"><g></g></pattern><pattern id="pattern155454" patternContentUnits="objectBoundingBox" width="1" height="1"><g></g></pattern><pattern id="pattern3232434342" patternContentUnits="objectBoundingBox" width="1" height="1"><g></g></pattern><pattern id="pattern3" patternContentUnits="objectBoundingBox" width="1" height="1"><g></g></pattern><pattern id="pattern4" patternContentUnits="objectBoundingBox" width="1" height="1"><g></g></pattern><pattern id="pattern5" patternContentUnits="objectBoundingBox" width="1" height="1"><use xlink:href="#image5_2315_16321" transform="scale(0.00746269 0.00847458)"></use></pattern>

<image id="image0_2315_16321" width="1501" height="1174" ></image>

<image id="image1_2315_16321" width="258" height="300" ></image>


<image id="image2_2315_16321" width="516" height="516" ></image>


<image id="image3_2315_16321" width="250" height="250" ></image>


<image id="image4_2315_16321" width="225" height="225" ></image>


<image id="image0_2315_16321" width="1501" height="1174" ></image>



<image id="image1_2315_16321" width="258" height="300" ></image>

<image id="image2_2315_16321" width="516" height="516" ></image>


<image id="image3_2315_16321" width="250" height="250" ></image>


<image id="image4_2315_16321" width="225" height="225" ></image>

<pattern id="patter2323232n0" patternContentUnits="objectBoundingBox" width="1" height="1"><g></g></pattern><pattern id="pattern155454" patternContentUnits="objectBoundingBox" width="1" height="1"><g></g></pattern><pattern id="pattern3232434342" patternContentUnits="objectBoundingBox" width="1" height="1"><g></g></pattern><pattern id="pattern3" patternContentUnits="objectBoundingBox" width="1" height="1"><g></g></pattern><pattern id="pattern4" patternContentUnits="objectBoundingBox" width="1" height="1"><g></g></pattern><pattern id="pattern5" patternContentUnits="objectBoundingBox" width="1" height="1"><use xlink:href="#image5_2315_16321" transform="scale(0.00746269 0.00847458)"></use></pattern>

<image id="image0_2315_16321" width="1501" height="1174" ></image>


<image id="image1_2315_16321" width="258" height="300" ></image>

<image id="image2_2315_16321" width="516" height="516" ></image>

<image id="image3_2315_16321" width="250" height="250" ></image>

<image id="image4_2315_16321" width="225" height="225" ></image>

<image id="image0_2315_16321" width="1501" height="1174" ></image>


<image id="image1_2315_16321" width="258" height="300" ></image>



<image id="image2_2315_16321" width="516" height="516" ></image>

<image id="image3_2315_16321" width="250" height="250" ></image>



<image id="image4_2315_16321" width="225" height="225" 
></image>

<image id="image0_2315_16321" width="1501" height="1174" 

></image>


<image id="image1_2315_16321" width="258" height="300" 

></image>

<image id="image2_2315_16321" width="516" height="516" 

></image>

<image id="image3_2315_16321" width="250" height="250"

></image>

<image id="image4_2315_16321" width="225" height="225"

></image></defs>





</svg>


